%TF.GenerationSoftware,KiCad,Pcbnew,(7.0.0)*%
%TF.CreationDate,2023-03-12T01:47:21+01:00*%
%TF.ProjectId,g&w,6726772e-6b69-4636-9164-5f7063625858,rev?*%
%TF.SameCoordinates,Original*%
%TF.FileFunction,Drillmap*%
%TF.FilePolarity,Positive*%
%FSLAX45Y45*%
G04 Gerber Fmt 4.5, Leading zero omitted, Abs format (unit mm)*
G04 Created by KiCad (PCBNEW (7.0.0)) date 2023-03-12 01:47:21*
%MOMM*%
%LPD*%
G01*
G04 APERTURE LIST*
%ADD10C,0.050000*%
%ADD11C,0.200000*%
%ADD12C,0.060000*%
%ADD13C,0.130000*%
%ADD14C,0.150000*%
G04 APERTURE END LIST*
D10*
X17685000Y-7925000D02*
G75*
G03*
X17665000Y-7945000I0J-20000D01*
G01*
X20435000Y-7945000D02*
G75*
G03*
X20415000Y-7925000I-20000J0D01*
G01*
X20435000Y-9680000D02*
G75*
G03*
X20455000Y-9700000I20000J0D01*
G01*
X20545000Y-9720000D02*
G75*
G03*
X20525000Y-9700000I-20000J0D01*
G01*
X20525000Y-9953000D02*
G75*
G03*
X20545000Y-9933000I0J20000D01*
G01*
X20545000Y-10917000D02*
G75*
G03*
X20525000Y-10897000I-20000J0D01*
G01*
X20525000Y-11175000D02*
G75*
G03*
X20545000Y-11155000I0J20000D01*
G01*
X20445000Y-11350000D02*
G75*
G03*
X20465000Y-11330000I0J20000D01*
G01*
X20485000Y-11175000D02*
G75*
G03*
X20465000Y-11195000I0J-20000D01*
G01*
X20295000Y-11350000D02*
G75*
G03*
X20275000Y-11370000I0J-20000D01*
G01*
X20255000Y-12325000D02*
G75*
G03*
X20275000Y-12305000I0J20000D01*
G01*
X20275000Y-12665000D02*
G75*
G03*
X20255000Y-12645000I-20000J0D01*
G01*
X20255000Y-12975000D02*
G75*
G03*
X20275000Y-12955000I0J20000D01*
G01*
X20065000Y-12975000D02*
G75*
G03*
X20045000Y-12995000I0J-20000D01*
G01*
X20025000Y-13430000D02*
G75*
G03*
X20045000Y-13410000I0J20000D01*
G01*
X17830000Y-13410000D02*
G75*
G03*
X17850000Y-13430000I20000J0D01*
G01*
X17850000Y-11665000D02*
G75*
G03*
X17830000Y-11685000I0J-20000D01*
G01*
X18020000Y-11665000D02*
G75*
G03*
X18040000Y-11645000I0J20000D01*
G01*
X18040000Y-10595000D02*
G75*
G03*
X18020000Y-10575000I-20000J0D01*
G01*
X9675000Y-10555000D02*
G75*
G03*
X9695000Y-10575000I20000J0D01*
G01*
X9695000Y-7925000D02*
G75*
G03*
X9675000Y-7945000I0J-20000D01*
G01*
X13815000Y-8020000D02*
G75*
G03*
X13835000Y-8040000I20000J0D01*
G01*
X13815000Y-7945000D02*
G75*
G03*
X13795000Y-7925000I-20000J0D01*
G01*
X19805000Y-10897000D02*
G75*
G03*
X19885000Y-10897000I40000J0D01*
G01*
X13815000Y-8020000D02*
X13815000Y-7945000D01*
X20025000Y-12325000D02*
X20255000Y-12325000D01*
X17645000Y-8040000D02*
G75*
G03*
X17665000Y-8020000I0J20000D01*
G01*
X20025000Y-12645000D02*
X20025000Y-12325000D01*
X20295000Y-11350000D02*
X20445000Y-11350000D01*
X17665000Y-7945000D02*
X17665000Y-8020000D01*
X20045000Y-13410000D02*
X20045000Y-12995000D01*
X20525000Y-9700000D02*
X20455000Y-9700000D01*
X20255000Y-12645000D02*
X20025000Y-12645000D01*
X9695000Y-10575000D02*
X18020000Y-10575000D01*
X17645000Y-8040000D02*
X13835000Y-8040000D01*
X13795000Y-7925000D02*
X9695000Y-7925000D01*
X20465000Y-11330000D02*
X20465000Y-11195000D01*
X17830000Y-11685000D02*
X17830000Y-13410000D01*
X20415000Y-7925000D02*
X17685000Y-7925000D01*
X20435000Y-9680000D02*
X20435000Y-7945000D01*
X17850000Y-13430000D02*
X20025000Y-13430000D01*
X20275000Y-12305000D02*
X20275000Y-11370000D01*
X9675000Y-7945000D02*
X9675000Y-10555000D01*
X20525000Y-10897000D02*
X19885000Y-10897000D01*
X20275000Y-12955000D02*
X20275000Y-12665000D01*
X19885000Y-9953000D02*
X20525000Y-9953000D01*
X19805000Y-10897000D02*
X19805000Y-9953000D01*
X20485000Y-11175000D02*
X20525000Y-11175000D01*
X18020000Y-11665000D02*
X17850000Y-11665000D01*
X18040000Y-10595000D02*
X18040000Y-11645000D01*
X19885000Y-9953000D02*
G75*
G03*
X19805000Y-9953000I-40000J0D01*
G01*
X20065000Y-12975000D02*
X20255000Y-12975000D01*
X20545000Y-9933000D02*
X20545000Y-9720000D01*
X20545000Y-11155000D02*
X20545000Y-10917000D01*
D11*
D12*
X19575000Y-10027500D02*
X19635000Y-10087500D01*
X19635000Y-10027500D02*
X19575000Y-10087500D01*
X19575000Y-10762500D02*
X19635000Y-10822500D01*
X19635000Y-10762500D02*
X19575000Y-10822500D01*
D13*
X10042500Y-10390000D02*
G75*
G03*
X10042500Y-10390000I-65000J0D01*
G01*
D11*
X9921897Y-10446198D02*
X10010529Y-10461827D01*
X10010529Y-10461827D02*
G75*
G03*
X10033103Y-10333802I11287J64013D01*
G01*
X10033104Y-10333802D02*
X9944471Y-10318173D01*
X9944471Y-10318173D02*
G75*
G03*
X9921897Y-10446198I-11287J-64013D01*
G01*
D14*
X20060000Y-11540000D02*
X20060000Y-11690000D01*
X19985000Y-11615000D02*
X20135000Y-11615000D01*
D11*
X9920119Y-13725976D02*
X9920119Y-13525976D01*
X9920119Y-13525976D02*
X9967738Y-13525976D01*
X9967738Y-13525976D02*
X9996310Y-13535500D01*
X9996310Y-13535500D02*
X10015357Y-13554548D01*
X10015357Y-13554548D02*
X10024881Y-13573595D01*
X10024881Y-13573595D02*
X10034405Y-13611690D01*
X10034405Y-13611690D02*
X10034405Y-13640262D01*
X10034405Y-13640262D02*
X10024881Y-13678357D01*
X10024881Y-13678357D02*
X10015357Y-13697405D01*
X10015357Y-13697405D02*
X9996310Y-13716452D01*
X9996310Y-13716452D02*
X9967738Y-13725976D01*
X9967738Y-13725976D02*
X9920119Y-13725976D01*
X10120119Y-13725976D02*
X10120119Y-13592643D01*
X10120119Y-13630738D02*
X10129643Y-13611690D01*
X10129643Y-13611690D02*
X10139167Y-13602167D01*
X10139167Y-13602167D02*
X10158214Y-13592643D01*
X10158214Y-13592643D02*
X10177262Y-13592643D01*
X10243929Y-13725976D02*
X10243929Y-13592643D01*
X10243929Y-13525976D02*
X10234405Y-13535500D01*
X10234405Y-13535500D02*
X10243929Y-13545024D01*
X10243929Y-13545024D02*
X10253452Y-13535500D01*
X10253452Y-13535500D02*
X10243929Y-13525976D01*
X10243929Y-13525976D02*
X10243929Y-13545024D01*
X10367738Y-13725976D02*
X10348690Y-13716452D01*
X10348690Y-13716452D02*
X10339167Y-13697405D01*
X10339167Y-13697405D02*
X10339167Y-13525976D01*
X10472500Y-13725976D02*
X10453452Y-13716452D01*
X10453452Y-13716452D02*
X10443929Y-13697405D01*
X10443929Y-13697405D02*
X10443929Y-13525976D01*
X10668690Y-13725976D02*
X10668690Y-13525976D01*
X10668690Y-13525976D02*
X10735357Y-13668833D01*
X10735357Y-13668833D02*
X10802024Y-13525976D01*
X10802024Y-13525976D02*
X10802024Y-13725976D01*
X10982976Y-13725976D02*
X10982976Y-13621214D01*
X10982976Y-13621214D02*
X10973452Y-13602167D01*
X10973452Y-13602167D02*
X10954405Y-13592643D01*
X10954405Y-13592643D02*
X10916309Y-13592643D01*
X10916309Y-13592643D02*
X10897262Y-13602167D01*
X10982976Y-13716452D02*
X10963929Y-13725976D01*
X10963929Y-13725976D02*
X10916309Y-13725976D01*
X10916309Y-13725976D02*
X10897262Y-13716452D01*
X10897262Y-13716452D02*
X10887738Y-13697405D01*
X10887738Y-13697405D02*
X10887738Y-13678357D01*
X10887738Y-13678357D02*
X10897262Y-13659309D01*
X10897262Y-13659309D02*
X10916309Y-13649786D01*
X10916309Y-13649786D02*
X10963929Y-13649786D01*
X10963929Y-13649786D02*
X10982976Y-13640262D01*
X11078214Y-13592643D02*
X11078214Y-13792643D01*
X11078214Y-13602167D02*
X11097262Y-13592643D01*
X11097262Y-13592643D02*
X11135357Y-13592643D01*
X11135357Y-13592643D02*
X11154405Y-13602167D01*
X11154405Y-13602167D02*
X11163929Y-13611690D01*
X11163929Y-13611690D02*
X11173452Y-13630738D01*
X11173452Y-13630738D02*
X11173452Y-13687881D01*
X11173452Y-13687881D02*
X11163929Y-13706928D01*
X11163929Y-13706928D02*
X11154405Y-13716452D01*
X11154405Y-13716452D02*
X11135357Y-13725976D01*
X11135357Y-13725976D02*
X11097262Y-13725976D01*
X11097262Y-13725976D02*
X11078214Y-13716452D01*
X11259167Y-13706928D02*
X11268690Y-13716452D01*
X11268690Y-13716452D02*
X11259167Y-13725976D01*
X11259167Y-13725976D02*
X11249643Y-13716452D01*
X11249643Y-13716452D02*
X11259167Y-13706928D01*
X11259167Y-13706928D02*
X11259167Y-13725976D01*
X11259167Y-13602167D02*
X11268690Y-13611690D01*
X11268690Y-13611690D02*
X11259167Y-13621214D01*
X11259167Y-13621214D02*
X11249643Y-13611690D01*
X11249643Y-13611690D02*
X11259167Y-13602167D01*
X11259167Y-13602167D02*
X11259167Y-13621214D01*
D12*
X9612500Y-14042500D02*
X9672500Y-14102500D01*
X9672500Y-14042500D02*
X9612500Y-14102500D01*
D11*
X9958214Y-13945976D02*
X9977262Y-13945976D01*
X9977262Y-13945976D02*
X9996310Y-13955500D01*
X9996310Y-13955500D02*
X10005833Y-13965024D01*
X10005833Y-13965024D02*
X10015357Y-13984071D01*
X10015357Y-13984071D02*
X10024881Y-14022167D01*
X10024881Y-14022167D02*
X10024881Y-14069786D01*
X10024881Y-14069786D02*
X10015357Y-14107881D01*
X10015357Y-14107881D02*
X10005833Y-14126928D01*
X10005833Y-14126928D02*
X9996310Y-14136452D01*
X9996310Y-14136452D02*
X9977262Y-14145976D01*
X9977262Y-14145976D02*
X9958214Y-14145976D01*
X9958214Y-14145976D02*
X9939167Y-14136452D01*
X9939167Y-14136452D02*
X9929643Y-14126928D01*
X9929643Y-14126928D02*
X9920119Y-14107881D01*
X9920119Y-14107881D02*
X9910595Y-14069786D01*
X9910595Y-14069786D02*
X9910595Y-14022167D01*
X9910595Y-14022167D02*
X9920119Y-13984071D01*
X9920119Y-13984071D02*
X9929643Y-13965024D01*
X9929643Y-13965024D02*
X9939167Y-13955500D01*
X9939167Y-13955500D02*
X9958214Y-13945976D01*
X10110595Y-14126928D02*
X10120119Y-14136452D01*
X10120119Y-14136452D02*
X10110595Y-14145976D01*
X10110595Y-14145976D02*
X10101071Y-14136452D01*
X10101071Y-14136452D02*
X10110595Y-14126928D01*
X10110595Y-14126928D02*
X10110595Y-14145976D01*
X10291548Y-13945976D02*
X10253452Y-13945976D01*
X10253452Y-13945976D02*
X10234405Y-13955500D01*
X10234405Y-13955500D02*
X10224881Y-13965024D01*
X10224881Y-13965024D02*
X10205833Y-13993595D01*
X10205833Y-13993595D02*
X10196310Y-14031690D01*
X10196310Y-14031690D02*
X10196310Y-14107881D01*
X10196310Y-14107881D02*
X10205833Y-14126928D01*
X10205833Y-14126928D02*
X10215357Y-14136452D01*
X10215357Y-14136452D02*
X10234405Y-14145976D01*
X10234405Y-14145976D02*
X10272500Y-14145976D01*
X10272500Y-14145976D02*
X10291548Y-14136452D01*
X10291548Y-14136452D02*
X10301071Y-14126928D01*
X10301071Y-14126928D02*
X10310595Y-14107881D01*
X10310595Y-14107881D02*
X10310595Y-14060262D01*
X10310595Y-14060262D02*
X10301071Y-14041214D01*
X10301071Y-14041214D02*
X10291548Y-14031690D01*
X10291548Y-14031690D02*
X10272500Y-14022167D01*
X10272500Y-14022167D02*
X10234405Y-14022167D01*
X10234405Y-14022167D02*
X10215357Y-14031690D01*
X10215357Y-14031690D02*
X10205833Y-14041214D01*
X10205833Y-14041214D02*
X10196310Y-14060262D01*
X10434405Y-13945976D02*
X10453452Y-13945976D01*
X10453452Y-13945976D02*
X10472500Y-13955500D01*
X10472500Y-13955500D02*
X10482024Y-13965024D01*
X10482024Y-13965024D02*
X10491548Y-13984071D01*
X10491548Y-13984071D02*
X10501071Y-14022167D01*
X10501071Y-14022167D02*
X10501071Y-14069786D01*
X10501071Y-14069786D02*
X10491548Y-14107881D01*
X10491548Y-14107881D02*
X10482024Y-14126928D01*
X10482024Y-14126928D02*
X10472500Y-14136452D01*
X10472500Y-14136452D02*
X10453452Y-14145976D01*
X10453452Y-14145976D02*
X10434405Y-14145976D01*
X10434405Y-14145976D02*
X10415357Y-14136452D01*
X10415357Y-14136452D02*
X10405833Y-14126928D01*
X10405833Y-14126928D02*
X10396310Y-14107881D01*
X10396310Y-14107881D02*
X10386786Y-14069786D01*
X10386786Y-14069786D02*
X10386786Y-14022167D01*
X10386786Y-14022167D02*
X10396310Y-13984071D01*
X10396310Y-13984071D02*
X10405833Y-13965024D01*
X10405833Y-13965024D02*
X10415357Y-13955500D01*
X10415357Y-13955500D02*
X10434405Y-13945976D01*
X10624881Y-13945976D02*
X10643929Y-13945976D01*
X10643929Y-13945976D02*
X10662976Y-13955500D01*
X10662976Y-13955500D02*
X10672500Y-13965024D01*
X10672500Y-13965024D02*
X10682024Y-13984071D01*
X10682024Y-13984071D02*
X10691548Y-14022167D01*
X10691548Y-14022167D02*
X10691548Y-14069786D01*
X10691548Y-14069786D02*
X10682024Y-14107881D01*
X10682024Y-14107881D02*
X10672500Y-14126928D01*
X10672500Y-14126928D02*
X10662976Y-14136452D01*
X10662976Y-14136452D02*
X10643929Y-14145976D01*
X10643929Y-14145976D02*
X10624881Y-14145976D01*
X10624881Y-14145976D02*
X10605833Y-14136452D01*
X10605833Y-14136452D02*
X10596310Y-14126928D01*
X10596310Y-14126928D02*
X10586786Y-14107881D01*
X10586786Y-14107881D02*
X10577262Y-14069786D01*
X10577262Y-14069786D02*
X10577262Y-14022167D01*
X10577262Y-14022167D02*
X10586786Y-13984071D01*
X10586786Y-13984071D02*
X10596310Y-13965024D01*
X10596310Y-13965024D02*
X10605833Y-13955500D01*
X10605833Y-13955500D02*
X10624881Y-13945976D01*
X10777262Y-14145976D02*
X10777262Y-14012643D01*
X10777262Y-14031690D02*
X10786786Y-14022167D01*
X10786786Y-14022167D02*
X10805833Y-14012643D01*
X10805833Y-14012643D02*
X10834405Y-14012643D01*
X10834405Y-14012643D02*
X10853452Y-14022167D01*
X10853452Y-14022167D02*
X10862976Y-14041214D01*
X10862976Y-14041214D02*
X10862976Y-14145976D01*
X10862976Y-14041214D02*
X10872500Y-14022167D01*
X10872500Y-14022167D02*
X10891548Y-14012643D01*
X10891548Y-14012643D02*
X10920119Y-14012643D01*
X10920119Y-14012643D02*
X10939167Y-14022167D01*
X10939167Y-14022167D02*
X10948691Y-14041214D01*
X10948691Y-14041214D02*
X10948691Y-14145976D01*
X11043929Y-14145976D02*
X11043929Y-14012643D01*
X11043929Y-14031690D02*
X11053452Y-14022167D01*
X11053452Y-14022167D02*
X11072500Y-14012643D01*
X11072500Y-14012643D02*
X11101072Y-14012643D01*
X11101072Y-14012643D02*
X11120119Y-14022167D01*
X11120119Y-14022167D02*
X11129643Y-14041214D01*
X11129643Y-14041214D02*
X11129643Y-14145976D01*
X11129643Y-14041214D02*
X11139167Y-14022167D01*
X11139167Y-14022167D02*
X11158214Y-14012643D01*
X11158214Y-14012643D02*
X11186786Y-14012643D01*
X11186786Y-14012643D02*
X11205833Y-14022167D01*
X11205833Y-14022167D02*
X11215357Y-14041214D01*
X11215357Y-14041214D02*
X11215357Y-14145976D01*
X11573452Y-13936452D02*
X11402024Y-14193595D01*
X11798214Y-13945976D02*
X11817262Y-13945976D01*
X11817262Y-13945976D02*
X11836310Y-13955500D01*
X11836310Y-13955500D02*
X11845833Y-13965024D01*
X11845833Y-13965024D02*
X11855357Y-13984071D01*
X11855357Y-13984071D02*
X11864881Y-14022167D01*
X11864881Y-14022167D02*
X11864881Y-14069786D01*
X11864881Y-14069786D02*
X11855357Y-14107881D01*
X11855357Y-14107881D02*
X11845833Y-14126928D01*
X11845833Y-14126928D02*
X11836310Y-14136452D01*
X11836310Y-14136452D02*
X11817262Y-14145976D01*
X11817262Y-14145976D02*
X11798214Y-14145976D01*
X11798214Y-14145976D02*
X11779167Y-14136452D01*
X11779167Y-14136452D02*
X11769643Y-14126928D01*
X11769643Y-14126928D02*
X11760119Y-14107881D01*
X11760119Y-14107881D02*
X11750595Y-14069786D01*
X11750595Y-14069786D02*
X11750595Y-14022167D01*
X11750595Y-14022167D02*
X11760119Y-13984071D01*
X11760119Y-13984071D02*
X11769643Y-13965024D01*
X11769643Y-13965024D02*
X11779167Y-13955500D01*
X11779167Y-13955500D02*
X11798214Y-13945976D01*
X11950595Y-14126928D02*
X11960119Y-14136452D01*
X11960119Y-14136452D02*
X11950595Y-14145976D01*
X11950595Y-14145976D02*
X11941071Y-14136452D01*
X11941071Y-14136452D02*
X11950595Y-14126928D01*
X11950595Y-14126928D02*
X11950595Y-14145976D01*
X12083929Y-13945976D02*
X12102976Y-13945976D01*
X12102976Y-13945976D02*
X12122024Y-13955500D01*
X12122024Y-13955500D02*
X12131548Y-13965024D01*
X12131548Y-13965024D02*
X12141071Y-13984071D01*
X12141071Y-13984071D02*
X12150595Y-14022167D01*
X12150595Y-14022167D02*
X12150595Y-14069786D01*
X12150595Y-14069786D02*
X12141071Y-14107881D01*
X12141071Y-14107881D02*
X12131548Y-14126928D01*
X12131548Y-14126928D02*
X12122024Y-14136452D01*
X12122024Y-14136452D02*
X12102976Y-14145976D01*
X12102976Y-14145976D02*
X12083929Y-14145976D01*
X12083929Y-14145976D02*
X12064881Y-14136452D01*
X12064881Y-14136452D02*
X12055357Y-14126928D01*
X12055357Y-14126928D02*
X12045833Y-14107881D01*
X12045833Y-14107881D02*
X12036310Y-14069786D01*
X12036310Y-14069786D02*
X12036310Y-14022167D01*
X12036310Y-14022167D02*
X12045833Y-13984071D01*
X12045833Y-13984071D02*
X12055357Y-13965024D01*
X12055357Y-13965024D02*
X12064881Y-13955500D01*
X12064881Y-13955500D02*
X12083929Y-13945976D01*
X12226786Y-13965024D02*
X12236310Y-13955500D01*
X12236310Y-13955500D02*
X12255357Y-13945976D01*
X12255357Y-13945976D02*
X12302976Y-13945976D01*
X12302976Y-13945976D02*
X12322024Y-13955500D01*
X12322024Y-13955500D02*
X12331548Y-13965024D01*
X12331548Y-13965024D02*
X12341071Y-13984071D01*
X12341071Y-13984071D02*
X12341071Y-14003119D01*
X12341071Y-14003119D02*
X12331548Y-14031690D01*
X12331548Y-14031690D02*
X12217262Y-14145976D01*
X12217262Y-14145976D02*
X12341071Y-14145976D01*
X12407738Y-13945976D02*
X12531548Y-13945976D01*
X12531548Y-13945976D02*
X12464881Y-14022167D01*
X12464881Y-14022167D02*
X12493452Y-14022167D01*
X12493452Y-14022167D02*
X12512500Y-14031690D01*
X12512500Y-14031690D02*
X12522024Y-14041214D01*
X12522024Y-14041214D02*
X12531548Y-14060262D01*
X12531548Y-14060262D02*
X12531548Y-14107881D01*
X12531548Y-14107881D02*
X12522024Y-14126928D01*
X12522024Y-14126928D02*
X12512500Y-14136452D01*
X12512500Y-14136452D02*
X12493452Y-14145976D01*
X12493452Y-14145976D02*
X12436310Y-14145976D01*
X12436310Y-14145976D02*
X12417262Y-14136452D01*
X12417262Y-14136452D02*
X12407738Y-14126928D01*
X12702976Y-13945976D02*
X12664881Y-13945976D01*
X12664881Y-13945976D02*
X12645833Y-13955500D01*
X12645833Y-13955500D02*
X12636310Y-13965024D01*
X12636310Y-13965024D02*
X12617262Y-13993595D01*
X12617262Y-13993595D02*
X12607738Y-14031690D01*
X12607738Y-14031690D02*
X12607738Y-14107881D01*
X12607738Y-14107881D02*
X12617262Y-14126928D01*
X12617262Y-14126928D02*
X12626786Y-14136452D01*
X12626786Y-14136452D02*
X12645833Y-14145976D01*
X12645833Y-14145976D02*
X12683929Y-14145976D01*
X12683929Y-14145976D02*
X12702976Y-14136452D01*
X12702976Y-14136452D02*
X12712500Y-14126928D01*
X12712500Y-14126928D02*
X12722024Y-14107881D01*
X12722024Y-14107881D02*
X12722024Y-14060262D01*
X12722024Y-14060262D02*
X12712500Y-14041214D01*
X12712500Y-14041214D02*
X12702976Y-14031690D01*
X12702976Y-14031690D02*
X12683929Y-14022167D01*
X12683929Y-14022167D02*
X12645833Y-14022167D01*
X12645833Y-14022167D02*
X12626786Y-14031690D01*
X12626786Y-14031690D02*
X12617262Y-14041214D01*
X12617262Y-14041214D02*
X12607738Y-14060262D01*
X12798214Y-13945976D02*
X12798214Y-13984071D01*
X12874405Y-13945976D02*
X12874405Y-13984071D01*
X13137262Y-14222167D02*
X13127738Y-14212643D01*
X13127738Y-14212643D02*
X13108691Y-14184071D01*
X13108691Y-14184071D02*
X13099167Y-14165024D01*
X13099167Y-14165024D02*
X13089643Y-14136452D01*
X13089643Y-14136452D02*
X13080119Y-14088833D01*
X13080119Y-14088833D02*
X13080119Y-14050738D01*
X13080119Y-14050738D02*
X13089643Y-14003119D01*
X13089643Y-14003119D02*
X13099167Y-13974548D01*
X13099167Y-13974548D02*
X13108691Y-13955500D01*
X13108691Y-13955500D02*
X13127738Y-13926928D01*
X13127738Y-13926928D02*
X13137262Y-13917405D01*
X13203929Y-13965024D02*
X13213452Y-13955500D01*
X13213452Y-13955500D02*
X13232500Y-13945976D01*
X13232500Y-13945976D02*
X13280119Y-13945976D01*
X13280119Y-13945976D02*
X13299167Y-13955500D01*
X13299167Y-13955500D02*
X13308691Y-13965024D01*
X13308691Y-13965024D02*
X13318214Y-13984071D01*
X13318214Y-13984071D02*
X13318214Y-14003119D01*
X13318214Y-14003119D02*
X13308691Y-14031690D01*
X13308691Y-14031690D02*
X13194405Y-14145976D01*
X13194405Y-14145976D02*
X13318214Y-14145976D01*
X13523929Y-14145976D02*
X13523929Y-13945976D01*
X13609643Y-14145976D02*
X13609643Y-14041214D01*
X13609643Y-14041214D02*
X13600119Y-14022167D01*
X13600119Y-14022167D02*
X13581072Y-14012643D01*
X13581072Y-14012643D02*
X13552500Y-14012643D01*
X13552500Y-14012643D02*
X13533452Y-14022167D01*
X13533452Y-14022167D02*
X13523929Y-14031690D01*
X13733452Y-14145976D02*
X13714405Y-14136452D01*
X13714405Y-14136452D02*
X13704881Y-14126928D01*
X13704881Y-14126928D02*
X13695357Y-14107881D01*
X13695357Y-14107881D02*
X13695357Y-14050738D01*
X13695357Y-14050738D02*
X13704881Y-14031690D01*
X13704881Y-14031690D02*
X13714405Y-14022167D01*
X13714405Y-14022167D02*
X13733452Y-14012643D01*
X13733452Y-14012643D02*
X13762024Y-14012643D01*
X13762024Y-14012643D02*
X13781072Y-14022167D01*
X13781072Y-14022167D02*
X13790595Y-14031690D01*
X13790595Y-14031690D02*
X13800119Y-14050738D01*
X13800119Y-14050738D02*
X13800119Y-14107881D01*
X13800119Y-14107881D02*
X13790595Y-14126928D01*
X13790595Y-14126928D02*
X13781072Y-14136452D01*
X13781072Y-14136452D02*
X13762024Y-14145976D01*
X13762024Y-14145976D02*
X13733452Y-14145976D01*
X13914405Y-14145976D02*
X13895357Y-14136452D01*
X13895357Y-14136452D02*
X13885833Y-14117405D01*
X13885833Y-14117405D02*
X13885833Y-13945976D01*
X14066786Y-14136452D02*
X14047738Y-14145976D01*
X14047738Y-14145976D02*
X14009643Y-14145976D01*
X14009643Y-14145976D02*
X13990595Y-14136452D01*
X13990595Y-14136452D02*
X13981072Y-14117405D01*
X13981072Y-14117405D02*
X13981072Y-14041214D01*
X13981072Y-14041214D02*
X13990595Y-14022167D01*
X13990595Y-14022167D02*
X14009643Y-14012643D01*
X14009643Y-14012643D02*
X14047738Y-14012643D01*
X14047738Y-14012643D02*
X14066786Y-14022167D01*
X14066786Y-14022167D02*
X14076310Y-14041214D01*
X14076310Y-14041214D02*
X14076310Y-14060262D01*
X14076310Y-14060262D02*
X13981072Y-14079309D01*
X14152500Y-14136452D02*
X14171548Y-14145976D01*
X14171548Y-14145976D02*
X14209643Y-14145976D01*
X14209643Y-14145976D02*
X14228691Y-14136452D01*
X14228691Y-14136452D02*
X14238214Y-14117405D01*
X14238214Y-14117405D02*
X14238214Y-14107881D01*
X14238214Y-14107881D02*
X14228691Y-14088833D01*
X14228691Y-14088833D02*
X14209643Y-14079309D01*
X14209643Y-14079309D02*
X14181072Y-14079309D01*
X14181072Y-14079309D02*
X14162024Y-14069786D01*
X14162024Y-14069786D02*
X14152500Y-14050738D01*
X14152500Y-14050738D02*
X14152500Y-14041214D01*
X14152500Y-14041214D02*
X14162024Y-14022167D01*
X14162024Y-14022167D02*
X14181072Y-14012643D01*
X14181072Y-14012643D02*
X14209643Y-14012643D01*
X14209643Y-14012643D02*
X14228691Y-14022167D01*
X14304881Y-14222167D02*
X14314405Y-14212643D01*
X14314405Y-14212643D02*
X14333453Y-14184071D01*
X14333453Y-14184071D02*
X14342976Y-14165024D01*
X14342976Y-14165024D02*
X14352500Y-14136452D01*
X14352500Y-14136452D02*
X14362024Y-14088833D01*
X14362024Y-14088833D02*
X14362024Y-14050738D01*
X14362024Y-14050738D02*
X14352500Y-14003119D01*
X14352500Y-14003119D02*
X14342976Y-13974548D01*
X14342976Y-13974548D02*
X14333453Y-13955500D01*
X14333453Y-13955500D02*
X14314405Y-13926928D01*
X14314405Y-13926928D02*
X14304881Y-13917405D01*
X14634405Y-14222167D02*
X14624881Y-14212643D01*
X14624881Y-14212643D02*
X14605833Y-14184071D01*
X14605833Y-14184071D02*
X14596310Y-14165024D01*
X14596310Y-14165024D02*
X14586786Y-14136452D01*
X14586786Y-14136452D02*
X14577262Y-14088833D01*
X14577262Y-14088833D02*
X14577262Y-14050738D01*
X14577262Y-14050738D02*
X14586786Y-14003119D01*
X14586786Y-14003119D02*
X14596310Y-13974548D01*
X14596310Y-13974548D02*
X14605833Y-13955500D01*
X14605833Y-13955500D02*
X14624881Y-13926928D01*
X14624881Y-13926928D02*
X14634405Y-13917405D01*
X14710595Y-14012643D02*
X14710595Y-14145976D01*
X14710595Y-14031690D02*
X14720119Y-14022167D01*
X14720119Y-14022167D02*
X14739167Y-14012643D01*
X14739167Y-14012643D02*
X14767738Y-14012643D01*
X14767738Y-14012643D02*
X14786786Y-14022167D01*
X14786786Y-14022167D02*
X14796310Y-14041214D01*
X14796310Y-14041214D02*
X14796310Y-14145976D01*
X14920119Y-14145976D02*
X14901072Y-14136452D01*
X14901072Y-14136452D02*
X14891548Y-14126928D01*
X14891548Y-14126928D02*
X14882024Y-14107881D01*
X14882024Y-14107881D02*
X14882024Y-14050738D01*
X14882024Y-14050738D02*
X14891548Y-14031690D01*
X14891548Y-14031690D02*
X14901072Y-14022167D01*
X14901072Y-14022167D02*
X14920119Y-14012643D01*
X14920119Y-14012643D02*
X14948691Y-14012643D01*
X14948691Y-14012643D02*
X14967738Y-14022167D01*
X14967738Y-14022167D02*
X14977262Y-14031690D01*
X14977262Y-14031690D02*
X14986786Y-14050738D01*
X14986786Y-14050738D02*
X14986786Y-14107881D01*
X14986786Y-14107881D02*
X14977262Y-14126928D01*
X14977262Y-14126928D02*
X14967738Y-14136452D01*
X14967738Y-14136452D02*
X14948691Y-14145976D01*
X14948691Y-14145976D02*
X14920119Y-14145976D01*
X15043929Y-14012643D02*
X15120119Y-14012643D01*
X15072500Y-13945976D02*
X15072500Y-14117405D01*
X15072500Y-14117405D02*
X15082024Y-14136452D01*
X15082024Y-14136452D02*
X15101072Y-14145976D01*
X15101072Y-14145976D02*
X15120119Y-14145976D01*
X15306786Y-14012643D02*
X15306786Y-14212643D01*
X15306786Y-14022167D02*
X15325833Y-14012643D01*
X15325833Y-14012643D02*
X15363929Y-14012643D01*
X15363929Y-14012643D02*
X15382976Y-14022167D01*
X15382976Y-14022167D02*
X15392500Y-14031690D01*
X15392500Y-14031690D02*
X15402024Y-14050738D01*
X15402024Y-14050738D02*
X15402024Y-14107881D01*
X15402024Y-14107881D02*
X15392500Y-14126928D01*
X15392500Y-14126928D02*
X15382976Y-14136452D01*
X15382976Y-14136452D02*
X15363929Y-14145976D01*
X15363929Y-14145976D02*
X15325833Y-14145976D01*
X15325833Y-14145976D02*
X15306786Y-14136452D01*
X15516310Y-14145976D02*
X15497262Y-14136452D01*
X15497262Y-14136452D02*
X15487738Y-14117405D01*
X15487738Y-14117405D02*
X15487738Y-13945976D01*
X15678214Y-14145976D02*
X15678214Y-14041214D01*
X15678214Y-14041214D02*
X15668691Y-14022167D01*
X15668691Y-14022167D02*
X15649643Y-14012643D01*
X15649643Y-14012643D02*
X15611548Y-14012643D01*
X15611548Y-14012643D02*
X15592500Y-14022167D01*
X15678214Y-14136452D02*
X15659167Y-14145976D01*
X15659167Y-14145976D02*
X15611548Y-14145976D01*
X15611548Y-14145976D02*
X15592500Y-14136452D01*
X15592500Y-14136452D02*
X15582976Y-14117405D01*
X15582976Y-14117405D02*
X15582976Y-14098357D01*
X15582976Y-14098357D02*
X15592500Y-14079309D01*
X15592500Y-14079309D02*
X15611548Y-14069786D01*
X15611548Y-14069786D02*
X15659167Y-14069786D01*
X15659167Y-14069786D02*
X15678214Y-14060262D01*
X15744881Y-14012643D02*
X15821072Y-14012643D01*
X15773453Y-13945976D02*
X15773453Y-14117405D01*
X15773453Y-14117405D02*
X15782976Y-14136452D01*
X15782976Y-14136452D02*
X15802024Y-14145976D01*
X15802024Y-14145976D02*
X15821072Y-14145976D01*
X15963929Y-14136452D02*
X15944881Y-14145976D01*
X15944881Y-14145976D02*
X15906786Y-14145976D01*
X15906786Y-14145976D02*
X15887738Y-14136452D01*
X15887738Y-14136452D02*
X15878214Y-14117405D01*
X15878214Y-14117405D02*
X15878214Y-14041214D01*
X15878214Y-14041214D02*
X15887738Y-14022167D01*
X15887738Y-14022167D02*
X15906786Y-14012643D01*
X15906786Y-14012643D02*
X15944881Y-14012643D01*
X15944881Y-14012643D02*
X15963929Y-14022167D01*
X15963929Y-14022167D02*
X15973453Y-14041214D01*
X15973453Y-14041214D02*
X15973453Y-14060262D01*
X15973453Y-14060262D02*
X15878214Y-14079309D01*
X16144881Y-14145976D02*
X16144881Y-13945976D01*
X16144881Y-14136452D02*
X16125834Y-14145976D01*
X16125834Y-14145976D02*
X16087738Y-14145976D01*
X16087738Y-14145976D02*
X16068691Y-14136452D01*
X16068691Y-14136452D02*
X16059167Y-14126928D01*
X16059167Y-14126928D02*
X16049643Y-14107881D01*
X16049643Y-14107881D02*
X16049643Y-14050738D01*
X16049643Y-14050738D02*
X16059167Y-14031690D01*
X16059167Y-14031690D02*
X16068691Y-14022167D01*
X16068691Y-14022167D02*
X16087738Y-14012643D01*
X16087738Y-14012643D02*
X16125834Y-14012643D01*
X16125834Y-14012643D02*
X16144881Y-14022167D01*
X16221072Y-14222167D02*
X16230595Y-14212643D01*
X16230595Y-14212643D02*
X16249643Y-14184071D01*
X16249643Y-14184071D02*
X16259167Y-14165024D01*
X16259167Y-14165024D02*
X16268691Y-14136452D01*
X16268691Y-14136452D02*
X16278214Y-14088833D01*
X16278214Y-14088833D02*
X16278214Y-14050738D01*
X16278214Y-14050738D02*
X16268691Y-14003119D01*
X16268691Y-14003119D02*
X16259167Y-13974548D01*
X16259167Y-13974548D02*
X16249643Y-13955500D01*
X16249643Y-13955500D02*
X16230595Y-13926928D01*
X16230595Y-13926928D02*
X16221072Y-13917405D01*
D13*
X9672500Y-14336500D02*
G75*
G03*
X9672500Y-14336500I-65000J0D01*
G01*
D11*
X10024881Y-14409976D02*
X9910595Y-14409976D01*
X9967738Y-14409976D02*
X9967738Y-14209976D01*
X9967738Y-14209976D02*
X9948690Y-14238548D01*
X9948690Y-14238548D02*
X9929643Y-14257595D01*
X9929643Y-14257595D02*
X9910595Y-14267119D01*
X10110595Y-14390928D02*
X10120119Y-14400452D01*
X10120119Y-14400452D02*
X10110595Y-14409976D01*
X10110595Y-14409976D02*
X10101071Y-14400452D01*
X10101071Y-14400452D02*
X10110595Y-14390928D01*
X10110595Y-14390928D02*
X10110595Y-14409976D01*
X10186786Y-14209976D02*
X10310595Y-14209976D01*
X10310595Y-14209976D02*
X10243929Y-14286167D01*
X10243929Y-14286167D02*
X10272500Y-14286167D01*
X10272500Y-14286167D02*
X10291548Y-14295690D01*
X10291548Y-14295690D02*
X10301071Y-14305214D01*
X10301071Y-14305214D02*
X10310595Y-14324262D01*
X10310595Y-14324262D02*
X10310595Y-14371881D01*
X10310595Y-14371881D02*
X10301071Y-14390928D01*
X10301071Y-14390928D02*
X10291548Y-14400452D01*
X10291548Y-14400452D02*
X10272500Y-14409976D01*
X10272500Y-14409976D02*
X10215357Y-14409976D01*
X10215357Y-14409976D02*
X10196310Y-14400452D01*
X10196310Y-14400452D02*
X10186786Y-14390928D01*
X10434405Y-14209976D02*
X10453452Y-14209976D01*
X10453452Y-14209976D02*
X10472500Y-14219500D01*
X10472500Y-14219500D02*
X10482024Y-14229024D01*
X10482024Y-14229024D02*
X10491548Y-14248071D01*
X10491548Y-14248071D02*
X10501071Y-14286167D01*
X10501071Y-14286167D02*
X10501071Y-14333786D01*
X10501071Y-14333786D02*
X10491548Y-14371881D01*
X10491548Y-14371881D02*
X10482024Y-14390928D01*
X10482024Y-14390928D02*
X10472500Y-14400452D01*
X10472500Y-14400452D02*
X10453452Y-14409976D01*
X10453452Y-14409976D02*
X10434405Y-14409976D01*
X10434405Y-14409976D02*
X10415357Y-14400452D01*
X10415357Y-14400452D02*
X10405833Y-14390928D01*
X10405833Y-14390928D02*
X10396310Y-14371881D01*
X10396310Y-14371881D02*
X10386786Y-14333786D01*
X10386786Y-14333786D02*
X10386786Y-14286167D01*
X10386786Y-14286167D02*
X10396310Y-14248071D01*
X10396310Y-14248071D02*
X10405833Y-14229024D01*
X10405833Y-14229024D02*
X10415357Y-14219500D01*
X10415357Y-14219500D02*
X10434405Y-14209976D01*
X10624881Y-14209976D02*
X10643929Y-14209976D01*
X10643929Y-14209976D02*
X10662976Y-14219500D01*
X10662976Y-14219500D02*
X10672500Y-14229024D01*
X10672500Y-14229024D02*
X10682024Y-14248071D01*
X10682024Y-14248071D02*
X10691548Y-14286167D01*
X10691548Y-14286167D02*
X10691548Y-14333786D01*
X10691548Y-14333786D02*
X10682024Y-14371881D01*
X10682024Y-14371881D02*
X10672500Y-14390928D01*
X10672500Y-14390928D02*
X10662976Y-14400452D01*
X10662976Y-14400452D02*
X10643929Y-14409976D01*
X10643929Y-14409976D02*
X10624881Y-14409976D01*
X10624881Y-14409976D02*
X10605833Y-14400452D01*
X10605833Y-14400452D02*
X10596310Y-14390928D01*
X10596310Y-14390928D02*
X10586786Y-14371881D01*
X10586786Y-14371881D02*
X10577262Y-14333786D01*
X10577262Y-14333786D02*
X10577262Y-14286167D01*
X10577262Y-14286167D02*
X10586786Y-14248071D01*
X10586786Y-14248071D02*
X10596310Y-14229024D01*
X10596310Y-14229024D02*
X10605833Y-14219500D01*
X10605833Y-14219500D02*
X10624881Y-14209976D01*
X10777262Y-14409976D02*
X10777262Y-14276643D01*
X10777262Y-14295690D02*
X10786786Y-14286167D01*
X10786786Y-14286167D02*
X10805833Y-14276643D01*
X10805833Y-14276643D02*
X10834405Y-14276643D01*
X10834405Y-14276643D02*
X10853452Y-14286167D01*
X10853452Y-14286167D02*
X10862976Y-14305214D01*
X10862976Y-14305214D02*
X10862976Y-14409976D01*
X10862976Y-14305214D02*
X10872500Y-14286167D01*
X10872500Y-14286167D02*
X10891548Y-14276643D01*
X10891548Y-14276643D02*
X10920119Y-14276643D01*
X10920119Y-14276643D02*
X10939167Y-14286167D01*
X10939167Y-14286167D02*
X10948691Y-14305214D01*
X10948691Y-14305214D02*
X10948691Y-14409976D01*
X11043929Y-14409976D02*
X11043929Y-14276643D01*
X11043929Y-14295690D02*
X11053452Y-14286167D01*
X11053452Y-14286167D02*
X11072500Y-14276643D01*
X11072500Y-14276643D02*
X11101072Y-14276643D01*
X11101072Y-14276643D02*
X11120119Y-14286167D01*
X11120119Y-14286167D02*
X11129643Y-14305214D01*
X11129643Y-14305214D02*
X11129643Y-14409976D01*
X11129643Y-14305214D02*
X11139167Y-14286167D01*
X11139167Y-14286167D02*
X11158214Y-14276643D01*
X11158214Y-14276643D02*
X11186786Y-14276643D01*
X11186786Y-14276643D02*
X11205833Y-14286167D01*
X11205833Y-14286167D02*
X11215357Y-14305214D01*
X11215357Y-14305214D02*
X11215357Y-14409976D01*
X11573452Y-14200452D02*
X11402024Y-14457595D01*
X11798214Y-14209976D02*
X11817262Y-14209976D01*
X11817262Y-14209976D02*
X11836310Y-14219500D01*
X11836310Y-14219500D02*
X11845833Y-14229024D01*
X11845833Y-14229024D02*
X11855357Y-14248071D01*
X11855357Y-14248071D02*
X11864881Y-14286167D01*
X11864881Y-14286167D02*
X11864881Y-14333786D01*
X11864881Y-14333786D02*
X11855357Y-14371881D01*
X11855357Y-14371881D02*
X11845833Y-14390928D01*
X11845833Y-14390928D02*
X11836310Y-14400452D01*
X11836310Y-14400452D02*
X11817262Y-14409976D01*
X11817262Y-14409976D02*
X11798214Y-14409976D01*
X11798214Y-14409976D02*
X11779167Y-14400452D01*
X11779167Y-14400452D02*
X11769643Y-14390928D01*
X11769643Y-14390928D02*
X11760119Y-14371881D01*
X11760119Y-14371881D02*
X11750595Y-14333786D01*
X11750595Y-14333786D02*
X11750595Y-14286167D01*
X11750595Y-14286167D02*
X11760119Y-14248071D01*
X11760119Y-14248071D02*
X11769643Y-14229024D01*
X11769643Y-14229024D02*
X11779167Y-14219500D01*
X11779167Y-14219500D02*
X11798214Y-14209976D01*
X11950595Y-14390928D02*
X11960119Y-14400452D01*
X11960119Y-14400452D02*
X11950595Y-14409976D01*
X11950595Y-14409976D02*
X11941071Y-14400452D01*
X11941071Y-14400452D02*
X11950595Y-14390928D01*
X11950595Y-14390928D02*
X11950595Y-14409976D01*
X12083929Y-14209976D02*
X12102976Y-14209976D01*
X12102976Y-14209976D02*
X12122024Y-14219500D01*
X12122024Y-14219500D02*
X12131548Y-14229024D01*
X12131548Y-14229024D02*
X12141071Y-14248071D01*
X12141071Y-14248071D02*
X12150595Y-14286167D01*
X12150595Y-14286167D02*
X12150595Y-14333786D01*
X12150595Y-14333786D02*
X12141071Y-14371881D01*
X12141071Y-14371881D02*
X12131548Y-14390928D01*
X12131548Y-14390928D02*
X12122024Y-14400452D01*
X12122024Y-14400452D02*
X12102976Y-14409976D01*
X12102976Y-14409976D02*
X12083929Y-14409976D01*
X12083929Y-14409976D02*
X12064881Y-14400452D01*
X12064881Y-14400452D02*
X12055357Y-14390928D01*
X12055357Y-14390928D02*
X12045833Y-14371881D01*
X12045833Y-14371881D02*
X12036310Y-14333786D01*
X12036310Y-14333786D02*
X12036310Y-14286167D01*
X12036310Y-14286167D02*
X12045833Y-14248071D01*
X12045833Y-14248071D02*
X12055357Y-14229024D01*
X12055357Y-14229024D02*
X12064881Y-14219500D01*
X12064881Y-14219500D02*
X12083929Y-14209976D01*
X12331548Y-14209976D02*
X12236310Y-14209976D01*
X12236310Y-14209976D02*
X12226786Y-14305214D01*
X12226786Y-14305214D02*
X12236310Y-14295690D01*
X12236310Y-14295690D02*
X12255357Y-14286167D01*
X12255357Y-14286167D02*
X12302976Y-14286167D01*
X12302976Y-14286167D02*
X12322024Y-14295690D01*
X12322024Y-14295690D02*
X12331548Y-14305214D01*
X12331548Y-14305214D02*
X12341071Y-14324262D01*
X12341071Y-14324262D02*
X12341071Y-14371881D01*
X12341071Y-14371881D02*
X12331548Y-14390928D01*
X12331548Y-14390928D02*
X12322024Y-14400452D01*
X12322024Y-14400452D02*
X12302976Y-14409976D01*
X12302976Y-14409976D02*
X12255357Y-14409976D01*
X12255357Y-14409976D02*
X12236310Y-14400452D01*
X12236310Y-14400452D02*
X12226786Y-14390928D01*
X12531548Y-14409976D02*
X12417262Y-14409976D01*
X12474405Y-14409976D02*
X12474405Y-14209976D01*
X12474405Y-14209976D02*
X12455357Y-14238548D01*
X12455357Y-14238548D02*
X12436310Y-14257595D01*
X12436310Y-14257595D02*
X12417262Y-14267119D01*
X12607738Y-14229024D02*
X12617262Y-14219500D01*
X12617262Y-14219500D02*
X12636310Y-14209976D01*
X12636310Y-14209976D02*
X12683929Y-14209976D01*
X12683929Y-14209976D02*
X12702976Y-14219500D01*
X12702976Y-14219500D02*
X12712500Y-14229024D01*
X12712500Y-14229024D02*
X12722024Y-14248071D01*
X12722024Y-14248071D02*
X12722024Y-14267119D01*
X12722024Y-14267119D02*
X12712500Y-14295690D01*
X12712500Y-14295690D02*
X12598214Y-14409976D01*
X12598214Y-14409976D02*
X12722024Y-14409976D01*
X12798214Y-14209976D02*
X12798214Y-14248071D01*
X12874405Y-14209976D02*
X12874405Y-14248071D01*
X13137262Y-14486167D02*
X13127738Y-14476643D01*
X13127738Y-14476643D02*
X13108691Y-14448071D01*
X13108691Y-14448071D02*
X13099167Y-14429024D01*
X13099167Y-14429024D02*
X13089643Y-14400452D01*
X13089643Y-14400452D02*
X13080119Y-14352833D01*
X13080119Y-14352833D02*
X13080119Y-14314738D01*
X13080119Y-14314738D02*
X13089643Y-14267119D01*
X13089643Y-14267119D02*
X13099167Y-14238548D01*
X13099167Y-14238548D02*
X13108691Y-14219500D01*
X13108691Y-14219500D02*
X13127738Y-14190928D01*
X13127738Y-14190928D02*
X13137262Y-14181405D01*
X13318214Y-14409976D02*
X13203929Y-14409976D01*
X13261071Y-14409976D02*
X13261071Y-14209976D01*
X13261071Y-14209976D02*
X13242024Y-14238548D01*
X13242024Y-14238548D02*
X13222976Y-14257595D01*
X13222976Y-14257595D02*
X13203929Y-14267119D01*
X13514405Y-14400452D02*
X13533452Y-14409976D01*
X13533452Y-14409976D02*
X13571548Y-14409976D01*
X13571548Y-14409976D02*
X13590595Y-14400452D01*
X13590595Y-14400452D02*
X13600119Y-14381405D01*
X13600119Y-14381405D02*
X13600119Y-14371881D01*
X13600119Y-14371881D02*
X13590595Y-14352833D01*
X13590595Y-14352833D02*
X13571548Y-14343309D01*
X13571548Y-14343309D02*
X13542976Y-14343309D01*
X13542976Y-14343309D02*
X13523929Y-14333786D01*
X13523929Y-14333786D02*
X13514405Y-14314738D01*
X13514405Y-14314738D02*
X13514405Y-14305214D01*
X13514405Y-14305214D02*
X13523929Y-14286167D01*
X13523929Y-14286167D02*
X13542976Y-14276643D01*
X13542976Y-14276643D02*
X13571548Y-14276643D01*
X13571548Y-14276643D02*
X13590595Y-14286167D01*
X13714405Y-14409976D02*
X13695357Y-14400452D01*
X13695357Y-14400452D02*
X13685833Y-14381405D01*
X13685833Y-14381405D02*
X13685833Y-14209976D01*
X13819167Y-14409976D02*
X13800119Y-14400452D01*
X13800119Y-14400452D02*
X13790595Y-14390928D01*
X13790595Y-14390928D02*
X13781072Y-14371881D01*
X13781072Y-14371881D02*
X13781072Y-14314738D01*
X13781072Y-14314738D02*
X13790595Y-14295690D01*
X13790595Y-14295690D02*
X13800119Y-14286167D01*
X13800119Y-14286167D02*
X13819167Y-14276643D01*
X13819167Y-14276643D02*
X13847738Y-14276643D01*
X13847738Y-14276643D02*
X13866786Y-14286167D01*
X13866786Y-14286167D02*
X13876310Y-14295690D01*
X13876310Y-14295690D02*
X13885833Y-14314738D01*
X13885833Y-14314738D02*
X13885833Y-14371881D01*
X13885833Y-14371881D02*
X13876310Y-14390928D01*
X13876310Y-14390928D02*
X13866786Y-14400452D01*
X13866786Y-14400452D02*
X13847738Y-14409976D01*
X13847738Y-14409976D02*
X13819167Y-14409976D01*
X13942976Y-14276643D02*
X14019167Y-14276643D01*
X13971548Y-14209976D02*
X13971548Y-14381405D01*
X13971548Y-14381405D02*
X13981072Y-14400452D01*
X13981072Y-14400452D02*
X14000119Y-14409976D01*
X14000119Y-14409976D02*
X14019167Y-14409976D01*
X14066786Y-14486167D02*
X14076310Y-14476643D01*
X14076310Y-14476643D02*
X14095357Y-14448071D01*
X14095357Y-14448071D02*
X14104881Y-14429024D01*
X14104881Y-14429024D02*
X14114405Y-14400452D01*
X14114405Y-14400452D02*
X14123929Y-14352833D01*
X14123929Y-14352833D02*
X14123929Y-14314738D01*
X14123929Y-14314738D02*
X14114405Y-14267119D01*
X14114405Y-14267119D02*
X14104881Y-14238548D01*
X14104881Y-14238548D02*
X14095357Y-14219500D01*
X14095357Y-14219500D02*
X14076310Y-14190928D01*
X14076310Y-14190928D02*
X14066786Y-14181405D01*
X14396310Y-14486167D02*
X14386786Y-14476643D01*
X14386786Y-14476643D02*
X14367738Y-14448071D01*
X14367738Y-14448071D02*
X14358214Y-14429024D01*
X14358214Y-14429024D02*
X14348691Y-14400452D01*
X14348691Y-14400452D02*
X14339167Y-14352833D01*
X14339167Y-14352833D02*
X14339167Y-14314738D01*
X14339167Y-14314738D02*
X14348691Y-14267119D01*
X14348691Y-14267119D02*
X14358214Y-14238548D01*
X14358214Y-14238548D02*
X14367738Y-14219500D01*
X14367738Y-14219500D02*
X14386786Y-14190928D01*
X14386786Y-14190928D02*
X14396310Y-14181405D01*
X14472500Y-14276643D02*
X14472500Y-14409976D01*
X14472500Y-14295690D02*
X14482024Y-14286167D01*
X14482024Y-14286167D02*
X14501071Y-14276643D01*
X14501071Y-14276643D02*
X14529643Y-14276643D01*
X14529643Y-14276643D02*
X14548691Y-14286167D01*
X14548691Y-14286167D02*
X14558214Y-14305214D01*
X14558214Y-14305214D02*
X14558214Y-14409976D01*
X14682024Y-14409976D02*
X14662976Y-14400452D01*
X14662976Y-14400452D02*
X14653452Y-14390928D01*
X14653452Y-14390928D02*
X14643929Y-14371881D01*
X14643929Y-14371881D02*
X14643929Y-14314738D01*
X14643929Y-14314738D02*
X14653452Y-14295690D01*
X14653452Y-14295690D02*
X14662976Y-14286167D01*
X14662976Y-14286167D02*
X14682024Y-14276643D01*
X14682024Y-14276643D02*
X14710595Y-14276643D01*
X14710595Y-14276643D02*
X14729643Y-14286167D01*
X14729643Y-14286167D02*
X14739167Y-14295690D01*
X14739167Y-14295690D02*
X14748691Y-14314738D01*
X14748691Y-14314738D02*
X14748691Y-14371881D01*
X14748691Y-14371881D02*
X14739167Y-14390928D01*
X14739167Y-14390928D02*
X14729643Y-14400452D01*
X14729643Y-14400452D02*
X14710595Y-14409976D01*
X14710595Y-14409976D02*
X14682024Y-14409976D01*
X14805833Y-14276643D02*
X14882024Y-14276643D01*
X14834405Y-14209976D02*
X14834405Y-14381405D01*
X14834405Y-14381405D02*
X14843929Y-14400452D01*
X14843929Y-14400452D02*
X14862976Y-14409976D01*
X14862976Y-14409976D02*
X14882024Y-14409976D01*
X15068691Y-14276643D02*
X15068691Y-14476643D01*
X15068691Y-14286167D02*
X15087738Y-14276643D01*
X15087738Y-14276643D02*
X15125833Y-14276643D01*
X15125833Y-14276643D02*
X15144881Y-14286167D01*
X15144881Y-14286167D02*
X15154405Y-14295690D01*
X15154405Y-14295690D02*
X15163929Y-14314738D01*
X15163929Y-14314738D02*
X15163929Y-14371881D01*
X15163929Y-14371881D02*
X15154405Y-14390928D01*
X15154405Y-14390928D02*
X15144881Y-14400452D01*
X15144881Y-14400452D02*
X15125833Y-14409976D01*
X15125833Y-14409976D02*
X15087738Y-14409976D01*
X15087738Y-14409976D02*
X15068691Y-14400452D01*
X15278214Y-14409976D02*
X15259167Y-14400452D01*
X15259167Y-14400452D02*
X15249643Y-14381405D01*
X15249643Y-14381405D02*
X15249643Y-14209976D01*
X15440119Y-14409976D02*
X15440119Y-14305214D01*
X15440119Y-14305214D02*
X15430595Y-14286167D01*
X15430595Y-14286167D02*
X15411548Y-14276643D01*
X15411548Y-14276643D02*
X15373452Y-14276643D01*
X15373452Y-14276643D02*
X15354405Y-14286167D01*
X15440119Y-14400452D02*
X15421072Y-14409976D01*
X15421072Y-14409976D02*
X15373452Y-14409976D01*
X15373452Y-14409976D02*
X15354405Y-14400452D01*
X15354405Y-14400452D02*
X15344881Y-14381405D01*
X15344881Y-14381405D02*
X15344881Y-14362357D01*
X15344881Y-14362357D02*
X15354405Y-14343309D01*
X15354405Y-14343309D02*
X15373452Y-14333786D01*
X15373452Y-14333786D02*
X15421072Y-14333786D01*
X15421072Y-14333786D02*
X15440119Y-14324262D01*
X15506786Y-14276643D02*
X15582976Y-14276643D01*
X15535357Y-14209976D02*
X15535357Y-14381405D01*
X15535357Y-14381405D02*
X15544881Y-14400452D01*
X15544881Y-14400452D02*
X15563929Y-14409976D01*
X15563929Y-14409976D02*
X15582976Y-14409976D01*
X15725833Y-14400452D02*
X15706786Y-14409976D01*
X15706786Y-14409976D02*
X15668691Y-14409976D01*
X15668691Y-14409976D02*
X15649643Y-14400452D01*
X15649643Y-14400452D02*
X15640119Y-14381405D01*
X15640119Y-14381405D02*
X15640119Y-14305214D01*
X15640119Y-14305214D02*
X15649643Y-14286167D01*
X15649643Y-14286167D02*
X15668691Y-14276643D01*
X15668691Y-14276643D02*
X15706786Y-14276643D01*
X15706786Y-14276643D02*
X15725833Y-14286167D01*
X15725833Y-14286167D02*
X15735357Y-14305214D01*
X15735357Y-14305214D02*
X15735357Y-14324262D01*
X15735357Y-14324262D02*
X15640119Y-14343309D01*
X15906786Y-14409976D02*
X15906786Y-14209976D01*
X15906786Y-14400452D02*
X15887738Y-14409976D01*
X15887738Y-14409976D02*
X15849643Y-14409976D01*
X15849643Y-14409976D02*
X15830595Y-14400452D01*
X15830595Y-14400452D02*
X15821072Y-14390928D01*
X15821072Y-14390928D02*
X15811548Y-14371881D01*
X15811548Y-14371881D02*
X15811548Y-14314738D01*
X15811548Y-14314738D02*
X15821072Y-14295690D01*
X15821072Y-14295690D02*
X15830595Y-14286167D01*
X15830595Y-14286167D02*
X15849643Y-14276643D01*
X15849643Y-14276643D02*
X15887738Y-14276643D01*
X15887738Y-14276643D02*
X15906786Y-14286167D01*
X15982976Y-14486167D02*
X15992500Y-14476643D01*
X15992500Y-14476643D02*
X16011548Y-14448071D01*
X16011548Y-14448071D02*
X16021072Y-14429024D01*
X16021072Y-14429024D02*
X16030595Y-14400452D01*
X16030595Y-14400452D02*
X16040119Y-14352833D01*
X16040119Y-14352833D02*
X16040119Y-14314738D01*
X16040119Y-14314738D02*
X16030595Y-14267119D01*
X16030595Y-14267119D02*
X16021072Y-14238548D01*
X16021072Y-14238548D02*
X16011548Y-14219500D01*
X16011548Y-14219500D02*
X15992500Y-14190928D01*
X15992500Y-14190928D02*
X15982976Y-14181405D01*
D14*
X9597500Y-14525500D02*
X9597500Y-14675500D01*
X9522500Y-14600500D02*
X9672500Y-14600500D01*
D11*
X10024881Y-14673976D02*
X9910595Y-14673976D01*
X9967738Y-14673976D02*
X9967738Y-14473976D01*
X9967738Y-14473976D02*
X9948690Y-14502548D01*
X9948690Y-14502548D02*
X9929643Y-14521595D01*
X9929643Y-14521595D02*
X9910595Y-14531119D01*
X10110595Y-14654928D02*
X10120119Y-14664452D01*
X10120119Y-14664452D02*
X10110595Y-14673976D01*
X10110595Y-14673976D02*
X10101071Y-14664452D01*
X10101071Y-14664452D02*
X10110595Y-14654928D01*
X10110595Y-14654928D02*
X10110595Y-14673976D01*
X10301071Y-14473976D02*
X10205833Y-14473976D01*
X10205833Y-14473976D02*
X10196310Y-14569214D01*
X10196310Y-14569214D02*
X10205833Y-14559690D01*
X10205833Y-14559690D02*
X10224881Y-14550167D01*
X10224881Y-14550167D02*
X10272500Y-14550167D01*
X10272500Y-14550167D02*
X10291548Y-14559690D01*
X10291548Y-14559690D02*
X10301071Y-14569214D01*
X10301071Y-14569214D02*
X10310595Y-14588262D01*
X10310595Y-14588262D02*
X10310595Y-14635881D01*
X10310595Y-14635881D02*
X10301071Y-14654928D01*
X10301071Y-14654928D02*
X10291548Y-14664452D01*
X10291548Y-14664452D02*
X10272500Y-14673976D01*
X10272500Y-14673976D02*
X10224881Y-14673976D01*
X10224881Y-14673976D02*
X10205833Y-14664452D01*
X10205833Y-14664452D02*
X10196310Y-14654928D01*
X10434405Y-14473976D02*
X10453452Y-14473976D01*
X10453452Y-14473976D02*
X10472500Y-14483500D01*
X10472500Y-14483500D02*
X10482024Y-14493024D01*
X10482024Y-14493024D02*
X10491548Y-14512071D01*
X10491548Y-14512071D02*
X10501071Y-14550167D01*
X10501071Y-14550167D02*
X10501071Y-14597786D01*
X10501071Y-14597786D02*
X10491548Y-14635881D01*
X10491548Y-14635881D02*
X10482024Y-14654928D01*
X10482024Y-14654928D02*
X10472500Y-14664452D01*
X10472500Y-14664452D02*
X10453452Y-14673976D01*
X10453452Y-14673976D02*
X10434405Y-14673976D01*
X10434405Y-14673976D02*
X10415357Y-14664452D01*
X10415357Y-14664452D02*
X10405833Y-14654928D01*
X10405833Y-14654928D02*
X10396310Y-14635881D01*
X10396310Y-14635881D02*
X10386786Y-14597786D01*
X10386786Y-14597786D02*
X10386786Y-14550167D01*
X10386786Y-14550167D02*
X10396310Y-14512071D01*
X10396310Y-14512071D02*
X10405833Y-14493024D01*
X10405833Y-14493024D02*
X10415357Y-14483500D01*
X10415357Y-14483500D02*
X10434405Y-14473976D01*
X10624881Y-14473976D02*
X10643929Y-14473976D01*
X10643929Y-14473976D02*
X10662976Y-14483500D01*
X10662976Y-14483500D02*
X10672500Y-14493024D01*
X10672500Y-14493024D02*
X10682024Y-14512071D01*
X10682024Y-14512071D02*
X10691548Y-14550167D01*
X10691548Y-14550167D02*
X10691548Y-14597786D01*
X10691548Y-14597786D02*
X10682024Y-14635881D01*
X10682024Y-14635881D02*
X10672500Y-14654928D01*
X10672500Y-14654928D02*
X10662976Y-14664452D01*
X10662976Y-14664452D02*
X10643929Y-14673976D01*
X10643929Y-14673976D02*
X10624881Y-14673976D01*
X10624881Y-14673976D02*
X10605833Y-14664452D01*
X10605833Y-14664452D02*
X10596310Y-14654928D01*
X10596310Y-14654928D02*
X10586786Y-14635881D01*
X10586786Y-14635881D02*
X10577262Y-14597786D01*
X10577262Y-14597786D02*
X10577262Y-14550167D01*
X10577262Y-14550167D02*
X10586786Y-14512071D01*
X10586786Y-14512071D02*
X10596310Y-14493024D01*
X10596310Y-14493024D02*
X10605833Y-14483500D01*
X10605833Y-14483500D02*
X10624881Y-14473976D01*
X10777262Y-14673976D02*
X10777262Y-14540643D01*
X10777262Y-14559690D02*
X10786786Y-14550167D01*
X10786786Y-14550167D02*
X10805833Y-14540643D01*
X10805833Y-14540643D02*
X10834405Y-14540643D01*
X10834405Y-14540643D02*
X10853452Y-14550167D01*
X10853452Y-14550167D02*
X10862976Y-14569214D01*
X10862976Y-14569214D02*
X10862976Y-14673976D01*
X10862976Y-14569214D02*
X10872500Y-14550167D01*
X10872500Y-14550167D02*
X10891548Y-14540643D01*
X10891548Y-14540643D02*
X10920119Y-14540643D01*
X10920119Y-14540643D02*
X10939167Y-14550167D01*
X10939167Y-14550167D02*
X10948691Y-14569214D01*
X10948691Y-14569214D02*
X10948691Y-14673976D01*
X11043929Y-14673976D02*
X11043929Y-14540643D01*
X11043929Y-14559690D02*
X11053452Y-14550167D01*
X11053452Y-14550167D02*
X11072500Y-14540643D01*
X11072500Y-14540643D02*
X11101072Y-14540643D01*
X11101072Y-14540643D02*
X11120119Y-14550167D01*
X11120119Y-14550167D02*
X11129643Y-14569214D01*
X11129643Y-14569214D02*
X11129643Y-14673976D01*
X11129643Y-14569214D02*
X11139167Y-14550167D01*
X11139167Y-14550167D02*
X11158214Y-14540643D01*
X11158214Y-14540643D02*
X11186786Y-14540643D01*
X11186786Y-14540643D02*
X11205833Y-14550167D01*
X11205833Y-14550167D02*
X11215357Y-14569214D01*
X11215357Y-14569214D02*
X11215357Y-14673976D01*
X11573452Y-14464452D02*
X11402024Y-14721595D01*
X11798214Y-14473976D02*
X11817262Y-14473976D01*
X11817262Y-14473976D02*
X11836310Y-14483500D01*
X11836310Y-14483500D02*
X11845833Y-14493024D01*
X11845833Y-14493024D02*
X11855357Y-14512071D01*
X11855357Y-14512071D02*
X11864881Y-14550167D01*
X11864881Y-14550167D02*
X11864881Y-14597786D01*
X11864881Y-14597786D02*
X11855357Y-14635881D01*
X11855357Y-14635881D02*
X11845833Y-14654928D01*
X11845833Y-14654928D02*
X11836310Y-14664452D01*
X11836310Y-14664452D02*
X11817262Y-14673976D01*
X11817262Y-14673976D02*
X11798214Y-14673976D01*
X11798214Y-14673976D02*
X11779167Y-14664452D01*
X11779167Y-14664452D02*
X11769643Y-14654928D01*
X11769643Y-14654928D02*
X11760119Y-14635881D01*
X11760119Y-14635881D02*
X11750595Y-14597786D01*
X11750595Y-14597786D02*
X11750595Y-14550167D01*
X11750595Y-14550167D02*
X11760119Y-14512071D01*
X11760119Y-14512071D02*
X11769643Y-14493024D01*
X11769643Y-14493024D02*
X11779167Y-14483500D01*
X11779167Y-14483500D02*
X11798214Y-14473976D01*
X11950595Y-14654928D02*
X11960119Y-14664452D01*
X11960119Y-14664452D02*
X11950595Y-14673976D01*
X11950595Y-14673976D02*
X11941071Y-14664452D01*
X11941071Y-14664452D02*
X11950595Y-14654928D01*
X11950595Y-14654928D02*
X11950595Y-14673976D01*
X12083929Y-14473976D02*
X12102976Y-14473976D01*
X12102976Y-14473976D02*
X12122024Y-14483500D01*
X12122024Y-14483500D02*
X12131548Y-14493024D01*
X12131548Y-14493024D02*
X12141071Y-14512071D01*
X12141071Y-14512071D02*
X12150595Y-14550167D01*
X12150595Y-14550167D02*
X12150595Y-14597786D01*
X12150595Y-14597786D02*
X12141071Y-14635881D01*
X12141071Y-14635881D02*
X12131548Y-14654928D01*
X12131548Y-14654928D02*
X12122024Y-14664452D01*
X12122024Y-14664452D02*
X12102976Y-14673976D01*
X12102976Y-14673976D02*
X12083929Y-14673976D01*
X12083929Y-14673976D02*
X12064881Y-14664452D01*
X12064881Y-14664452D02*
X12055357Y-14654928D01*
X12055357Y-14654928D02*
X12045833Y-14635881D01*
X12045833Y-14635881D02*
X12036310Y-14597786D01*
X12036310Y-14597786D02*
X12036310Y-14550167D01*
X12036310Y-14550167D02*
X12045833Y-14512071D01*
X12045833Y-14512071D02*
X12055357Y-14493024D01*
X12055357Y-14493024D02*
X12064881Y-14483500D01*
X12064881Y-14483500D02*
X12083929Y-14473976D01*
X12331548Y-14473976D02*
X12236310Y-14473976D01*
X12236310Y-14473976D02*
X12226786Y-14569214D01*
X12226786Y-14569214D02*
X12236310Y-14559690D01*
X12236310Y-14559690D02*
X12255357Y-14550167D01*
X12255357Y-14550167D02*
X12302976Y-14550167D01*
X12302976Y-14550167D02*
X12322024Y-14559690D01*
X12322024Y-14559690D02*
X12331548Y-14569214D01*
X12331548Y-14569214D02*
X12341071Y-14588262D01*
X12341071Y-14588262D02*
X12341071Y-14635881D01*
X12341071Y-14635881D02*
X12331548Y-14654928D01*
X12331548Y-14654928D02*
X12322024Y-14664452D01*
X12322024Y-14664452D02*
X12302976Y-14673976D01*
X12302976Y-14673976D02*
X12255357Y-14673976D01*
X12255357Y-14673976D02*
X12236310Y-14664452D01*
X12236310Y-14664452D02*
X12226786Y-14654928D01*
X12436310Y-14673976D02*
X12474405Y-14673976D01*
X12474405Y-14673976D02*
X12493452Y-14664452D01*
X12493452Y-14664452D02*
X12502976Y-14654928D01*
X12502976Y-14654928D02*
X12522024Y-14626357D01*
X12522024Y-14626357D02*
X12531548Y-14588262D01*
X12531548Y-14588262D02*
X12531548Y-14512071D01*
X12531548Y-14512071D02*
X12522024Y-14493024D01*
X12522024Y-14493024D02*
X12512500Y-14483500D01*
X12512500Y-14483500D02*
X12493452Y-14473976D01*
X12493452Y-14473976D02*
X12455357Y-14473976D01*
X12455357Y-14473976D02*
X12436310Y-14483500D01*
X12436310Y-14483500D02*
X12426786Y-14493024D01*
X12426786Y-14493024D02*
X12417262Y-14512071D01*
X12417262Y-14512071D02*
X12417262Y-14559690D01*
X12417262Y-14559690D02*
X12426786Y-14578738D01*
X12426786Y-14578738D02*
X12436310Y-14588262D01*
X12436310Y-14588262D02*
X12455357Y-14597786D01*
X12455357Y-14597786D02*
X12493452Y-14597786D01*
X12493452Y-14597786D02*
X12512500Y-14588262D01*
X12512500Y-14588262D02*
X12522024Y-14578738D01*
X12522024Y-14578738D02*
X12531548Y-14559690D01*
X12722024Y-14673976D02*
X12607738Y-14673976D01*
X12664881Y-14673976D02*
X12664881Y-14473976D01*
X12664881Y-14473976D02*
X12645833Y-14502548D01*
X12645833Y-14502548D02*
X12626786Y-14521595D01*
X12626786Y-14521595D02*
X12607738Y-14531119D01*
X12798214Y-14473976D02*
X12798214Y-14512071D01*
X12874405Y-14473976D02*
X12874405Y-14512071D01*
X13137262Y-14750167D02*
X13127738Y-14740643D01*
X13127738Y-14740643D02*
X13108691Y-14712071D01*
X13108691Y-14712071D02*
X13099167Y-14693024D01*
X13099167Y-14693024D02*
X13089643Y-14664452D01*
X13089643Y-14664452D02*
X13080119Y-14616833D01*
X13080119Y-14616833D02*
X13080119Y-14578738D01*
X13080119Y-14578738D02*
X13089643Y-14531119D01*
X13089643Y-14531119D02*
X13099167Y-14502548D01*
X13099167Y-14502548D02*
X13108691Y-14483500D01*
X13108691Y-14483500D02*
X13127738Y-14454928D01*
X13127738Y-14454928D02*
X13137262Y-14445405D01*
X13318214Y-14673976D02*
X13203929Y-14673976D01*
X13261071Y-14673976D02*
X13261071Y-14473976D01*
X13261071Y-14473976D02*
X13242024Y-14502548D01*
X13242024Y-14502548D02*
X13222976Y-14521595D01*
X13222976Y-14521595D02*
X13203929Y-14531119D01*
X13523929Y-14673976D02*
X13523929Y-14473976D01*
X13609643Y-14673976D02*
X13609643Y-14569214D01*
X13609643Y-14569214D02*
X13600119Y-14550167D01*
X13600119Y-14550167D02*
X13581072Y-14540643D01*
X13581072Y-14540643D02*
X13552500Y-14540643D01*
X13552500Y-14540643D02*
X13533452Y-14550167D01*
X13533452Y-14550167D02*
X13523929Y-14559690D01*
X13733452Y-14673976D02*
X13714405Y-14664452D01*
X13714405Y-14664452D02*
X13704881Y-14654928D01*
X13704881Y-14654928D02*
X13695357Y-14635881D01*
X13695357Y-14635881D02*
X13695357Y-14578738D01*
X13695357Y-14578738D02*
X13704881Y-14559690D01*
X13704881Y-14559690D02*
X13714405Y-14550167D01*
X13714405Y-14550167D02*
X13733452Y-14540643D01*
X13733452Y-14540643D02*
X13762024Y-14540643D01*
X13762024Y-14540643D02*
X13781072Y-14550167D01*
X13781072Y-14550167D02*
X13790595Y-14559690D01*
X13790595Y-14559690D02*
X13800119Y-14578738D01*
X13800119Y-14578738D02*
X13800119Y-14635881D01*
X13800119Y-14635881D02*
X13790595Y-14654928D01*
X13790595Y-14654928D02*
X13781072Y-14664452D01*
X13781072Y-14664452D02*
X13762024Y-14673976D01*
X13762024Y-14673976D02*
X13733452Y-14673976D01*
X13914405Y-14673976D02*
X13895357Y-14664452D01*
X13895357Y-14664452D02*
X13885833Y-14645405D01*
X13885833Y-14645405D02*
X13885833Y-14473976D01*
X14066786Y-14664452D02*
X14047738Y-14673976D01*
X14047738Y-14673976D02*
X14009643Y-14673976D01*
X14009643Y-14673976D02*
X13990595Y-14664452D01*
X13990595Y-14664452D02*
X13981072Y-14645405D01*
X13981072Y-14645405D02*
X13981072Y-14569214D01*
X13981072Y-14569214D02*
X13990595Y-14550167D01*
X13990595Y-14550167D02*
X14009643Y-14540643D01*
X14009643Y-14540643D02*
X14047738Y-14540643D01*
X14047738Y-14540643D02*
X14066786Y-14550167D01*
X14066786Y-14550167D02*
X14076310Y-14569214D01*
X14076310Y-14569214D02*
X14076310Y-14588262D01*
X14076310Y-14588262D02*
X13981072Y-14607309D01*
X14142976Y-14750167D02*
X14152500Y-14740643D01*
X14152500Y-14740643D02*
X14171548Y-14712071D01*
X14171548Y-14712071D02*
X14181072Y-14693024D01*
X14181072Y-14693024D02*
X14190595Y-14664452D01*
X14190595Y-14664452D02*
X14200119Y-14616833D01*
X14200119Y-14616833D02*
X14200119Y-14578738D01*
X14200119Y-14578738D02*
X14190595Y-14531119D01*
X14190595Y-14531119D02*
X14181072Y-14502548D01*
X14181072Y-14502548D02*
X14171548Y-14483500D01*
X14171548Y-14483500D02*
X14152500Y-14454928D01*
X14152500Y-14454928D02*
X14142976Y-14445405D01*
X14472500Y-14750167D02*
X14462976Y-14740643D01*
X14462976Y-14740643D02*
X14443929Y-14712071D01*
X14443929Y-14712071D02*
X14434405Y-14693024D01*
X14434405Y-14693024D02*
X14424881Y-14664452D01*
X14424881Y-14664452D02*
X14415357Y-14616833D01*
X14415357Y-14616833D02*
X14415357Y-14578738D01*
X14415357Y-14578738D02*
X14424881Y-14531119D01*
X14424881Y-14531119D02*
X14434405Y-14502548D01*
X14434405Y-14502548D02*
X14443929Y-14483500D01*
X14443929Y-14483500D02*
X14462976Y-14454928D01*
X14462976Y-14454928D02*
X14472500Y-14445405D01*
X14548691Y-14540643D02*
X14548691Y-14673976D01*
X14548691Y-14559690D02*
X14558214Y-14550167D01*
X14558214Y-14550167D02*
X14577262Y-14540643D01*
X14577262Y-14540643D02*
X14605833Y-14540643D01*
X14605833Y-14540643D02*
X14624881Y-14550167D01*
X14624881Y-14550167D02*
X14634405Y-14569214D01*
X14634405Y-14569214D02*
X14634405Y-14673976D01*
X14758214Y-14673976D02*
X14739167Y-14664452D01*
X14739167Y-14664452D02*
X14729643Y-14654928D01*
X14729643Y-14654928D02*
X14720119Y-14635881D01*
X14720119Y-14635881D02*
X14720119Y-14578738D01*
X14720119Y-14578738D02*
X14729643Y-14559690D01*
X14729643Y-14559690D02*
X14739167Y-14550167D01*
X14739167Y-14550167D02*
X14758214Y-14540643D01*
X14758214Y-14540643D02*
X14786786Y-14540643D01*
X14786786Y-14540643D02*
X14805833Y-14550167D01*
X14805833Y-14550167D02*
X14815357Y-14559690D01*
X14815357Y-14559690D02*
X14824881Y-14578738D01*
X14824881Y-14578738D02*
X14824881Y-14635881D01*
X14824881Y-14635881D02*
X14815357Y-14654928D01*
X14815357Y-14654928D02*
X14805833Y-14664452D01*
X14805833Y-14664452D02*
X14786786Y-14673976D01*
X14786786Y-14673976D02*
X14758214Y-14673976D01*
X14882024Y-14540643D02*
X14958214Y-14540643D01*
X14910595Y-14473976D02*
X14910595Y-14645405D01*
X14910595Y-14645405D02*
X14920119Y-14664452D01*
X14920119Y-14664452D02*
X14939167Y-14673976D01*
X14939167Y-14673976D02*
X14958214Y-14673976D01*
X15144881Y-14540643D02*
X15144881Y-14740643D01*
X15144881Y-14550167D02*
X15163929Y-14540643D01*
X15163929Y-14540643D02*
X15202024Y-14540643D01*
X15202024Y-14540643D02*
X15221072Y-14550167D01*
X15221072Y-14550167D02*
X15230595Y-14559690D01*
X15230595Y-14559690D02*
X15240119Y-14578738D01*
X15240119Y-14578738D02*
X15240119Y-14635881D01*
X15240119Y-14635881D02*
X15230595Y-14654928D01*
X15230595Y-14654928D02*
X15221072Y-14664452D01*
X15221072Y-14664452D02*
X15202024Y-14673976D01*
X15202024Y-14673976D02*
X15163929Y-14673976D01*
X15163929Y-14673976D02*
X15144881Y-14664452D01*
X15354405Y-14673976D02*
X15335357Y-14664452D01*
X15335357Y-14664452D02*
X15325833Y-14645405D01*
X15325833Y-14645405D02*
X15325833Y-14473976D01*
X15516310Y-14673976D02*
X15516310Y-14569214D01*
X15516310Y-14569214D02*
X15506786Y-14550167D01*
X15506786Y-14550167D02*
X15487738Y-14540643D01*
X15487738Y-14540643D02*
X15449643Y-14540643D01*
X15449643Y-14540643D02*
X15430595Y-14550167D01*
X15516310Y-14664452D02*
X15497262Y-14673976D01*
X15497262Y-14673976D02*
X15449643Y-14673976D01*
X15449643Y-14673976D02*
X15430595Y-14664452D01*
X15430595Y-14664452D02*
X15421072Y-14645405D01*
X15421072Y-14645405D02*
X15421072Y-14626357D01*
X15421072Y-14626357D02*
X15430595Y-14607309D01*
X15430595Y-14607309D02*
X15449643Y-14597786D01*
X15449643Y-14597786D02*
X15497262Y-14597786D01*
X15497262Y-14597786D02*
X15516310Y-14588262D01*
X15582976Y-14540643D02*
X15659167Y-14540643D01*
X15611548Y-14473976D02*
X15611548Y-14645405D01*
X15611548Y-14645405D02*
X15621072Y-14664452D01*
X15621072Y-14664452D02*
X15640119Y-14673976D01*
X15640119Y-14673976D02*
X15659167Y-14673976D01*
X15802024Y-14664452D02*
X15782976Y-14673976D01*
X15782976Y-14673976D02*
X15744881Y-14673976D01*
X15744881Y-14673976D02*
X15725833Y-14664452D01*
X15725833Y-14664452D02*
X15716310Y-14645405D01*
X15716310Y-14645405D02*
X15716310Y-14569214D01*
X15716310Y-14569214D02*
X15725833Y-14550167D01*
X15725833Y-14550167D02*
X15744881Y-14540643D01*
X15744881Y-14540643D02*
X15782976Y-14540643D01*
X15782976Y-14540643D02*
X15802024Y-14550167D01*
X15802024Y-14550167D02*
X15811548Y-14569214D01*
X15811548Y-14569214D02*
X15811548Y-14588262D01*
X15811548Y-14588262D02*
X15716310Y-14607309D01*
X15982976Y-14673976D02*
X15982976Y-14473976D01*
X15982976Y-14664452D02*
X15963929Y-14673976D01*
X15963929Y-14673976D02*
X15925833Y-14673976D01*
X15925833Y-14673976D02*
X15906786Y-14664452D01*
X15906786Y-14664452D02*
X15897262Y-14654928D01*
X15897262Y-14654928D02*
X15887738Y-14635881D01*
X15887738Y-14635881D02*
X15887738Y-14578738D01*
X15887738Y-14578738D02*
X15897262Y-14559690D01*
X15897262Y-14559690D02*
X15906786Y-14550167D01*
X15906786Y-14550167D02*
X15925833Y-14540643D01*
X15925833Y-14540643D02*
X15963929Y-14540643D01*
X15963929Y-14540643D02*
X15982976Y-14550167D01*
X16059167Y-14750167D02*
X16068691Y-14740643D01*
X16068691Y-14740643D02*
X16087738Y-14712071D01*
X16087738Y-14712071D02*
X16097262Y-14693024D01*
X16097262Y-14693024D02*
X16106786Y-14664452D01*
X16106786Y-14664452D02*
X16116310Y-14616833D01*
X16116310Y-14616833D02*
X16116310Y-14578738D01*
X16116310Y-14578738D02*
X16106786Y-14531119D01*
X16106786Y-14531119D02*
X16097262Y-14502548D01*
X16097262Y-14502548D02*
X16087738Y-14483500D01*
X16087738Y-14483500D02*
X16068691Y-14454928D01*
X16068691Y-14454928D02*
X16059167Y-14445405D01*
M02*
