%TF.GenerationSoftware,KiCad,Pcbnew,(7.0.0)*%
%TF.CreationDate,2023-03-12T01:47:04+01:00*%
%TF.ProjectId,g&w,6726772e-6b69-4636-9164-5f7063625858,rev?*%
%TF.SameCoordinates,Original*%
%TF.FileFunction,Profile,NP*%
%FSLAX46Y46*%
G04 Gerber Fmt 4.6, Leading zero omitted, Abs format (unit mm)*
G04 Created by KiCad (PCBNEW (7.0.0)) date 2023-03-12 01:47:04*
%MOMM*%
%LPD*%
G01*
G04 APERTURE LIST*
%TA.AperFunction,Profile*%
%ADD10C,0.050000*%
%TD*%
G04 APERTURE END LIST*
D10*
X176850000Y-79250000D02*
G75*
G03*
X176650000Y-79450000I0J-200000D01*
G01*
X204350000Y-79450000D02*
G75*
G03*
X204150000Y-79250000I-200000J0D01*
G01*
X204350000Y-96800000D02*
G75*
G03*
X204550000Y-97000000I200000J0D01*
G01*
X205450000Y-97200000D02*
G75*
G03*
X205250000Y-97000000I-200000J0D01*
G01*
X205250000Y-99530000D02*
G75*
G03*
X205450000Y-99330000I0J200000D01*
G01*
X205450000Y-109170000D02*
G75*
G03*
X205250000Y-108970000I-200000J0D01*
G01*
X205250000Y-111750000D02*
G75*
G03*
X205450000Y-111550000I0J200000D01*
G01*
X204450000Y-113500000D02*
G75*
G03*
X204650000Y-113300000I0J200000D01*
G01*
X204850000Y-111750000D02*
G75*
G03*
X204650000Y-111950000I0J-200000D01*
G01*
X202950000Y-113500000D02*
G75*
G03*
X202750000Y-113700000I0J-200000D01*
G01*
X202550000Y-123250000D02*
G75*
G03*
X202750000Y-123050000I0J200000D01*
G01*
X202750000Y-126650000D02*
G75*
G03*
X202550000Y-126450000I-200000J0D01*
G01*
X202550000Y-129750000D02*
G75*
G03*
X202750000Y-129550000I0J200000D01*
G01*
X200650000Y-129750000D02*
G75*
G03*
X200450000Y-129950000I0J-200000D01*
G01*
X200250000Y-134300000D02*
G75*
G03*
X200450000Y-134100000I0J200000D01*
G01*
X178300000Y-134100000D02*
G75*
G03*
X178500000Y-134300000I200000J0D01*
G01*
X178500000Y-116650000D02*
G75*
G03*
X178300000Y-116850000I0J-200000D01*
G01*
X180200000Y-116650000D02*
G75*
G03*
X180400000Y-116450000I0J200000D01*
G01*
X180400000Y-105950000D02*
G75*
G03*
X180200000Y-105750000I-200000J0D01*
G01*
X96750000Y-105550000D02*
G75*
G03*
X96950000Y-105750000I200000J0D01*
G01*
X96950000Y-79250000D02*
G75*
G03*
X96750000Y-79450000I0J-200000D01*
G01*
X138150000Y-80200000D02*
G75*
G03*
X138350000Y-80400000I200000J0D01*
G01*
X138150000Y-79450000D02*
G75*
G03*
X137950000Y-79250000I-200000J0D01*
G01*
X198050000Y-108970000D02*
G75*
G03*
X198850000Y-108970000I400000J0D01*
G01*
X138150000Y-80200000D02*
X138150000Y-79450000D01*
X200250000Y-123250000D02*
X202550000Y-123250000D01*
X176450000Y-80400000D02*
G75*
G03*
X176650000Y-80200000I0J200000D01*
G01*
X200250000Y-126450000D02*
X200250000Y-123250000D01*
X202950000Y-113500000D02*
X204450000Y-113500000D01*
X176650000Y-79450000D02*
X176650000Y-80200000D01*
X200450000Y-134100000D02*
X200450000Y-129950000D01*
X205250000Y-97000000D02*
X204550000Y-97000000D01*
X202550000Y-126450000D02*
X200250000Y-126450000D01*
X96950000Y-105750000D02*
X180200000Y-105750000D01*
X176450000Y-80400000D02*
X138350000Y-80400000D01*
X137950000Y-79250000D02*
X96950000Y-79250000D01*
X204650000Y-113300000D02*
X204650000Y-111950000D01*
X178300000Y-116850000D02*
X178300000Y-134100000D01*
X204150000Y-79250000D02*
X176850000Y-79250000D01*
X204350000Y-96800000D02*
X204350000Y-79450000D01*
X178500000Y-134300000D02*
X200250000Y-134300000D01*
X202750000Y-123050000D02*
X202750000Y-113700000D01*
X96750000Y-79450000D02*
X96750000Y-105550000D01*
X205250000Y-108970000D02*
X198850000Y-108970000D01*
X202750000Y-129550000D02*
X202750000Y-126650000D01*
X198850000Y-99530000D02*
X205250000Y-99530000D01*
X198050000Y-108970000D02*
X198050000Y-99530000D01*
X204850000Y-111750000D02*
X205250000Y-111750000D01*
X180200000Y-116650000D02*
X178500000Y-116650000D01*
X180400000Y-105950000D02*
X180400000Y-116450000D01*
X198850000Y-99530000D02*
G75*
G03*
X198050000Y-99530000I-400000J0D01*
G01*
X200650000Y-129750000D02*
X202550000Y-129750000D01*
X205450000Y-99330000D02*
X205450000Y-97200000D01*
X205450000Y-111550000D02*
X205450000Y-109170000D01*
M02*
