%TF.GenerationSoftware,KiCad,Pcbnew,(7.0.0)*%
%TF.CreationDate,2023-03-12T01:47:04+01:00*%
%TF.ProjectId,g&w,6726772e-6b69-4636-9164-5f7063625858,rev?*%
%TF.SameCoordinates,Original*%
%TF.FileFunction,Paste,Top*%
%TF.FilePolarity,Positive*%
%FSLAX46Y46*%
G04 Gerber Fmt 4.6, Leading zero omitted, Abs format (unit mm)*
G04 Created by KiCad (PCBNEW (7.0.0)) date 2023-03-12 01:47:04*
%MOMM*%
%LPD*%
G01*
G04 APERTURE LIST*
G04 Aperture macros list*
%AMRoundRect*
0 Rectangle with rounded corners*
0 $1 Rounding radius*
0 $2 $3 $4 $5 $6 $7 $8 $9 X,Y pos of 4 corners*
0 Add a 4 corners polygon primitive as box body*
4,1,4,$2,$3,$4,$5,$6,$7,$8,$9,$2,$3,0*
0 Add four circle primitives for the rounded corners*
1,1,$1+$1,$2,$3*
1,1,$1+$1,$4,$5*
1,1,$1+$1,$6,$7*
1,1,$1+$1,$8,$9*
0 Add four rect primitives between the rounded corners*
20,1,$1+$1,$2,$3,$4,$5,0*
20,1,$1+$1,$4,$5,$6,$7,0*
20,1,$1+$1,$6,$7,$8,$9,0*
20,1,$1+$1,$8,$9,$2,$3,0*%
G04 Aperture macros list end*
%ADD10RoundRect,0.079500X-0.079500X-0.100500X0.079500X-0.100500X0.079500X0.100500X-0.079500X0.100500X0*%
%ADD11RoundRect,0.500000X0.500000X-1.500000X0.500000X1.500000X-0.500000X1.500000X-0.500000X-1.500000X0*%
%ADD12R,0.250000X0.800000*%
%ADD13R,0.250000X0.650000*%
%ADD14R,0.400000X0.850000*%
%ADD15R,0.300000X0.700000*%
%ADD16R,0.300000X1.000000*%
%ADD17RoundRect,0.150000X-0.275000X0.150000X-0.275000X-0.150000X0.275000X-0.150000X0.275000X0.150000X0*%
%ADD18RoundRect,0.175000X-0.225000X0.175000X-0.225000X-0.175000X0.225000X-0.175000X0.225000X0.175000X0*%
%ADD19R,0.800000X0.900000*%
%ADD20RoundRect,0.079500X-0.100500X0.079500X-0.100500X-0.079500X0.100500X-0.079500X0.100500X0.079500X0*%
%ADD21RoundRect,0.079500X0.100500X-0.079500X0.100500X0.079500X-0.100500X0.079500X-0.100500X-0.079500X0*%
%ADD22RoundRect,0.135000X-0.135000X-0.185000X0.135000X-0.185000X0.135000X0.185000X-0.135000X0.185000X0*%
%ADD23RoundRect,0.200000X0.275000X-0.200000X0.275000X0.200000X-0.275000X0.200000X-0.275000X-0.200000X0*%
%ADD24R,1.200000X0.600000*%
%ADD25R,1.200000X1.850000*%
%ADD26R,0.300000X0.300000*%
%ADD27R,0.850000X0.270000*%
%ADD28R,0.950000X0.270000*%
G04 APERTURE END LIST*
D10*
%TO.C,C34*%
X196655000Y-124000000D03*
X197345000Y-124000000D03*
%TD*%
D11*
%TO.C,J1*%
X104550000Y-102250000D03*
X108550000Y-102250000D03*
%TD*%
D12*
%TO.C,J3*%
X145999999Y-85469999D03*
D13*
X146249999Y-87954999D03*
D12*
X146499999Y-85469999D03*
D13*
X146749999Y-87954999D03*
D12*
X146999999Y-85469999D03*
D13*
X147249999Y-87954999D03*
D12*
X147499999Y-85469999D03*
D13*
X147749999Y-87954999D03*
D12*
X147999999Y-85469999D03*
D13*
X148249999Y-87954999D03*
D12*
X148499999Y-85469999D03*
D13*
X148749999Y-87954999D03*
D12*
X148999999Y-85469999D03*
D13*
X149249999Y-87954999D03*
D12*
X149499999Y-85469999D03*
D13*
X149749999Y-87954999D03*
D12*
X149999999Y-85469999D03*
D13*
X150249999Y-87954999D03*
D12*
X150499999Y-85469999D03*
D13*
X150749999Y-87954999D03*
D12*
X150999999Y-85469999D03*
D13*
X151249999Y-87954999D03*
D12*
X151499999Y-85469999D03*
D13*
X151749999Y-87954999D03*
D12*
X151999999Y-85469999D03*
D13*
X152249999Y-87954999D03*
D12*
X152499999Y-85469999D03*
D13*
X152749999Y-87954999D03*
D12*
X152999999Y-85469999D03*
D13*
X153249999Y-87954999D03*
D12*
X153499999Y-85469999D03*
D13*
X153749999Y-87954999D03*
D12*
X153999999Y-85469999D03*
D14*
X154669999Y-85794999D03*
X145329999Y-85794999D03*
%TD*%
D15*
%TO.C,J4*%
X173749999Y-88749999D03*
X173249999Y-88749999D03*
X172749999Y-88749999D03*
X172249999Y-88749999D03*
D16*
X174539999Y-86099999D03*
X171459999Y-86099999D03*
%TD*%
D17*
%TO.C,J5*%
X183875000Y-102400000D03*
X183875000Y-103600000D03*
D18*
X180100000Y-101250000D03*
X180100000Y-104750000D03*
%TD*%
D19*
%TO.C,Q1*%
X183099999Y-83499999D03*
X184999999Y-83499999D03*
X184049999Y-81499999D03*
%TD*%
%TO.C,Q2*%
X187799999Y-83499999D03*
X189699999Y-83499999D03*
X188749999Y-81499999D03*
%TD*%
%TO.C,Q3*%
X192549999Y-83499999D03*
X194449999Y-83499999D03*
X193499999Y-81499999D03*
%TD*%
D20*
%TO.C,R1*%
X105250000Y-96085000D03*
X105250000Y-96775000D03*
%TD*%
D21*
%TO.C,R2*%
X107250000Y-96775000D03*
X107250000Y-96085000D03*
%TD*%
D20*
%TO.C,R3*%
X104250000Y-96078466D03*
X104250000Y-96768466D03*
%TD*%
D21*
%TO.C,R4*%
X106250000Y-96768652D03*
X106250000Y-96078652D03*
%TD*%
D20*
%TO.C,R21*%
X185500000Y-85060000D03*
X185500000Y-85750000D03*
%TD*%
D21*
%TO.C,R22*%
X182640603Y-85750000D03*
X182640603Y-85060000D03*
%TD*%
%TO.C,R23*%
X184046551Y-85750000D03*
X184046551Y-85060000D03*
%TD*%
D20*
%TO.C,R24*%
X187250000Y-85060000D03*
X187250000Y-85750000D03*
%TD*%
%TO.C,R25*%
X188782158Y-85060944D03*
X188782158Y-85750944D03*
%TD*%
%TO.C,R26*%
X190282633Y-85074548D03*
X190282633Y-85764548D03*
%TD*%
%TO.C,R27*%
X193542387Y-85078648D03*
X193542387Y-85768648D03*
%TD*%
%TO.C,R28*%
X192042387Y-85073843D03*
X192042387Y-85763843D03*
%TD*%
%TO.C,R29*%
X194985765Y-85078172D03*
X194985765Y-85768172D03*
%TD*%
D22*
%TO.C,R31*%
X190815000Y-104700000D03*
X191835000Y-104700000D03*
%TD*%
D20*
%TO.C,R32*%
X192950000Y-103630000D03*
X192950000Y-104320000D03*
%TD*%
%TO.C,R33*%
X192950000Y-104955000D03*
X192950000Y-105645000D03*
%TD*%
D23*
%TO.C,R34*%
X196500000Y-117250000D03*
X196500000Y-115600000D03*
%TD*%
D24*
%TO.C,B10*%
X199249999Y-125949999D03*
X199249999Y-123749999D03*
X199249999Y-124849999D03*
D25*
X201349999Y-127649999D03*
X201349999Y-122049999D03*
%TD*%
D26*
%TO.C,IC1*%
X104949999Y-98549999D03*
X105349999Y-98549999D03*
X105749999Y-98549999D03*
X106149999Y-98549999D03*
X104949999Y-98149999D03*
X105349999Y-98149999D03*
X105749999Y-98149999D03*
X106149999Y-98149999D03*
X104949999Y-97749999D03*
X105349999Y-97749999D03*
X105749999Y-97749999D03*
X106149999Y-97749999D03*
%TD*%
D27*
%TO.C,J6*%
X197374999Y-107124999D03*
X197374999Y-106624999D03*
X197374999Y-106124999D03*
X197374999Y-105624999D03*
X197374999Y-105124999D03*
X197374999Y-104624999D03*
X197374999Y-104124999D03*
X197374999Y-103624999D03*
X197374999Y-103124999D03*
X197374999Y-102624999D03*
X197374999Y-102124999D03*
X197374999Y-101624999D03*
D28*
X195724999Y-101374999D03*
X195724999Y-101874999D03*
X195724999Y-102374999D03*
X195724999Y-102874999D03*
X195724999Y-103374999D03*
X195724999Y-103874999D03*
X195724999Y-104374999D03*
X195724999Y-104874999D03*
X195724999Y-105374999D03*
X195724999Y-105874999D03*
X195724999Y-106374999D03*
X195724999Y-106874999D03*
%TD*%
M02*
