%TF.GenerationSoftware,KiCad,Pcbnew,(7.0.0)*%
%TF.CreationDate,2023-03-12T01:47:04+01:00*%
%TF.ProjectId,g&w,6726772e-6b69-4636-9164-5f7063625858,rev?*%
%TF.SameCoordinates,Original*%
%TF.FileFunction,Legend,Bot*%
%TF.FilePolarity,Positive*%
%FSLAX46Y46*%
G04 Gerber Fmt 4.6, Leading zero omitted, Abs format (unit mm)*
G04 Created by KiCad (PCBNEW (7.0.0)) date 2023-03-12 01:47:04*
%MOMM*%
%LPD*%
G01*
G04 APERTURE LIST*
%ADD10C,0.300000*%
%ADD11C,0.150000*%
%ADD12C,0.012000*%
G04 APERTURE END LIST*
D10*
X126023809Y-87090000D02*
X125833333Y-87185238D01*
X125833333Y-87185238D02*
X125547619Y-87185238D01*
X125547619Y-87185238D02*
X125261904Y-87090000D01*
X125261904Y-87090000D02*
X125071428Y-86899523D01*
X125071428Y-86899523D02*
X124976190Y-86709047D01*
X124976190Y-86709047D02*
X124880952Y-86328095D01*
X124880952Y-86328095D02*
X124880952Y-86042380D01*
X124880952Y-86042380D02*
X124976190Y-85661428D01*
X124976190Y-85661428D02*
X125071428Y-85470952D01*
X125071428Y-85470952D02*
X125261904Y-85280476D01*
X125261904Y-85280476D02*
X125547619Y-85185238D01*
X125547619Y-85185238D02*
X125738095Y-85185238D01*
X125738095Y-85185238D02*
X126023809Y-85280476D01*
X126023809Y-85280476D02*
X126119047Y-85375714D01*
X126119047Y-85375714D02*
X126119047Y-86042380D01*
X126119047Y-86042380D02*
X125738095Y-86042380D01*
X127833333Y-85185238D02*
X127833333Y-86232857D01*
X127833333Y-86232857D02*
X127738095Y-86423333D01*
X127738095Y-86423333D02*
X127547619Y-86518571D01*
X127547619Y-86518571D02*
X127166666Y-86518571D01*
X127166666Y-86518571D02*
X126976190Y-86423333D01*
X127833333Y-85280476D02*
X127642857Y-85185238D01*
X127642857Y-85185238D02*
X127166666Y-85185238D01*
X127166666Y-85185238D02*
X126976190Y-85280476D01*
X126976190Y-85280476D02*
X126880952Y-85470952D01*
X126880952Y-85470952D02*
X126880952Y-85661428D01*
X126880952Y-85661428D02*
X126976190Y-85851904D01*
X126976190Y-85851904D02*
X127166666Y-85947142D01*
X127166666Y-85947142D02*
X127642857Y-85947142D01*
X127642857Y-85947142D02*
X127833333Y-86042380D01*
X128785714Y-85185238D02*
X128785714Y-86518571D01*
X128785714Y-86328095D02*
X128880952Y-86423333D01*
X128880952Y-86423333D02*
X129071428Y-86518571D01*
X129071428Y-86518571D02*
X129357143Y-86518571D01*
X129357143Y-86518571D02*
X129547619Y-86423333D01*
X129547619Y-86423333D02*
X129642857Y-86232857D01*
X129642857Y-86232857D02*
X129642857Y-85185238D01*
X129642857Y-86232857D02*
X129738095Y-86423333D01*
X129738095Y-86423333D02*
X129928571Y-86518571D01*
X129928571Y-86518571D02*
X130214285Y-86518571D01*
X130214285Y-86518571D02*
X130404762Y-86423333D01*
X130404762Y-86423333D02*
X130500000Y-86232857D01*
X130500000Y-86232857D02*
X130500000Y-85185238D01*
X132214286Y-85280476D02*
X132023810Y-85185238D01*
X132023810Y-85185238D02*
X131642857Y-85185238D01*
X131642857Y-85185238D02*
X131452381Y-85280476D01*
X131452381Y-85280476D02*
X131357143Y-85470952D01*
X131357143Y-85470952D02*
X131357143Y-86232857D01*
X131357143Y-86232857D02*
X131452381Y-86423333D01*
X131452381Y-86423333D02*
X131642857Y-86518571D01*
X131642857Y-86518571D02*
X132023810Y-86518571D01*
X132023810Y-86518571D02*
X132214286Y-86423333D01*
X132214286Y-86423333D02*
X132309524Y-86232857D01*
X132309524Y-86232857D02*
X132309524Y-86042380D01*
X132309524Y-86042380D02*
X131357143Y-85851904D01*
X134785715Y-85185238D02*
X134690477Y-85185238D01*
X134690477Y-85185238D02*
X134500000Y-85280476D01*
X134500000Y-85280476D02*
X134214286Y-85566190D01*
X134214286Y-85566190D02*
X133738096Y-86137619D01*
X133738096Y-86137619D02*
X133547619Y-86423333D01*
X133547619Y-86423333D02*
X133452381Y-86709047D01*
X133452381Y-86709047D02*
X133452381Y-86899523D01*
X133452381Y-86899523D02*
X133547619Y-87090000D01*
X133547619Y-87090000D02*
X133738096Y-87185238D01*
X133738096Y-87185238D02*
X133833334Y-87185238D01*
X133833334Y-87185238D02*
X134023810Y-87090000D01*
X134023810Y-87090000D02*
X134119048Y-86899523D01*
X134119048Y-86899523D02*
X134119048Y-86804285D01*
X134119048Y-86804285D02*
X134023810Y-86613809D01*
X134023810Y-86613809D02*
X133928572Y-86518571D01*
X133928572Y-86518571D02*
X133357143Y-86137619D01*
X133357143Y-86137619D02*
X133261905Y-86042380D01*
X133261905Y-86042380D02*
X133166667Y-85851904D01*
X133166667Y-85851904D02*
X133166667Y-85566190D01*
X133166667Y-85566190D02*
X133261905Y-85375714D01*
X133261905Y-85375714D02*
X133357143Y-85280476D01*
X133357143Y-85280476D02*
X133547619Y-85185238D01*
X133547619Y-85185238D02*
X133833334Y-85185238D01*
X133833334Y-85185238D02*
X134023810Y-85280476D01*
X134023810Y-85280476D02*
X134119048Y-85375714D01*
X134119048Y-85375714D02*
X134404762Y-85756666D01*
X134404762Y-85756666D02*
X134500000Y-86042380D01*
X134500000Y-86042380D02*
X134500000Y-86232857D01*
X135452381Y-87185238D02*
X135928571Y-85185238D01*
X135928571Y-85185238D02*
X136309524Y-86613809D01*
X136309524Y-86613809D02*
X136690476Y-85185238D01*
X136690476Y-85185238D02*
X137166667Y-87185238D01*
X138785714Y-85185238D02*
X138785714Y-86232857D01*
X138785714Y-86232857D02*
X138690476Y-86423333D01*
X138690476Y-86423333D02*
X138500000Y-86518571D01*
X138500000Y-86518571D02*
X138119047Y-86518571D01*
X138119047Y-86518571D02*
X137928571Y-86423333D01*
X138785714Y-85280476D02*
X138595238Y-85185238D01*
X138595238Y-85185238D02*
X138119047Y-85185238D01*
X138119047Y-85185238D02*
X137928571Y-85280476D01*
X137928571Y-85280476D02*
X137833333Y-85470952D01*
X137833333Y-85470952D02*
X137833333Y-85661428D01*
X137833333Y-85661428D02*
X137928571Y-85851904D01*
X137928571Y-85851904D02*
X138119047Y-85947142D01*
X138119047Y-85947142D02*
X138595238Y-85947142D01*
X138595238Y-85947142D02*
X138785714Y-86042380D01*
X139452381Y-86518571D02*
X140214285Y-86518571D01*
X139738095Y-87185238D02*
X139738095Y-85470952D01*
X139738095Y-85470952D02*
X139833333Y-85280476D01*
X139833333Y-85280476D02*
X140023809Y-85185238D01*
X140023809Y-85185238D02*
X140214285Y-85185238D01*
X141738095Y-85280476D02*
X141547619Y-85185238D01*
X141547619Y-85185238D02*
X141166666Y-85185238D01*
X141166666Y-85185238D02*
X140976190Y-85280476D01*
X140976190Y-85280476D02*
X140880952Y-85375714D01*
X140880952Y-85375714D02*
X140785714Y-85566190D01*
X140785714Y-85566190D02*
X140785714Y-86137619D01*
X140785714Y-86137619D02*
X140880952Y-86328095D01*
X140880952Y-86328095D02*
X140976190Y-86423333D01*
X140976190Y-86423333D02*
X141166666Y-86518571D01*
X141166666Y-86518571D02*
X141547619Y-86518571D01*
X141547619Y-86518571D02*
X141738095Y-86423333D01*
X142595238Y-85185238D02*
X142595238Y-87185238D01*
X143452381Y-85185238D02*
X143452381Y-86232857D01*
X143452381Y-86232857D02*
X143357143Y-86423333D01*
X143357143Y-86423333D02*
X143166667Y-86518571D01*
X143166667Y-86518571D02*
X142880952Y-86518571D01*
X142880952Y-86518571D02*
X142690476Y-86423333D01*
X142690476Y-86423333D02*
X142595238Y-86328095D01*
X145604762Y-87185238D02*
X145604762Y-85566190D01*
X145604762Y-85566190D02*
X145700000Y-85375714D01*
X145700000Y-85375714D02*
X145795238Y-85280476D01*
X145795238Y-85280476D02*
X145985714Y-85185238D01*
X145985714Y-85185238D02*
X146366667Y-85185238D01*
X146366667Y-85185238D02*
X146557143Y-85280476D01*
X146557143Y-85280476D02*
X146652381Y-85375714D01*
X146652381Y-85375714D02*
X146747619Y-85566190D01*
X146747619Y-85566190D02*
X146747619Y-87185238D01*
X147985714Y-85185238D02*
X147795238Y-85280476D01*
X147795238Y-85280476D02*
X147700000Y-85470952D01*
X147700000Y-85470952D02*
X147700000Y-87185238D01*
X148461905Y-86518571D02*
X149223809Y-86518571D01*
X148747619Y-87185238D02*
X148747619Y-85470952D01*
X148747619Y-85470952D02*
X148842857Y-85280476D01*
X148842857Y-85280476D02*
X149033333Y-85185238D01*
X149033333Y-85185238D02*
X149223809Y-85185238D01*
X149890476Y-85185238D02*
X149890476Y-86518571D01*
X149890476Y-87185238D02*
X149795238Y-87090000D01*
X149795238Y-87090000D02*
X149890476Y-86994761D01*
X149890476Y-86994761D02*
X149985714Y-87090000D01*
X149985714Y-87090000D02*
X149890476Y-87185238D01*
X149890476Y-87185238D02*
X149890476Y-86994761D01*
X150842857Y-85185238D02*
X150842857Y-86518571D01*
X150842857Y-86328095D02*
X150938095Y-86423333D01*
X150938095Y-86423333D02*
X151128571Y-86518571D01*
X151128571Y-86518571D02*
X151414286Y-86518571D01*
X151414286Y-86518571D02*
X151604762Y-86423333D01*
X151604762Y-86423333D02*
X151700000Y-86232857D01*
X151700000Y-86232857D02*
X151700000Y-85185238D01*
X151700000Y-86232857D02*
X151795238Y-86423333D01*
X151795238Y-86423333D02*
X151985714Y-86518571D01*
X151985714Y-86518571D02*
X152271428Y-86518571D01*
X152271428Y-86518571D02*
X152461905Y-86423333D01*
X152461905Y-86423333D02*
X152557143Y-86232857D01*
X152557143Y-86232857D02*
X152557143Y-85185238D01*
X154366667Y-85185238D02*
X154366667Y-86232857D01*
X154366667Y-86232857D02*
X154271429Y-86423333D01*
X154271429Y-86423333D02*
X154080953Y-86518571D01*
X154080953Y-86518571D02*
X153700000Y-86518571D01*
X153700000Y-86518571D02*
X153509524Y-86423333D01*
X154366667Y-85280476D02*
X154176191Y-85185238D01*
X154176191Y-85185238D02*
X153700000Y-85185238D01*
X153700000Y-85185238D02*
X153509524Y-85280476D01*
X153509524Y-85280476D02*
X153414286Y-85470952D01*
X153414286Y-85470952D02*
X153414286Y-85661428D01*
X153414286Y-85661428D02*
X153509524Y-85851904D01*
X153509524Y-85851904D02*
X153700000Y-85947142D01*
X153700000Y-85947142D02*
X154176191Y-85947142D01*
X154176191Y-85947142D02*
X154366667Y-86042380D01*
X155033334Y-86518571D02*
X155795238Y-86518571D01*
X155319048Y-87185238D02*
X155319048Y-85470952D01*
X155319048Y-85470952D02*
X155414286Y-85280476D01*
X155414286Y-85280476D02*
X155604762Y-85185238D01*
X155604762Y-85185238D02*
X155795238Y-85185238D01*
X157223810Y-85280476D02*
X157033334Y-85185238D01*
X157033334Y-85185238D02*
X156652381Y-85185238D01*
X156652381Y-85185238D02*
X156461905Y-85280476D01*
X156461905Y-85280476D02*
X156366667Y-85470952D01*
X156366667Y-85470952D02*
X156366667Y-86232857D01*
X156366667Y-86232857D02*
X156461905Y-86423333D01*
X156461905Y-86423333D02*
X156652381Y-86518571D01*
X156652381Y-86518571D02*
X157033334Y-86518571D01*
X157033334Y-86518571D02*
X157223810Y-86423333D01*
X157223810Y-86423333D02*
X157319048Y-86232857D01*
X157319048Y-86232857D02*
X157319048Y-86042380D01*
X157319048Y-86042380D02*
X156366667Y-85851904D01*
X159376191Y-86232857D02*
X160042858Y-86232857D01*
X160328572Y-85185238D02*
X159376191Y-85185238D01*
X159376191Y-85185238D02*
X159376191Y-87185238D01*
X159376191Y-87185238D02*
X160328572Y-87185238D01*
X162042858Y-85185238D02*
X162042858Y-87185238D01*
X162042858Y-85280476D02*
X161852382Y-85185238D01*
X161852382Y-85185238D02*
X161471429Y-85185238D01*
X161471429Y-85185238D02*
X161280953Y-85280476D01*
X161280953Y-85280476D02*
X161185715Y-85375714D01*
X161185715Y-85375714D02*
X161090477Y-85566190D01*
X161090477Y-85566190D02*
X161090477Y-86137619D01*
X161090477Y-86137619D02*
X161185715Y-86328095D01*
X161185715Y-86328095D02*
X161280953Y-86423333D01*
X161280953Y-86423333D02*
X161471429Y-86518571D01*
X161471429Y-86518571D02*
X161852382Y-86518571D01*
X161852382Y-86518571D02*
X162042858Y-86423333D01*
X162995239Y-85185238D02*
X162995239Y-86518571D01*
X162995239Y-87185238D02*
X162900001Y-87090000D01*
X162900001Y-87090000D02*
X162995239Y-86994761D01*
X162995239Y-86994761D02*
X163090477Y-87090000D01*
X163090477Y-87090000D02*
X162995239Y-87185238D01*
X162995239Y-87185238D02*
X162995239Y-86994761D01*
X163661906Y-86518571D02*
X164423810Y-86518571D01*
X163947620Y-87185238D02*
X163947620Y-85470952D01*
X163947620Y-85470952D02*
X164042858Y-85280476D01*
X164042858Y-85280476D02*
X164233334Y-85185238D01*
X164233334Y-85185238D02*
X164423810Y-85185238D01*
X165090477Y-85185238D02*
X165090477Y-86518571D01*
X165090477Y-87185238D02*
X164995239Y-87090000D01*
X164995239Y-87090000D02*
X165090477Y-86994761D01*
X165090477Y-86994761D02*
X165185715Y-87090000D01*
X165185715Y-87090000D02*
X165090477Y-87185238D01*
X165090477Y-87185238D02*
X165090477Y-86994761D01*
X166328572Y-85185238D02*
X166138096Y-85280476D01*
X166138096Y-85280476D02*
X166042858Y-85375714D01*
X166042858Y-85375714D02*
X165947620Y-85566190D01*
X165947620Y-85566190D02*
X165947620Y-86137619D01*
X165947620Y-86137619D02*
X166042858Y-86328095D01*
X166042858Y-86328095D02*
X166138096Y-86423333D01*
X166138096Y-86423333D02*
X166328572Y-86518571D01*
X166328572Y-86518571D02*
X166614287Y-86518571D01*
X166614287Y-86518571D02*
X166804763Y-86423333D01*
X166804763Y-86423333D02*
X166900001Y-86328095D01*
X166900001Y-86328095D02*
X166995239Y-86137619D01*
X166995239Y-86137619D02*
X166995239Y-85566190D01*
X166995239Y-85566190D02*
X166900001Y-85375714D01*
X166900001Y-85375714D02*
X166804763Y-85280476D01*
X166804763Y-85280476D02*
X166614287Y-85185238D01*
X166614287Y-85185238D02*
X166328572Y-85185238D01*
X167852382Y-86518571D02*
X167852382Y-85185238D01*
X167852382Y-86328095D02*
X167947620Y-86423333D01*
X167947620Y-86423333D02*
X168138096Y-86518571D01*
X168138096Y-86518571D02*
X168423811Y-86518571D01*
X168423811Y-86518571D02*
X168614287Y-86423333D01*
X168614287Y-86423333D02*
X168709525Y-86232857D01*
X168709525Y-86232857D02*
X168709525Y-85185238D01*
%TO.C,G\u002A\u002A\u002A*%
X148321427Y-95122500D02*
X148464285Y-95051071D01*
X148464285Y-95051071D02*
X148678570Y-95051071D01*
X148678570Y-95051071D02*
X148892856Y-95122500D01*
X148892856Y-95122500D02*
X149035713Y-95265357D01*
X149035713Y-95265357D02*
X149107142Y-95408214D01*
X149107142Y-95408214D02*
X149178570Y-95693928D01*
X149178570Y-95693928D02*
X149178570Y-95908214D01*
X149178570Y-95908214D02*
X149107142Y-96193928D01*
X149107142Y-96193928D02*
X149035713Y-96336785D01*
X149035713Y-96336785D02*
X148892856Y-96479642D01*
X148892856Y-96479642D02*
X148678570Y-96551071D01*
X148678570Y-96551071D02*
X148535713Y-96551071D01*
X148535713Y-96551071D02*
X148321427Y-96479642D01*
X148321427Y-96479642D02*
X148249999Y-96408214D01*
X148249999Y-96408214D02*
X148249999Y-95908214D01*
X148249999Y-95908214D02*
X148535713Y-95908214D01*
X147392856Y-95051071D02*
X147392856Y-95408214D01*
X147749999Y-95265357D02*
X147392856Y-95408214D01*
X147392856Y-95408214D02*
X147035713Y-95265357D01*
X147607142Y-95693928D02*
X147392856Y-95408214D01*
X147392856Y-95408214D02*
X147178570Y-95693928D01*
X146249999Y-95051071D02*
X146249999Y-95408214D01*
X146607142Y-95265357D02*
X146249999Y-95408214D01*
X146249999Y-95408214D02*
X145892856Y-95265357D01*
X146464285Y-95693928D02*
X146249999Y-95408214D01*
X146249999Y-95408214D02*
X146035713Y-95693928D01*
X145107142Y-95051071D02*
X145107142Y-95408214D01*
X145464285Y-95265357D02*
X145107142Y-95408214D01*
X145107142Y-95408214D02*
X144749999Y-95265357D01*
X145321428Y-95693928D02*
X145107142Y-95408214D01*
X145107142Y-95408214D02*
X144892856Y-95693928D01*
D11*
%TO.C,B1*%
X-399156428Y281904761D02*
X-399108809Y281761904D01*
X-399108809Y281761904D02*
X-399061190Y281714285D01*
X-399061190Y281714285D02*
X-398965952Y281666666D01*
X-398965952Y281666666D02*
X-398823095Y281666666D01*
X-398823095Y281666666D02*
X-398727857Y281714285D01*
X-398727857Y281714285D02*
X-398680238Y281761904D01*
X-398680238Y281761904D02*
X-398632619Y281857142D01*
X-398632619Y281857142D02*
X-398632619Y282238094D01*
X-398632619Y282238094D02*
X-399632619Y282238094D01*
X-399632619Y282238094D02*
X-399632619Y281904761D01*
X-399632619Y281904761D02*
X-399585000Y281809523D01*
X-399585000Y281809523D02*
X-399537380Y281761904D01*
X-399537380Y281761904D02*
X-399442142Y281714285D01*
X-399442142Y281714285D02*
X-399346904Y281714285D01*
X-399346904Y281714285D02*
X-399251666Y281761904D01*
X-399251666Y281761904D02*
X-399204047Y281809523D01*
X-399204047Y281809523D02*
X-399156428Y281904761D01*
X-399156428Y281904761D02*
X-399156428Y282238094D01*
X-398632619Y280714285D02*
X-398632619Y281285713D01*
X-398632619Y280999999D02*
X-399632619Y280999999D01*
X-399632619Y280999999D02*
X-399489761Y281095237D01*
X-399489761Y281095237D02*
X-399394523Y281190475D01*
X-399394523Y281190475D02*
X-399346904Y281285713D01*
%TO.C,B2*%
X-396595238Y283406428D02*
X-396738095Y283358809D01*
X-396738095Y283358809D02*
X-396785714Y283311190D01*
X-396785714Y283311190D02*
X-396833333Y283215952D01*
X-396833333Y283215952D02*
X-396833333Y283073095D01*
X-396833333Y283073095D02*
X-396785714Y282977857D01*
X-396785714Y282977857D02*
X-396738095Y282930238D01*
X-396738095Y282930238D02*
X-396642857Y282882619D01*
X-396642857Y282882619D02*
X-396261905Y282882619D01*
X-396261905Y282882619D02*
X-396261905Y283882619D01*
X-396261905Y283882619D02*
X-396595238Y283882619D01*
X-396595238Y283882619D02*
X-396690476Y283835000D01*
X-396690476Y283835000D02*
X-396738095Y283787380D01*
X-396738095Y283787380D02*
X-396785714Y283692142D01*
X-396785714Y283692142D02*
X-396785714Y283596904D01*
X-396785714Y283596904D02*
X-396738095Y283501666D01*
X-396738095Y283501666D02*
X-396690476Y283454047D01*
X-396690476Y283454047D02*
X-396595238Y283406428D01*
X-396595238Y283406428D02*
X-396261905Y283406428D01*
X-397214286Y283787380D02*
X-397261905Y283835000D01*
X-397261905Y283835000D02*
X-397357143Y283882619D01*
X-397357143Y283882619D02*
X-397595238Y283882619D01*
X-397595238Y283882619D02*
X-397690476Y283835000D01*
X-397690476Y283835000D02*
X-397738095Y283787380D01*
X-397738095Y283787380D02*
X-397785714Y283692142D01*
X-397785714Y283692142D02*
X-397785714Y283596904D01*
X-397785714Y283596904D02*
X-397738095Y283454047D01*
X-397738095Y283454047D02*
X-397166667Y282882619D01*
X-397166667Y282882619D02*
X-397785714Y282882619D01*
%TO.C,B3*%
X-399156428Y284154761D02*
X-399108809Y284011904D01*
X-399108809Y284011904D02*
X-399061190Y283964285D01*
X-399061190Y283964285D02*
X-398965952Y283916666D01*
X-398965952Y283916666D02*
X-398823095Y283916666D01*
X-398823095Y283916666D02*
X-398727857Y283964285D01*
X-398727857Y283964285D02*
X-398680238Y284011904D01*
X-398680238Y284011904D02*
X-398632619Y284107142D01*
X-398632619Y284107142D02*
X-398632619Y284488094D01*
X-398632619Y284488094D02*
X-399632619Y284488094D01*
X-399632619Y284488094D02*
X-399632619Y284154761D01*
X-399632619Y284154761D02*
X-399585000Y284059523D01*
X-399585000Y284059523D02*
X-399537380Y284011904D01*
X-399537380Y284011904D02*
X-399442142Y283964285D01*
X-399442142Y283964285D02*
X-399346904Y283964285D01*
X-399346904Y283964285D02*
X-399251666Y284011904D01*
X-399251666Y284011904D02*
X-399204047Y284059523D01*
X-399204047Y284059523D02*
X-399156428Y284154761D01*
X-399156428Y284154761D02*
X-399156428Y284488094D01*
X-399632619Y283583332D02*
X-399632619Y282964285D01*
X-399632619Y282964285D02*
X-399251666Y283297618D01*
X-399251666Y283297618D02*
X-399251666Y283154761D01*
X-399251666Y283154761D02*
X-399204047Y283059523D01*
X-399204047Y283059523D02*
X-399156428Y283011904D01*
X-399156428Y283011904D02*
X-399061190Y282964285D01*
X-399061190Y282964285D02*
X-398823095Y282964285D01*
X-398823095Y282964285D02*
X-398727857Y283011904D01*
X-398727857Y283011904D02*
X-398680238Y283059523D01*
X-398680238Y283059523D02*
X-398632619Y283154761D01*
X-398632619Y283154761D02*
X-398632619Y283440475D01*
X-398632619Y283440475D02*
X-398680238Y283535713D01*
X-398680238Y283535713D02*
X-398727857Y283583332D01*
%TO.C,B4*%
X-396595238Y281406428D02*
X-396738095Y281358809D01*
X-396738095Y281358809D02*
X-396785714Y281311190D01*
X-396785714Y281311190D02*
X-396833333Y281215952D01*
X-396833333Y281215952D02*
X-396833333Y281073095D01*
X-396833333Y281073095D02*
X-396785714Y280977857D01*
X-396785714Y280977857D02*
X-396738095Y280930238D01*
X-396738095Y280930238D02*
X-396642857Y280882619D01*
X-396642857Y280882619D02*
X-396261905Y280882619D01*
X-396261905Y280882619D02*
X-396261905Y281882619D01*
X-396261905Y281882619D02*
X-396595238Y281882619D01*
X-396595238Y281882619D02*
X-396690476Y281835000D01*
X-396690476Y281835000D02*
X-396738095Y281787380D01*
X-396738095Y281787380D02*
X-396785714Y281692142D01*
X-396785714Y281692142D02*
X-396785714Y281596904D01*
X-396785714Y281596904D02*
X-396738095Y281501666D01*
X-396738095Y281501666D02*
X-396690476Y281454047D01*
X-396690476Y281454047D02*
X-396595238Y281406428D01*
X-396595238Y281406428D02*
X-396261905Y281406428D01*
X-397690476Y281549285D02*
X-397690476Y280882619D01*
X-397452381Y281930238D02*
X-397214286Y281215952D01*
X-397214286Y281215952D02*
X-397833333Y281215952D01*
%TO.C,B7*%
X-401595238Y281656428D02*
X-401738095Y281608809D01*
X-401738095Y281608809D02*
X-401785714Y281561190D01*
X-401785714Y281561190D02*
X-401833333Y281465952D01*
X-401833333Y281465952D02*
X-401833333Y281323095D01*
X-401833333Y281323095D02*
X-401785714Y281227857D01*
X-401785714Y281227857D02*
X-401738095Y281180238D01*
X-401738095Y281180238D02*
X-401642857Y281132619D01*
X-401642857Y281132619D02*
X-401261905Y281132619D01*
X-401261905Y281132619D02*
X-401261905Y282132619D01*
X-401261905Y282132619D02*
X-401595238Y282132619D01*
X-401595238Y282132619D02*
X-401690476Y282085000D01*
X-401690476Y282085000D02*
X-401738095Y282037380D01*
X-401738095Y282037380D02*
X-401785714Y281942142D01*
X-401785714Y281942142D02*
X-401785714Y281846904D01*
X-401785714Y281846904D02*
X-401738095Y281751666D01*
X-401738095Y281751666D02*
X-401690476Y281704047D01*
X-401690476Y281704047D02*
X-401595238Y281656428D01*
X-401595238Y281656428D02*
X-401261905Y281656428D01*
X-402166667Y282132619D02*
X-402833333Y282132619D01*
X-402833333Y282132619D02*
X-402404762Y281132619D01*
%TO.C,B8*%
X-401845238Y286656428D02*
X-401988095Y286608809D01*
X-401988095Y286608809D02*
X-402035714Y286561190D01*
X-402035714Y286561190D02*
X-402083333Y286465952D01*
X-402083333Y286465952D02*
X-402083333Y286323095D01*
X-402083333Y286323095D02*
X-402035714Y286227857D01*
X-402035714Y286227857D02*
X-401988095Y286180238D01*
X-401988095Y286180238D02*
X-401892857Y286132619D01*
X-401892857Y286132619D02*
X-401511905Y286132619D01*
X-401511905Y286132619D02*
X-401511905Y287132619D01*
X-401511905Y287132619D02*
X-401845238Y287132619D01*
X-401845238Y287132619D02*
X-401940476Y287085000D01*
X-401940476Y287085000D02*
X-401988095Y287037380D01*
X-401988095Y287037380D02*
X-402035714Y286942142D01*
X-402035714Y286942142D02*
X-402035714Y286846904D01*
X-402035714Y286846904D02*
X-401988095Y286751666D01*
X-401988095Y286751666D02*
X-401940476Y286704047D01*
X-401940476Y286704047D02*
X-401845238Y286656428D01*
X-401845238Y286656428D02*
X-401511905Y286656428D01*
X-402654762Y286704047D02*
X-402559524Y286751666D01*
X-402559524Y286751666D02*
X-402511905Y286799285D01*
X-402511905Y286799285D02*
X-402464286Y286894523D01*
X-402464286Y286894523D02*
X-402464286Y286942142D01*
X-402464286Y286942142D02*
X-402511905Y287037380D01*
X-402511905Y287037380D02*
X-402559524Y287085000D01*
X-402559524Y287085000D02*
X-402654762Y287132619D01*
X-402654762Y287132619D02*
X-402845238Y287132619D01*
X-402845238Y287132619D02*
X-402940476Y287085000D01*
X-402940476Y287085000D02*
X-402988095Y287037380D01*
X-402988095Y287037380D02*
X-403035714Y286942142D01*
X-403035714Y286942142D02*
X-403035714Y286894523D01*
X-403035714Y286894523D02*
X-402988095Y286799285D01*
X-402988095Y286799285D02*
X-402940476Y286751666D01*
X-402940476Y286751666D02*
X-402845238Y286704047D01*
X-402845238Y286704047D02*
X-402654762Y286704047D01*
X-402654762Y286704047D02*
X-402559524Y286656428D01*
X-402559524Y286656428D02*
X-402511905Y286608809D01*
X-402511905Y286608809D02*
X-402464286Y286513571D01*
X-402464286Y286513571D02*
X-402464286Y286323095D01*
X-402464286Y286323095D02*
X-402511905Y286227857D01*
X-402511905Y286227857D02*
X-402559524Y286180238D01*
X-402559524Y286180238D02*
X-402654762Y286132619D01*
X-402654762Y286132619D02*
X-402845238Y286132619D01*
X-402845238Y286132619D02*
X-402940476Y286180238D01*
X-402940476Y286180238D02*
X-402988095Y286227857D01*
X-402988095Y286227857D02*
X-403035714Y286323095D01*
X-403035714Y286323095D02*
X-403035714Y286513571D01*
X-403035714Y286513571D02*
X-402988095Y286608809D01*
X-402988095Y286608809D02*
X-402940476Y286656428D01*
X-402940476Y286656428D02*
X-402845238Y286704047D01*
%TO.C,B9*%
X-402595238Y283406428D02*
X-402738095Y283358809D01*
X-402738095Y283358809D02*
X-402785714Y283311190D01*
X-402785714Y283311190D02*
X-402833333Y283215952D01*
X-402833333Y283215952D02*
X-402833333Y283073095D01*
X-402833333Y283073095D02*
X-402785714Y282977857D01*
X-402785714Y282977857D02*
X-402738095Y282930238D01*
X-402738095Y282930238D02*
X-402642857Y282882619D01*
X-402642857Y282882619D02*
X-402261905Y282882619D01*
X-402261905Y282882619D02*
X-402261905Y283882619D01*
X-402261905Y283882619D02*
X-402595238Y283882619D01*
X-402595238Y283882619D02*
X-402690476Y283835000D01*
X-402690476Y283835000D02*
X-402738095Y283787380D01*
X-402738095Y283787380D02*
X-402785714Y283692142D01*
X-402785714Y283692142D02*
X-402785714Y283596904D01*
X-402785714Y283596904D02*
X-402738095Y283501666D01*
X-402738095Y283501666D02*
X-402690476Y283454047D01*
X-402690476Y283454047D02*
X-402595238Y283406428D01*
X-402595238Y283406428D02*
X-402261905Y283406428D01*
X-403309524Y282882619D02*
X-403500000Y282882619D01*
X-403500000Y282882619D02*
X-403595238Y282930238D01*
X-403595238Y282930238D02*
X-403642857Y282977857D01*
X-403642857Y282977857D02*
X-403738095Y283120714D01*
X-403738095Y283120714D02*
X-403785714Y283311190D01*
X-403785714Y283311190D02*
X-403785714Y283692142D01*
X-403785714Y283692142D02*
X-403738095Y283787380D01*
X-403738095Y283787380D02*
X-403690476Y283835000D01*
X-403690476Y283835000D02*
X-403595238Y283882619D01*
X-403595238Y283882619D02*
X-403404762Y283882619D01*
X-403404762Y283882619D02*
X-403309524Y283835000D01*
X-403309524Y283835000D02*
X-403261905Y283787380D01*
X-403261905Y283787380D02*
X-403214286Y283692142D01*
X-403214286Y283692142D02*
X-403214286Y283454047D01*
X-403214286Y283454047D02*
X-403261905Y283358809D01*
X-403261905Y283358809D02*
X-403309524Y283311190D01*
X-403309524Y283311190D02*
X-403404762Y283263571D01*
X-403404762Y283263571D02*
X-403595238Y283263571D01*
X-403595238Y283263571D02*
X-403690476Y283311190D01*
X-403690476Y283311190D02*
X-403738095Y283358809D01*
X-403738095Y283358809D02*
X-403785714Y283454047D01*
%TO.C,B5*%
X-402095238Y288406428D02*
X-402238095Y288358809D01*
X-402238095Y288358809D02*
X-402285714Y288311190D01*
X-402285714Y288311190D02*
X-402333333Y288215952D01*
X-402333333Y288215952D02*
X-402333333Y288073095D01*
X-402333333Y288073095D02*
X-402285714Y287977857D01*
X-402285714Y287977857D02*
X-402238095Y287930238D01*
X-402238095Y287930238D02*
X-402142857Y287882619D01*
X-402142857Y287882619D02*
X-401761905Y287882619D01*
X-401761905Y287882619D02*
X-401761905Y288882619D01*
X-401761905Y288882619D02*
X-402095238Y288882619D01*
X-402095238Y288882619D02*
X-402190476Y288835000D01*
X-402190476Y288835000D02*
X-402238095Y288787380D01*
X-402238095Y288787380D02*
X-402285714Y288692142D01*
X-402285714Y288692142D02*
X-402285714Y288596904D01*
X-402285714Y288596904D02*
X-402238095Y288501666D01*
X-402238095Y288501666D02*
X-402190476Y288454047D01*
X-402190476Y288454047D02*
X-402095238Y288406428D01*
X-402095238Y288406428D02*
X-401761905Y288406428D01*
X-403238095Y288882619D02*
X-402761905Y288882619D01*
X-402761905Y288882619D02*
X-402714286Y288406428D01*
X-402714286Y288406428D02*
X-402761905Y288454047D01*
X-402761905Y288454047D02*
X-402857143Y288501666D01*
X-402857143Y288501666D02*
X-403095238Y288501666D01*
X-403095238Y288501666D02*
X-403190476Y288454047D01*
X-403190476Y288454047D02*
X-403238095Y288406428D01*
X-403238095Y288406428D02*
X-403285714Y288311190D01*
X-403285714Y288311190D02*
X-403285714Y288073095D01*
X-403285714Y288073095D02*
X-403238095Y287977857D01*
X-403238095Y287977857D02*
X-403190476Y287930238D01*
X-403190476Y287930238D02*
X-403095238Y287882619D01*
X-403095238Y287882619D02*
X-402857143Y287882619D01*
X-402857143Y287882619D02*
X-402761905Y287930238D01*
X-402761905Y287930238D02*
X-402714286Y287977857D01*
%TO.C,B6*%
X-400595238Y283406428D02*
X-400738095Y283358809D01*
X-400738095Y283358809D02*
X-400785714Y283311190D01*
X-400785714Y283311190D02*
X-400833333Y283215952D01*
X-400833333Y283215952D02*
X-400833333Y283073095D01*
X-400833333Y283073095D02*
X-400785714Y282977857D01*
X-400785714Y282977857D02*
X-400738095Y282930238D01*
X-400738095Y282930238D02*
X-400642857Y282882619D01*
X-400642857Y282882619D02*
X-400261905Y282882619D01*
X-400261905Y282882619D02*
X-400261905Y283882619D01*
X-400261905Y283882619D02*
X-400595238Y283882619D01*
X-400595238Y283882619D02*
X-400690476Y283835000D01*
X-400690476Y283835000D02*
X-400738095Y283787380D01*
X-400738095Y283787380D02*
X-400785714Y283692142D01*
X-400785714Y283692142D02*
X-400785714Y283596904D01*
X-400785714Y283596904D02*
X-400738095Y283501666D01*
X-400738095Y283501666D02*
X-400690476Y283454047D01*
X-400690476Y283454047D02*
X-400595238Y283406428D01*
X-400595238Y283406428D02*
X-400261905Y283406428D01*
X-401690476Y283882619D02*
X-401500000Y283882619D01*
X-401500000Y283882619D02*
X-401404762Y283835000D01*
X-401404762Y283835000D02*
X-401357143Y283787380D01*
X-401357143Y283787380D02*
X-401261905Y283644523D01*
X-401261905Y283644523D02*
X-401214286Y283454047D01*
X-401214286Y283454047D02*
X-401214286Y283073095D01*
X-401214286Y283073095D02*
X-401261905Y282977857D01*
X-401261905Y282977857D02*
X-401309524Y282930238D01*
X-401309524Y282930238D02*
X-401404762Y282882619D01*
X-401404762Y282882619D02*
X-401595238Y282882619D01*
X-401595238Y282882619D02*
X-401690476Y282930238D01*
X-401690476Y282930238D02*
X-401738095Y282977857D01*
X-401738095Y282977857D02*
X-401785714Y283073095D01*
X-401785714Y283073095D02*
X-401785714Y283311190D01*
X-401785714Y283311190D02*
X-401738095Y283406428D01*
X-401738095Y283406428D02*
X-401690476Y283454047D01*
X-401690476Y283454047D02*
X-401595238Y283501666D01*
X-401595238Y283501666D02*
X-401404762Y283501666D01*
X-401404762Y283501666D02*
X-401309524Y283454047D01*
X-401309524Y283454047D02*
X-401261905Y283406428D01*
X-401261905Y283406428D02*
X-401214286Y283311190D01*
%TO.C,G\u002A\u002A\u002A*%
G36*
X129894337Y-94059817D02*
G01*
X130182508Y-94074329D01*
X130356075Y-94104058D01*
X130455417Y-94151024D01*
X130489568Y-94216917D01*
X130363201Y-94265800D01*
X130081434Y-94296205D01*
X129649381Y-94306666D01*
X129312584Y-94310725D01*
X128993888Y-94330522D01*
X128793250Y-94370238D01*
X128681762Y-94433666D01*
X128565535Y-94533528D01*
X128481842Y-94535359D01*
X128458000Y-94388605D01*
X128494905Y-94268435D01*
X128648500Y-94139972D01*
X128674392Y-94131256D01*
X128881590Y-94096242D01*
X129189939Y-94071908D01*
X129545501Y-94059388D01*
X129894337Y-94059817D01*
G37*
G36*
X155209670Y-94059817D02*
G01*
X155497841Y-94074329D01*
X155671409Y-94104058D01*
X155770750Y-94151024D01*
X155804901Y-94216917D01*
X155678535Y-94265800D01*
X155396767Y-94296205D01*
X154964714Y-94306666D01*
X154627917Y-94310725D01*
X154309222Y-94330522D01*
X154108584Y-94370238D01*
X153997095Y-94433666D01*
X153880869Y-94533528D01*
X153797175Y-94535359D01*
X153773334Y-94388605D01*
X153810239Y-94268435D01*
X153963834Y-94139972D01*
X153989725Y-94131256D01*
X154196923Y-94096242D01*
X154505273Y-94071908D01*
X154860834Y-94059388D01*
X155209670Y-94059817D01*
G37*
G36*
X139943330Y-89565443D02*
G01*
X140481513Y-89568333D01*
X140877366Y-89576355D01*
X141152310Y-89591111D01*
X141327762Y-89614209D01*
X141425140Y-89647252D01*
X141465863Y-89691847D01*
X141501691Y-89748563D01*
X141597325Y-89767116D01*
X141645940Y-89780935D01*
X141651954Y-89915769D01*
X141623667Y-90115666D01*
X139824500Y-90138517D01*
X138025334Y-90161367D01*
X138025334Y-89919795D01*
X138040533Y-89740104D01*
X138081778Y-89621778D01*
X138084222Y-89620075D01*
X138197124Y-89602760D01*
X138449883Y-89587731D01*
X138815545Y-89575886D01*
X139267158Y-89568121D01*
X139777769Y-89565333D01*
X139943330Y-89565443D01*
G37*
G36*
X155224775Y-90330026D02*
G01*
X155422028Y-90330591D01*
X156039745Y-90337693D01*
X156509343Y-90355076D01*
X156847380Y-90385862D01*
X157070417Y-90433177D01*
X157195013Y-90500145D01*
X157237729Y-90589890D01*
X157215122Y-90705536D01*
X157182268Y-90766464D01*
X157065506Y-90861930D01*
X156861844Y-90929777D01*
X156550802Y-90973619D01*
X156111899Y-90997067D01*
X155524655Y-91003735D01*
X155504261Y-91003715D01*
X154885947Y-90998386D01*
X154417364Y-90982335D01*
X154079657Y-90953114D01*
X153853968Y-90908274D01*
X153721443Y-90845365D01*
X153663226Y-90761938D01*
X153637911Y-90681537D01*
X153562214Y-90475500D01*
X153556361Y-90459792D01*
X153555046Y-90413641D01*
X153599217Y-90379704D01*
X153709514Y-90356176D01*
X153906579Y-90341250D01*
X154211050Y-90333120D01*
X154643569Y-90329981D01*
X155224775Y-90330026D01*
G37*
G36*
X136059746Y-102096440D02*
G01*
X136804405Y-102098276D01*
X137407235Y-102102032D01*
X137882714Y-102108226D01*
X138245321Y-102117379D01*
X138509534Y-102130009D01*
X138689830Y-102146637D01*
X138800688Y-102167781D01*
X138856585Y-102193961D01*
X138872000Y-102225696D01*
X138863006Y-102251394D01*
X138817716Y-102278702D01*
X138720857Y-102300373D01*
X138557708Y-102316851D01*
X138313551Y-102328581D01*
X137973668Y-102336005D01*
X137523339Y-102339568D01*
X136947847Y-102339714D01*
X136232471Y-102336886D01*
X135362493Y-102331529D01*
X134451333Y-102324116D01*
X133688115Y-102314998D01*
X133070448Y-102303810D01*
X132586383Y-102290125D01*
X132223975Y-102273513D01*
X131971277Y-102253546D01*
X131816343Y-102229796D01*
X131747227Y-102201833D01*
X131744920Y-102180065D01*
X131806824Y-102157329D01*
X131951827Y-102138829D01*
X132192247Y-102124195D01*
X132540401Y-102113054D01*
X133008610Y-102105036D01*
X133609189Y-102099768D01*
X134354458Y-102096880D01*
X135256734Y-102096000D01*
X136059746Y-102096440D01*
G37*
G36*
X135036825Y-98116670D02*
G01*
X135937916Y-98117324D01*
X136684876Y-98119423D01*
X137291667Y-98123428D01*
X137772252Y-98129802D01*
X138140593Y-98139007D01*
X138410653Y-98151506D01*
X138596395Y-98167759D01*
X138711780Y-98188228D01*
X138770772Y-98213377D01*
X138787334Y-98243666D01*
X138786935Y-98249011D01*
X138764389Y-98278229D01*
X138697283Y-98302451D01*
X138571754Y-98322131D01*
X138373938Y-98337720D01*
X138089972Y-98349671D01*
X137705992Y-98358435D01*
X137208135Y-98364464D01*
X136582537Y-98368211D01*
X135815336Y-98370128D01*
X134892667Y-98370666D01*
X134191223Y-98369512D01*
X133444318Y-98365579D01*
X132766468Y-98359147D01*
X132174387Y-98350520D01*
X131684787Y-98340000D01*
X131314380Y-98327890D01*
X131079881Y-98314493D01*
X130998000Y-98300111D01*
X130998195Y-98294046D01*
X131054445Y-98173111D01*
X131118171Y-98163653D01*
X131336516Y-98152680D01*
X131693116Y-98142713D01*
X132170805Y-98133999D01*
X132752416Y-98126789D01*
X133420782Y-98121331D01*
X134158736Y-98117874D01*
X134949111Y-98116666D01*
X135036825Y-98116670D01*
G37*
G36*
X149735778Y-101226931D02*
G01*
X149697400Y-101416507D01*
X149638034Y-101548458D01*
X149388954Y-101856824D01*
X149032113Y-102104227D01*
X148611174Y-102256886D01*
X148462384Y-102277839D01*
X148129079Y-102302321D01*
X147658207Y-102322339D01*
X147067897Y-102337332D01*
X146376281Y-102346739D01*
X145601490Y-102350000D01*
X144867827Y-102349035D01*
X144281453Y-102345605D01*
X143832065Y-102338941D01*
X143503436Y-102328273D01*
X143279337Y-102312834D01*
X143143542Y-102291856D01*
X143079823Y-102264569D01*
X143071951Y-102230205D01*
X143097727Y-102202553D01*
X143181166Y-102172911D01*
X143336335Y-102148881D01*
X143579498Y-102129559D01*
X143926925Y-102114046D01*
X144394883Y-102101438D01*
X144999639Y-102090835D01*
X145757460Y-102081333D01*
X146482525Y-102072772D01*
X147081384Y-102063633D01*
X147550816Y-102052791D01*
X147911059Y-102038861D01*
X148182351Y-102020461D01*
X148384931Y-101996205D01*
X148539038Y-101964711D01*
X148664908Y-101924594D01*
X148782782Y-101874470D01*
X148891703Y-101818397D01*
X149168235Y-101632232D01*
X149375449Y-101435360D01*
X149557475Y-101238781D01*
X149683750Y-101168005D01*
X149735778Y-101226931D01*
G37*
G36*
X162796502Y-101633420D02*
G01*
X162745427Y-101796080D01*
X162608134Y-101985985D01*
X162409511Y-102159500D01*
X162404944Y-102162613D01*
X162326933Y-102212908D01*
X162244008Y-102253288D01*
X162137901Y-102284842D01*
X161990341Y-102308658D01*
X161783061Y-102325824D01*
X161497792Y-102337430D01*
X161116264Y-102344561D01*
X160620210Y-102348308D01*
X159991360Y-102349758D01*
X159211446Y-102350000D01*
X158459512Y-102349403D01*
X157822889Y-102347055D01*
X157325413Y-102342257D01*
X156951644Y-102334313D01*
X156686142Y-102322525D01*
X156513467Y-102306197D01*
X156418178Y-102284631D01*
X156384836Y-102257131D01*
X156398000Y-102223000D01*
X156447607Y-102187383D01*
X156545170Y-102158191D01*
X156707234Y-102135731D01*
X156951269Y-102119178D01*
X157294746Y-102107706D01*
X157755135Y-102100491D01*
X158349908Y-102096706D01*
X159096534Y-102095528D01*
X159267582Y-102095327D01*
X159938117Y-102091184D01*
X160552180Y-102082197D01*
X161087198Y-102069025D01*
X161520603Y-102052328D01*
X161829823Y-102032763D01*
X161992287Y-102010990D01*
X162002773Y-102007987D01*
X162269390Y-101886834D01*
X162491428Y-101717738D01*
X162511026Y-101697431D01*
X162658953Y-101577198D01*
X162756582Y-101550970D01*
X162796502Y-101633420D01*
G37*
G36*
X145277796Y-94055809D02*
G01*
X146172453Y-94061162D01*
X146925308Y-94071258D01*
X147551704Y-94086997D01*
X148066981Y-94109274D01*
X148486480Y-94138989D01*
X148825544Y-94177039D01*
X149099513Y-94224321D01*
X149323729Y-94281733D01*
X149513533Y-94350173D01*
X149637652Y-94405576D01*
X149764970Y-94485256D01*
X149736631Y-94521781D01*
X149558599Y-94512864D01*
X149236836Y-94456221D01*
X149194512Y-94448395D01*
X148962386Y-94421676D01*
X148610837Y-94399535D01*
X148131551Y-94381775D01*
X147516216Y-94368199D01*
X146756519Y-94358611D01*
X145844148Y-94352814D01*
X144770790Y-94350612D01*
X143884705Y-94350571D01*
X143107113Y-94351613D01*
X142470370Y-94354282D01*
X141959897Y-94359104D01*
X141561114Y-94366601D01*
X141259442Y-94377300D01*
X141040301Y-94391724D01*
X140889112Y-94410398D01*
X140791294Y-94433847D01*
X140732269Y-94462595D01*
X140697457Y-94497166D01*
X140597285Y-94610446D01*
X140510252Y-94624888D01*
X140480667Y-94480801D01*
X140526993Y-94340534D01*
X140668839Y-94184467D01*
X140706401Y-94163001D01*
X140792665Y-94134189D01*
X140925867Y-94110788D01*
X141121308Y-94092272D01*
X141394284Y-94078116D01*
X141760096Y-94067795D01*
X142234042Y-94060782D01*
X142831421Y-94056553D01*
X143567532Y-94054582D01*
X144457672Y-94054344D01*
X145277796Y-94055809D01*
G37*
G36*
X164623869Y-94062191D02*
G01*
X164907398Y-94077323D01*
X165069409Y-94104058D01*
X165178077Y-94157088D01*
X165197804Y-94221185D01*
X165054629Y-94268269D01*
X164751950Y-94297445D01*
X164293167Y-94307823D01*
X164004049Y-94310443D01*
X163643403Y-94320399D01*
X163364400Y-94335966D01*
X163210879Y-94355224D01*
X163170071Y-94381046D01*
X163024672Y-94523849D01*
X162804074Y-94773026D01*
X162524799Y-95108971D01*
X162203369Y-95512076D01*
X161856306Y-95962735D01*
X160673853Y-97524000D01*
X158493593Y-97524000D01*
X157964603Y-97521971D01*
X157429710Y-97515331D01*
X156974801Y-97504747D01*
X156622210Y-97490913D01*
X156394275Y-97474521D01*
X156313334Y-97456267D01*
X156322395Y-97390375D01*
X156370431Y-97322367D01*
X156476563Y-97271045D01*
X156659326Y-97234141D01*
X156937255Y-97209385D01*
X157328885Y-97194511D01*
X157852750Y-97187250D01*
X158527386Y-97185333D01*
X160538239Y-97185333D01*
X160834015Y-96825500D01*
X160911578Y-96729422D01*
X161112485Y-96474621D01*
X161375724Y-96136157D01*
X161676002Y-95746617D01*
X161988025Y-95338591D01*
X162194776Y-95071764D01*
X162479857Y-94719246D01*
X162728229Y-94429713D01*
X162918672Y-94227628D01*
X163029963Y-94137457D01*
X163041118Y-94133440D01*
X163221809Y-94102188D01*
X163517792Y-94078662D01*
X163881704Y-94063636D01*
X164266184Y-94057887D01*
X164623869Y-94062191D01*
G37*
G36*
X130677703Y-94464319D02*
G01*
X130699094Y-94632668D01*
X130717348Y-94935291D01*
X130731536Y-95348521D01*
X130740729Y-95848695D01*
X130744000Y-96412148D01*
X130744706Y-96771810D01*
X130750732Y-97380275D01*
X130763527Y-97841153D01*
X130783832Y-98168936D01*
X130812388Y-98378114D01*
X130849936Y-98483178D01*
X130876268Y-98510819D01*
X130930343Y-98540039D01*
X131021547Y-98563615D01*
X131164569Y-98581978D01*
X131374097Y-98595561D01*
X131664820Y-98604795D01*
X132051424Y-98610114D01*
X132548600Y-98611948D01*
X133171035Y-98610730D01*
X133933418Y-98606892D01*
X134850436Y-98600867D01*
X135527903Y-98595581D01*
X136289634Y-98588244D01*
X136988205Y-98580028D01*
X137605921Y-98571215D01*
X138125087Y-98562089D01*
X138528009Y-98552934D01*
X138796989Y-98544034D01*
X138914334Y-98535674D01*
X138934137Y-98531564D01*
X139016020Y-98535092D01*
X139064546Y-98606577D01*
X139091619Y-98779805D01*
X139109144Y-99088562D01*
X139115419Y-99403998D01*
X139107477Y-99690273D01*
X139086566Y-99870924D01*
X139038511Y-100062391D01*
X134912422Y-100084362D01*
X130786334Y-100106333D01*
X130798126Y-100724175D01*
X130843857Y-101198433D01*
X130979016Y-101669154D01*
X131191101Y-102033930D01*
X131468186Y-102265333D01*
X131483666Y-102272665D01*
X131579535Y-102303211D01*
X131727111Y-102329159D01*
X131941096Y-102351136D01*
X132236195Y-102369767D01*
X132627110Y-102385679D01*
X133128545Y-102399499D01*
X133755202Y-102411852D01*
X134521786Y-102423366D01*
X135443000Y-102434666D01*
X139168334Y-102477000D01*
X139192790Y-103268694D01*
X139194981Y-103707292D01*
X139170158Y-104020147D01*
X139118923Y-104178860D01*
X139115011Y-104183094D01*
X139059578Y-104211895D01*
X138948196Y-104235601D01*
X138766691Y-104254661D01*
X138500893Y-104269526D01*
X138136629Y-104280647D01*
X137659726Y-104288473D01*
X137056013Y-104293456D01*
X136311317Y-104296046D01*
X135411467Y-104296694D01*
X135376380Y-104296684D01*
X134503576Y-104294196D01*
X133696544Y-104287647D01*
X132972541Y-104277408D01*
X132348826Y-104263853D01*
X131842658Y-104247351D01*
X131471297Y-104228277D01*
X131252000Y-104207002D01*
X130868182Y-104127273D01*
X130198942Y-103886090D01*
X129642515Y-103538331D01*
X129210799Y-103092400D01*
X128915690Y-102556701D01*
X128877902Y-102451443D01*
X128831843Y-102281966D01*
X128799129Y-102080240D01*
X128777816Y-101818856D01*
X128765959Y-101470406D01*
X128761612Y-101007479D01*
X128762831Y-100402666D01*
X128763010Y-100368472D01*
X128769895Y-99719757D01*
X128783158Y-98965896D01*
X128801428Y-98167278D01*
X128823332Y-97384294D01*
X128847497Y-96677333D01*
X128923667Y-94687666D01*
X129721133Y-94645333D01*
X129733380Y-94644677D01*
X130174280Y-94609352D01*
X130447438Y-94560067D01*
X130553864Y-94496639D01*
X130575863Y-94456440D01*
X130666565Y-94438136D01*
X130677703Y-94464319D01*
G37*
G36*
X143300313Y-94654294D02*
G01*
X144108534Y-94657906D01*
X145073402Y-94664407D01*
X145632436Y-94668671D01*
X146482486Y-94675749D01*
X147188477Y-94683022D01*
X147766468Y-94691243D01*
X148232517Y-94701162D01*
X148602680Y-94713531D01*
X148893018Y-94729099D01*
X149119587Y-94748619D01*
X149298444Y-94772841D01*
X149445650Y-94802516D01*
X149577260Y-94838396D01*
X149709334Y-94881231D01*
X149986601Y-94983760D01*
X150341815Y-95135261D01*
X150622525Y-95276500D01*
X150755952Y-95349480D01*
X150900052Y-95413499D01*
X150935028Y-95404142D01*
X150908127Y-95328211D01*
X150968433Y-95328831D01*
X151095238Y-95409875D01*
X151255040Y-95555500D01*
X151455749Y-95819129D01*
X151682768Y-96250709D01*
X151868717Y-96752478D01*
X151990250Y-97270000D01*
X152011491Y-97428502D01*
X152046568Y-97860180D01*
X152068799Y-98392576D01*
X152078531Y-98987157D01*
X152076111Y-99605391D01*
X152061885Y-100208744D01*
X152036199Y-100758683D01*
X151999399Y-101216676D01*
X151951832Y-101544190D01*
X151923518Y-101670703D01*
X151692168Y-102384474D01*
X151361944Y-102968603D01*
X150923956Y-103435750D01*
X150369315Y-103798579D01*
X150286354Y-103840801D01*
X150100481Y-103931523D01*
X149922023Y-104007551D01*
X149734911Y-104070305D01*
X149523079Y-104121205D01*
X149270458Y-104161668D01*
X148960980Y-104193116D01*
X148578578Y-104216966D01*
X148107184Y-104234638D01*
X147530731Y-104247551D01*
X146833150Y-104257125D01*
X145998373Y-104264779D01*
X145010334Y-104271931D01*
X144913540Y-104272581D01*
X144094957Y-104276626D01*
X143329251Y-104277902D01*
X142633056Y-104276552D01*
X142023009Y-104272720D01*
X141515745Y-104266548D01*
X141127898Y-104258180D01*
X140876105Y-104247759D01*
X140777000Y-104235430D01*
X140763045Y-104179396D01*
X140748551Y-103969625D01*
X140739001Y-103623059D01*
X140734047Y-103158430D01*
X140733343Y-102594466D01*
X140736541Y-101949896D01*
X140743293Y-101243451D01*
X140753254Y-100493859D01*
X140766075Y-99719851D01*
X140781410Y-98940155D01*
X140798911Y-98173500D01*
X140818232Y-97438618D01*
X140839024Y-96754236D01*
X140854118Y-96330595D01*
X142766667Y-96330595D01*
X142766667Y-99248706D01*
X142767570Y-99795639D01*
X142771146Y-100448507D01*
X142777118Y-101034578D01*
X142785140Y-101533343D01*
X142794868Y-101924297D01*
X142805956Y-102186932D01*
X142818059Y-102300742D01*
X142832065Y-102323825D01*
X142883634Y-102356521D01*
X142985075Y-102382188D01*
X143153454Y-102401650D01*
X143405835Y-102415730D01*
X143759284Y-102425248D01*
X144230867Y-102431029D01*
X144837647Y-102433894D01*
X145596691Y-102434666D01*
X146383506Y-102433216D01*
X147094878Y-102426745D01*
X147672068Y-102412649D01*
X148133392Y-102388332D01*
X148497168Y-102351199D01*
X148781712Y-102298655D01*
X149005340Y-102228104D01*
X149186369Y-102136951D01*
X149343116Y-102022601D01*
X149493897Y-101882459D01*
X149596680Y-101772739D01*
X149736890Y-101580583D01*
X149841192Y-101355660D01*
X149915894Y-101070667D01*
X149967306Y-100698304D01*
X150001739Y-100211267D01*
X150025503Y-99582255D01*
X150026707Y-99540401D01*
X150039199Y-99020630D01*
X150040829Y-98631937D01*
X150029014Y-98338732D01*
X150001166Y-98105425D01*
X149954701Y-97896425D01*
X149887034Y-97676142D01*
X149672059Y-97179172D01*
X149386527Y-96805195D01*
X149008124Y-96529940D01*
X149005424Y-96528471D01*
X148917114Y-96488692D01*
X148802079Y-96456285D01*
X148642494Y-96430297D01*
X148420532Y-96409775D01*
X148118369Y-96393766D01*
X147718176Y-96381317D01*
X147202130Y-96371475D01*
X146552402Y-96363286D01*
X145751167Y-96355797D01*
X142766667Y-96330595D01*
X140854118Y-96330595D01*
X140860941Y-96139084D01*
X140883635Y-95611891D01*
X140906761Y-95191388D01*
X140929969Y-94896304D01*
X140952913Y-94745367D01*
X140964873Y-94730839D01*
X141031232Y-94707252D01*
X141165573Y-94688297D01*
X141380561Y-94673726D01*
X141688862Y-94663289D01*
X142103144Y-94656737D01*
X142636072Y-94653822D01*
X143300313Y-94654294D01*
G37*
G36*
X165384844Y-94454310D02*
G01*
X165386845Y-94456459D01*
X165395981Y-94507566D01*
X165359379Y-94602192D01*
X165267964Y-94752600D01*
X165112665Y-94971056D01*
X164884405Y-95269825D01*
X164574112Y-95661172D01*
X164172712Y-96157360D01*
X163671130Y-96770656D01*
X163642507Y-96805478D01*
X163345495Y-97164254D01*
X163150903Y-97418066D01*
X163062573Y-97597372D01*
X163084344Y-97732626D01*
X163220056Y-97854286D01*
X163473550Y-97992808D01*
X163848667Y-98178647D01*
X164041459Y-98277170D01*
X164296641Y-98424657D01*
X164467619Y-98567240D01*
X164599524Y-98746912D01*
X164737487Y-99005666D01*
X164761456Y-99053886D01*
X164854538Y-99254118D01*
X164919676Y-99437962D01*
X164962912Y-99642558D01*
X164990288Y-99905050D01*
X165007848Y-100262576D01*
X165021632Y-100752280D01*
X165024845Y-101312111D01*
X164984324Y-102012661D01*
X164882655Y-102584027D01*
X164711703Y-103046068D01*
X164463336Y-103418643D01*
X164129419Y-103721614D01*
X163701819Y-103974838D01*
X163132900Y-104255000D01*
X158609035Y-104279685D01*
X158189369Y-104281686D01*
X157352633Y-104283892D01*
X156574937Y-104283594D01*
X155872036Y-104280935D01*
X155259686Y-104276063D01*
X154753641Y-104269123D01*
X154369657Y-104260261D01*
X154123489Y-104249622D01*
X154030893Y-104237352D01*
X154020760Y-104177098D01*
X154011050Y-103962406D01*
X154005410Y-103611540D01*
X154003517Y-103143419D01*
X154005051Y-102576966D01*
X154009688Y-101931101D01*
X154017107Y-101224745D01*
X154026985Y-100476821D01*
X154039002Y-99706248D01*
X154047737Y-99217333D01*
X156059334Y-99217333D01*
X156060630Y-100762500D01*
X156064197Y-101226031D01*
X156074414Y-101676207D01*
X156090010Y-102044454D01*
X156109725Y-102301639D01*
X156132297Y-102418629D01*
X156170862Y-102444923D01*
X156277194Y-102469844D01*
X156463489Y-102488534D01*
X156744635Y-102501414D01*
X157135521Y-102508908D01*
X157651035Y-102511438D01*
X158306066Y-102509427D01*
X159115501Y-102503296D01*
X159691330Y-102497767D01*
X160437691Y-102487927D01*
X161042846Y-102473660D01*
X161523762Y-102451911D01*
X161897409Y-102419627D01*
X162180755Y-102373756D01*
X162390770Y-102311243D01*
X162544422Y-102229037D01*
X162658680Y-102124083D01*
X162750513Y-101993329D01*
X162836890Y-101833722D01*
X162922402Y-101626149D01*
X163008455Y-101190622D01*
X163005828Y-100725359D01*
X162923120Y-100268918D01*
X162768925Y-99859855D01*
X162551842Y-99536729D01*
X162280466Y-99338096D01*
X162191208Y-99309705D01*
X162033216Y-99281539D01*
X161804529Y-99259380D01*
X161488712Y-99242617D01*
X161069326Y-99230641D01*
X160529934Y-99222841D01*
X159854100Y-99218608D01*
X159025386Y-99217333D01*
X156059334Y-99217333D01*
X154047737Y-99217333D01*
X154052835Y-98931948D01*
X154068161Y-98172843D01*
X154084660Y-97447854D01*
X154102008Y-96775901D01*
X154119885Y-96175906D01*
X154137967Y-95666790D01*
X154155933Y-95267474D01*
X154173462Y-94996880D01*
X154190230Y-94873929D01*
X154236039Y-94769585D01*
X154304049Y-94699152D01*
X154428141Y-94662109D01*
X154646064Y-94647741D01*
X154995566Y-94645333D01*
X155023018Y-94645298D01*
X155430307Y-94632274D01*
X155690479Y-94593849D01*
X155823162Y-94527220D01*
X155894136Y-94468398D01*
X155995834Y-94447550D01*
X156013113Y-94513664D01*
X156031556Y-94725530D01*
X156046198Y-95055272D01*
X156055852Y-95474728D01*
X156059334Y-95955739D01*
X156061158Y-96346713D01*
X156068151Y-96796892D01*
X156079460Y-97169641D01*
X156094097Y-97434326D01*
X156111074Y-97560316D01*
X156111247Y-97560765D01*
X156141373Y-97600710D01*
X156209217Y-97630783D01*
X156333569Y-97651614D01*
X156533217Y-97663835D01*
X156826952Y-97668076D01*
X157233563Y-97664968D01*
X157771840Y-97655144D01*
X158460574Y-97639234D01*
X158783097Y-97631281D01*
X159401769Y-97614728D01*
X159880926Y-97598670D01*
X160241236Y-97581193D01*
X160503371Y-97560382D01*
X160688000Y-97534321D01*
X160815793Y-97501096D01*
X160907421Y-97458792D01*
X160983553Y-97405493D01*
X160985841Y-97403663D01*
X161111161Y-97278925D01*
X161319320Y-97045605D01*
X161589681Y-96727937D01*
X161901606Y-96350157D01*
X162234457Y-95936500D01*
X163260141Y-94645333D01*
X164085898Y-94645333D01*
X164382281Y-94642006D01*
X164726279Y-94621560D01*
X164956667Y-94578566D01*
X165106963Y-94508535D01*
X165251050Y-94433467D01*
X165384844Y-94454310D01*
G37*
G36*
X128514016Y-90869275D02*
G01*
X129503207Y-90869275D01*
X129506482Y-91069538D01*
X129555876Y-91199844D01*
X129662209Y-91314694D01*
X129743387Y-91384565D01*
X129870214Y-91473630D01*
X130018910Y-91545264D01*
X130207910Y-91601703D01*
X130455644Y-91645184D01*
X130780547Y-91677943D01*
X131201051Y-91702219D01*
X131735590Y-91720248D01*
X132402595Y-91734266D01*
X133220500Y-91746511D01*
X135993334Y-91783823D01*
X135993334Y-91504311D01*
X135990147Y-91391866D01*
X135961250Y-91292034D01*
X135891734Y-91326400D01*
X135818844Y-91356700D01*
X135634574Y-91383807D01*
X135330257Y-91403950D01*
X134893590Y-91417671D01*
X134312267Y-91425507D01*
X133573984Y-91428000D01*
X133041602Y-91426602D01*
X132470485Y-91421849D01*
X131966567Y-91414215D01*
X131555382Y-91404207D01*
X131262463Y-91392334D01*
X131113342Y-91379102D01*
X131020805Y-91351693D01*
X130817412Y-91186781D01*
X130698209Y-90886704D01*
X130659334Y-90443501D01*
X130666190Y-90230715D01*
X130700431Y-90042890D01*
X130779826Y-89899443D01*
X130922100Y-89794949D01*
X131144974Y-89723986D01*
X131466170Y-89681130D01*
X131903411Y-89660959D01*
X132474418Y-89658048D01*
X133196916Y-89666976D01*
X133347035Y-89669433D01*
X133859429Y-89679029D01*
X134232598Y-89690338D01*
X134490697Y-89706494D01*
X134657880Y-89730636D01*
X134758301Y-89765898D01*
X134816114Y-89815418D01*
X134855473Y-89882331D01*
X134935097Y-89992954D01*
X135014178Y-90009331D01*
X135049935Y-90023511D01*
X135048954Y-90158000D01*
X135019667Y-90369666D01*
X133792000Y-90390223D01*
X133249518Y-90401932D01*
X132813169Y-90419152D01*
X132508072Y-90443503D01*
X132314531Y-90477346D01*
X132212850Y-90523041D01*
X132183334Y-90582946D01*
X132183487Y-90584257D01*
X132273184Y-90612362D01*
X132520266Y-90635085D01*
X132913340Y-90651929D01*
X133441014Y-90662400D01*
X134091895Y-90666000D01*
X136000456Y-90666000D01*
X135975728Y-90009833D01*
X135970283Y-89865360D01*
X136873206Y-89865360D01*
X136881854Y-89968913D01*
X137001177Y-90102972D01*
X137027258Y-90128153D01*
X137093189Y-90178290D01*
X137182428Y-90217273D01*
X137315832Y-90247075D01*
X137514260Y-90269665D01*
X137798570Y-90287014D01*
X138189619Y-90301095D01*
X138708265Y-90313878D01*
X139375366Y-90327333D01*
X139909387Y-90339158D01*
X140452087Y-90354579D01*
X140917353Y-90371438D01*
X141282214Y-90388776D01*
X141523699Y-90405632D01*
X141618839Y-90421048D01*
X141622110Y-90424552D01*
X141636406Y-90549074D01*
X141555066Y-90708835D01*
X141412339Y-90835152D01*
X141329902Y-90852564D01*
X141092180Y-90873516D01*
X140729182Y-90891977D01*
X140265684Y-90906995D01*
X139726465Y-90917612D01*
X139136299Y-90922876D01*
X139013034Y-90923369D01*
X138372794Y-90927543D01*
X137880732Y-90934632D01*
X137518741Y-90945740D01*
X137268714Y-90961969D01*
X137112542Y-90984422D01*
X137032118Y-91014201D01*
X137009334Y-91052409D01*
X137013348Y-91069864D01*
X137058028Y-91103148D01*
X137166410Y-91128725D01*
X137356098Y-91147537D01*
X137644695Y-91160529D01*
X138049803Y-91168641D01*
X138589026Y-91172817D01*
X139279966Y-91174000D01*
X139280291Y-91174000D01*
X140108413Y-91169852D01*
X140783358Y-91156028D01*
X141321106Y-91130447D01*
X141737639Y-91091029D01*
X142048935Y-91035694D01*
X142270976Y-90962362D01*
X142419741Y-90868952D01*
X142511212Y-90753385D01*
X142520508Y-90732034D01*
X142559554Y-90544525D01*
X142586980Y-90252560D01*
X142597334Y-89909566D01*
X142597017Y-89844816D01*
X142583931Y-89522570D01*
X142560986Y-89353666D01*
X143554128Y-89353666D01*
X143562564Y-90068877D01*
X143571000Y-90784088D01*
X143867334Y-90957877D01*
X143942103Y-90998548D01*
X144035636Y-91036559D01*
X144155698Y-91067019D01*
X144320138Y-91090986D01*
X144546807Y-91109518D01*
X144853556Y-91123674D01*
X145258234Y-91134511D01*
X145778693Y-91143087D01*
X146432781Y-91150461D01*
X147238350Y-91157691D01*
X147518348Y-91160027D01*
X148441319Y-91165986D01*
X149212356Y-91164708D01*
X149845122Y-91152037D01*
X150353278Y-91123820D01*
X150750487Y-91075902D01*
X151050410Y-91004128D01*
X151266709Y-90904345D01*
X151413045Y-90772398D01*
X151503081Y-90604132D01*
X151550477Y-90395394D01*
X151560041Y-90263833D01*
X152429812Y-90263833D01*
X152452057Y-90565971D01*
X152566630Y-90804590D01*
X152799676Y-90967053D01*
X153175903Y-91080402D01*
X153275029Y-91096639D01*
X153578548Y-91124290D01*
X153996825Y-91145629D01*
X154498309Y-91160624D01*
X155051448Y-91169242D01*
X155624691Y-91171448D01*
X156186487Y-91167211D01*
X156705285Y-91156496D01*
X157149532Y-91139271D01*
X157487678Y-91115502D01*
X157688171Y-91085156D01*
X157956755Y-90965143D01*
X158124460Y-90750085D01*
X158176000Y-90422563D01*
X158168955Y-90322412D01*
X158122622Y-90163019D01*
X158055144Y-90090643D01*
X157992732Y-90144985D01*
X157914265Y-90161935D01*
X157687452Y-90175500D01*
X157334978Y-90184061D01*
X156879370Y-90187302D01*
X156343158Y-90184904D01*
X155748870Y-90176552D01*
X155265417Y-90167428D01*
X154703863Y-90155563D01*
X154279690Y-90143456D01*
X153974096Y-90129262D01*
X153768277Y-90111137D01*
X153643433Y-90087236D01*
X153580760Y-90055713D01*
X153561457Y-90014723D01*
X153566721Y-89962422D01*
X153599124Y-89854645D01*
X153690767Y-89698548D01*
X153694020Y-89695832D01*
X153825025Y-89663673D01*
X154117645Y-89635872D01*
X154564768Y-89612803D01*
X155159284Y-89594841D01*
X155894082Y-89582361D01*
X156110801Y-89579731D01*
X156714551Y-89571486D01*
X157174472Y-89562407D01*
X157510084Y-89550734D01*
X157740905Y-89534708D01*
X157886454Y-89512567D01*
X157966252Y-89482553D01*
X157999816Y-89442904D01*
X158001039Y-89433793D01*
X159020733Y-89433793D01*
X159050002Y-89478342D01*
X159196281Y-89512629D01*
X159470021Y-89537702D01*
X159881671Y-89554614D01*
X160441681Y-89564413D01*
X161160500Y-89568150D01*
X161234464Y-89568253D01*
X161878600Y-89570024D01*
X162376895Y-89574252D01*
X162750684Y-89582485D01*
X163021303Y-89596273D01*
X163210088Y-89617165D01*
X163338376Y-89646711D01*
X163427503Y-89686460D01*
X163498804Y-89737961D01*
X163575584Y-89806512D01*
X163645270Y-89920963D01*
X163594270Y-90031478D01*
X163542336Y-90071124D01*
X163427464Y-90107161D01*
X163233887Y-90132266D01*
X162938959Y-90148211D01*
X162520034Y-90156766D01*
X161954467Y-90159702D01*
X161659706Y-90160813D01*
X160927211Y-90173034D01*
X160342733Y-90200116D01*
X159890827Y-90243921D01*
X159556045Y-90306308D01*
X159322938Y-90389138D01*
X159176061Y-90494270D01*
X159072345Y-90651706D01*
X159039155Y-90816755D01*
X159047908Y-90850373D01*
X159104436Y-90939009D01*
X159218606Y-91009920D01*
X159406366Y-91065000D01*
X159683662Y-91106143D01*
X160066443Y-91135243D01*
X160570656Y-91154193D01*
X161212248Y-91164888D01*
X162007167Y-91169221D01*
X164356667Y-91174000D01*
X164356667Y-90987733D01*
X164356406Y-90962575D01*
X164332542Y-90859380D01*
X164255067Y-90903066D01*
X164162698Y-90939957D01*
X163947412Y-90969177D01*
X163599251Y-90989095D01*
X163106114Y-91000389D01*
X162455900Y-91003735D01*
X162392571Y-91003690D01*
X161717807Y-91001197D01*
X161191841Y-90993366D01*
X160795735Y-90977721D01*
X160510546Y-90951784D01*
X160317336Y-90913076D01*
X160197163Y-90859121D01*
X160131087Y-90787440D01*
X160100169Y-90695556D01*
X160098845Y-90550477D01*
X160213602Y-90409002D01*
X160236808Y-90401082D01*
X160412334Y-90377495D01*
X160721912Y-90357215D01*
X161138705Y-90341355D01*
X161635876Y-90331024D01*
X162186589Y-90327333D01*
X162364864Y-90326951D01*
X162904026Y-90321081D01*
X163387407Y-90308997D01*
X163786622Y-90291825D01*
X164073284Y-90270690D01*
X164219007Y-90246719D01*
X164293843Y-90211485D01*
X164473380Y-90050648D01*
X164573572Y-89844551D01*
X164588223Y-89637893D01*
X164511140Y-89475372D01*
X164336125Y-89401689D01*
X164253537Y-89397300D01*
X163966240Y-89387364D01*
X163568863Y-89378115D01*
X163086804Y-89369737D01*
X162545463Y-89362415D01*
X161970240Y-89356332D01*
X161386533Y-89351673D01*
X160819742Y-89348621D01*
X160295266Y-89347362D01*
X159838505Y-89348079D01*
X159474857Y-89350956D01*
X159229722Y-89356178D01*
X159128500Y-89363929D01*
X159098026Y-89377931D01*
X159020733Y-89433793D01*
X158001039Y-89433793D01*
X158006667Y-89391861D01*
X158002760Y-89299259D01*
X157985500Y-89241485D01*
X157982970Y-89242093D01*
X157873831Y-89248431D01*
X157620170Y-89257937D01*
X157243654Y-89269949D01*
X156765953Y-89283808D01*
X156208734Y-89298852D01*
X155593667Y-89314420D01*
X155529862Y-89316007D01*
X154909348Y-89333823D01*
X154340622Y-89354286D01*
X153847188Y-89376239D01*
X153452549Y-89398526D01*
X153180207Y-89419989D01*
X153053667Y-89439471D01*
X152828861Y-89557849D01*
X152641998Y-89782036D01*
X152576855Y-90107622D01*
X152565709Y-90454333D01*
X152503334Y-90158000D01*
X152474130Y-90023513D01*
X152450047Y-89953464D01*
X152437932Y-90029744D01*
X152429812Y-90263833D01*
X151560041Y-90263833D01*
X151568896Y-90142029D01*
X151572000Y-89839881D01*
X151567521Y-89498863D01*
X151550777Y-89287249D01*
X151517770Y-89198915D01*
X151464506Y-89210478D01*
X151424544Y-89234110D01*
X151233458Y-89291172D01*
X150977672Y-89326679D01*
X150598334Y-89353666D01*
X150575414Y-89988666D01*
X150561960Y-90260469D01*
X150523936Y-90529321D01*
X150440074Y-90713055D01*
X150285686Y-90827832D01*
X150036083Y-90889809D01*
X149666579Y-90915145D01*
X149152485Y-90920000D01*
X148106396Y-90920000D01*
X148079180Y-90009833D01*
X148068559Y-89699250D01*
X148055576Y-89414371D01*
X148043500Y-89239991D01*
X148033982Y-89205500D01*
X148022352Y-89230274D01*
X147880740Y-89290474D01*
X147592667Y-89311333D01*
X147169334Y-89311333D01*
X147169334Y-89981742D01*
X147169655Y-90152042D01*
X147164430Y-90490198D01*
X147128440Y-90711147D01*
X147034000Y-90839687D01*
X146853422Y-90900617D01*
X146559021Y-90918736D01*
X146123108Y-90918844D01*
X145801283Y-90915884D01*
X145439252Y-90905962D01*
X145161402Y-90890793D01*
X145010305Y-90872163D01*
X144937726Y-90842733D01*
X144767347Y-90652650D01*
X144664106Y-90311619D01*
X144638164Y-89946333D01*
X147027783Y-89946333D01*
X147028136Y-90018669D01*
X147034181Y-90227190D01*
X147046090Y-90299727D01*
X147061790Y-90219611D01*
X147062932Y-90208297D01*
X147075321Y-89906927D01*
X147061107Y-89626945D01*
X147057205Y-89599470D01*
X147042014Y-89576906D01*
X147031513Y-89699175D01*
X147027783Y-89946333D01*
X144638164Y-89946333D01*
X144629449Y-89823620D01*
X144629564Y-89269000D01*
X144163782Y-89298002D01*
X143698000Y-89327005D01*
X143683387Y-89890669D01*
X143668773Y-90454333D01*
X143611450Y-89904000D01*
X143554128Y-89353666D01*
X142560986Y-89353666D01*
X142554502Y-89305935D01*
X142512667Y-89226666D01*
X142493010Y-89228405D01*
X142427975Y-89290166D01*
X142423538Y-89294007D01*
X142306437Y-89309939D01*
X142046007Y-89324210D01*
X141663389Y-89336270D01*
X141179723Y-89345567D01*
X140616149Y-89351550D01*
X139993808Y-89353666D01*
X139883817Y-89353731D01*
X139254744Y-89356601D01*
X138676699Y-89363318D01*
X138173341Y-89373313D01*
X137768332Y-89386017D01*
X137485331Y-89400862D01*
X137348000Y-89417278D01*
X137159030Y-89521461D01*
X136977824Y-89700916D01*
X136970513Y-89711071D01*
X136873206Y-89865360D01*
X135970283Y-89865360D01*
X135951000Y-89353666D01*
X133622667Y-89340395D01*
X133250250Y-89338481D01*
X132390095Y-89337598D01*
X131678733Y-89346358D01*
X131101338Y-89369421D01*
X130643084Y-89411444D01*
X130289144Y-89477089D01*
X130024694Y-89571014D01*
X129834907Y-89697878D01*
X129704957Y-89862342D01*
X129620020Y-90069064D01*
X129565268Y-90322705D01*
X129525877Y-90627922D01*
X129503207Y-90869275D01*
X128514016Y-90869275D01*
X128497916Y-90297085D01*
X128436727Y-87853837D01*
X128627299Y-87914322D01*
X128753204Y-87937867D01*
X128760059Y-87881264D01*
X128760564Y-87878947D01*
X128824628Y-87867570D01*
X128994418Y-87856908D01*
X129273908Y-87846935D01*
X129667074Y-87837626D01*
X130177893Y-87828955D01*
X130810338Y-87820898D01*
X131568386Y-87813428D01*
X132456012Y-87806522D01*
X133477192Y-87800152D01*
X134635901Y-87794295D01*
X135936115Y-87788924D01*
X137381809Y-87784015D01*
X138976959Y-87779541D01*
X140725539Y-87775478D01*
X142631527Y-87771801D01*
X144698896Y-87768484D01*
X146931623Y-87765501D01*
X146994654Y-87765424D01*
X148739266Y-87763308D01*
X150439296Y-87761263D01*
X152086948Y-87759299D01*
X153674424Y-87757424D01*
X155193927Y-87755647D01*
X156637660Y-87753977D01*
X157997827Y-87752423D01*
X159266631Y-87750992D01*
X160436273Y-87749693D01*
X161498959Y-87748536D01*
X162446889Y-87747529D01*
X163272269Y-87746681D01*
X163967300Y-87745999D01*
X164524185Y-87745494D01*
X164935128Y-87745173D01*
X165192332Y-87745046D01*
X165288000Y-87745120D01*
X165313878Y-87751230D01*
X165358973Y-87808945D01*
X165394773Y-87946030D01*
X165424550Y-88184966D01*
X165451577Y-88548234D01*
X165479124Y-89058312D01*
X165481025Y-89097920D01*
X165503361Y-89700187D01*
X165518422Y-90370088D01*
X165524892Y-91028759D01*
X165521457Y-91597333D01*
X165499667Y-92825000D01*
X147089092Y-92846359D01*
X146863663Y-92846615D01*
X145115149Y-92848282D01*
X143412446Y-92849339D01*
X141763272Y-92849803D01*
X140175349Y-92849693D01*
X138656396Y-92849026D01*
X137214134Y-92847820D01*
X135856283Y-92846092D01*
X134590563Y-92843861D01*
X133424694Y-92841143D01*
X132366396Y-92837957D01*
X131423390Y-92834320D01*
X130603396Y-92830250D01*
X129914135Y-92825765D01*
X129363325Y-92820883D01*
X128958688Y-92815620D01*
X128707943Y-92809995D01*
X128618811Y-92804025D01*
X128615183Y-92796032D01*
X128597256Y-92663194D01*
X128577278Y-92387783D01*
X128556303Y-91991632D01*
X128535382Y-91496575D01*
X128515568Y-90924449D01*
X128514016Y-90869275D01*
G37*
D12*
%TO.C,B5*%
X190000000Y-89250000D02*
G75*
G03*
X190000000Y-89250000I-3250000J0D01*
G01*
%TO.C,B6*%
X202000000Y-89250000D02*
G75*
G03*
X202000000Y-89250000I-3250000J0D01*
G01*
%TD*%
M02*
