M48
; DRILL file {KiCad (7.0.0)} date Sun Mar 12 01:47:20 2023
; FORMAT={-:-/ absolute / inch / decimal}
; #@! TF.CreationDate,2023-03-12T01:47:20+01:00
; #@! TF.GenerationSoftware,Kicad,Pcbnew,(7.0.0)
; #@! TF.FileFunction,Plated,1,4,PTH
FMAT,2
INCH
; #@! TA.AperFunction,Plated,PTH,ComponentDrill
T1C0.0236
; #@! TA.AperFunction,Plated,PTH,ComponentDrill
T2C0.0315
; #@! TA.AperFunction,Plated,PTH,ComponentDrill
T3C0.0709
; #@! TA.AperFunction,Plated,PTH,ComponentDrill
T4C0.0787
%
G90
G05
T2
X7.7618Y-3.9557
X7.7618Y-4.253
X7.9272Y-4.8219
X7.9272Y-5.0089
T3
X7.9232Y-3.8425
X7.9232Y-4.3661
T4
X3.878Y-3.189
X3.9272Y-3.9469
X4.6358Y-3.9075
X4.7933Y-3.2874
X7.0413Y-3.3169
X7.0413Y-3.8287
X7.122Y-5.1969
X7.7854Y-3.2106
T1
G00X7.7106Y-3.9104
M15
G01X7.7618Y-3.9104
M16
G05
G00X7.7106Y-4.2982
M15
G01X7.7618Y-4.2982
M16
G05
G00X8.0217Y-3.874
M15
G01X8.061Y-3.874
M16
G05
G00X8.0217Y-4.3346
M15
G01X8.061Y-4.3346
M16
G05
T0
M30
