%TF.GenerationSoftware,KiCad,Pcbnew,(7.0.0)*%
%TF.CreationDate,2023-03-12T01:47:04+01:00*%
%TF.ProjectId,g&w,6726772e-6b69-4636-9164-5f7063625858,rev?*%
%TF.SameCoordinates,Original*%
%TF.FileFunction,Soldermask,Top*%
%TF.FilePolarity,Negative*%
%FSLAX46Y46*%
G04 Gerber Fmt 4.6, Leading zero omitted, Abs format (unit mm)*
G04 Created by KiCad (PCBNEW (7.0.0)) date 2023-03-12 01:47:04*
%MOMM*%
%LPD*%
G01*
G04 APERTURE LIST*
G04 Aperture macros list*
%AMRoundRect*
0 Rectangle with rounded corners*
0 $1 Rounding radius*
0 $2 $3 $4 $5 $6 $7 $8 $9 X,Y pos of 4 corners*
0 Add a 4 corners polygon primitive as box body*
4,1,4,$2,$3,$4,$5,$6,$7,$8,$9,$2,$3,0*
0 Add four circle primitives for the rounded corners*
1,1,$1+$1,$2,$3*
1,1,$1+$1,$4,$5*
1,1,$1+$1,$6,$7*
1,1,$1+$1,$8,$9*
0 Add four rect primitives between the rounded corners*
20,1,$1+$1,$2,$3,$4,$5,0*
20,1,$1+$1,$4,$5,$6,$7,0*
20,1,$1+$1,$6,$7,$8,$9,0*
20,1,$1+$1,$8,$9,$2,$3,0*%
%AMHorizOval*
0 Thick line with rounded ends*
0 $1 width*
0 $2 $3 position (X,Y) of the first rounded end (center of the circle)*
0 $4 $5 position (X,Y) of the second rounded end (center of the circle)*
0 Add line between two ends*
20,1,$1,$2,$3,$4,$5,0*
0 Add two circle primitives to create the rounded ends*
1,1,$1,$2,$3*
1,1,$1,$4,$5*%
%AMFreePoly0*
4,1,301,1.197022,1.773500,1.197048,1.773487,1.197075,1.773494,1.243076,1.766494,1.243095,1.766482,1.243119,1.766486,1.288119,1.755486,1.288142,1.755468,1.288171,1.755470,1.332171,1.739470,1.332188,1.739453,1.332211,1.739453,1.375211,1.719453,1.375229,1.719433,1.375257,1.719429,1.415258,1.695429,1.415274,1.695406,1.415300,1.695400,1.451300,1.668400,1.451311,1.668381,
1.451332,1.668374,1.487332,1.636374,1.487345,1.636345,1.487374,1.636332,1.518375,1.601331,1.518381,1.601312,1.518399,1.601302,1.546398,1.564302,1.546405,1.564274,1.546429,1.564257,1.570429,1.524257,1.570433,1.524229,1.570453,1.524211,1.590454,1.481211,1.590455,1.481183,1.590472,1.481165,1.605472,1.438165,1.605470,1.438144,1.605483,1.438129,1.617483,1.393128,
1.617478,1.393095,1.617495,1.393068,1.620494,1.371079,1.624494,1.346079,1.624486,1.346048,1.624500,1.346019,1.625500,1.319018,1.626499,1.301027,1.626494,1.301013,1.626500,1.301000,1.626500,-0.450000,1.626437,-0.450151,1.626387,-0.450318,1.626363,-0.450330,1.626354,-0.450354,1.626200,-0.450417,1.626049,-0.450498,1.625949,-0.450507,1.626000,-0.475000,1.625906,-0.475348,
1.625902,-0.475433,1.625878,-0.475454,1.605904,-0.550000,1.551000,-0.604904,1.476000,-0.625000,-0.350000,-0.625000,-0.425000,-0.604904,-0.479904,-0.550000,-0.500000,-0.475000,-0.498739,-0.470295,-0.500248,-0.469434,-0.500289,-0.469380,-0.500354,-0.469354,-0.500403,-0.469234,-0.500483,-0.469132,-0.500474,-0.469062,-0.500500,-0.469000,-0.500500,-0.005000,-0.500496,-0.004990,-0.500500,-0.004980,
-0.500304,0.000019,0.851500,0.000019,0.852499,-0.026957,0.856493,-0.056911,0.863478,-0.084852,0.873461,-0.112804,0.886443,-0.140766,0.901417,-0.165724,0.918386,-0.188682,0.936354,-0.208646,0.943341,-0.215634,0.945652,-0.217689,0.949231,-0.219556,0.949264,-0.219596,0.949314,-0.219611,0.975315,-0.240611,0.975336,-0.240649,0.975375,-0.240669,0.978673,-0.244406,0.980287,-0.245590,
0.990260,-0.252572,1.009237,-0.263559,1.029206,-0.273544,1.039179,-0.277533,1.064146,-0.286521,1.091103,-0.293510,1.123044,-0.298500,1.148529,-0.299481,1.176957,-0.298500,1.204905,-0.294508,1.236853,-0.286521,1.264809,-0.276537,1.290763,-0.264558,1.315721,-0.249584,1.339682,-0.231612,1.361645,-0.211647,1.380617,-0.190676,1.398585,-0.166719,1.414558,-0.140764,1.426540,-0.114802,
1.435522,-0.089851,1.439513,-0.075881,1.444509,-0.053900,1.447502,-0.034943,1.449500,-0.002985,1.449500,1.300981,1.448500,1.327957,1.444509,1.353901,1.438518,1.382859,1.427540,1.411803,1.415552,1.439773,1.401582,1.462724,1.384608,1.486687,1.362637,1.510655,1.340676,1.531617,1.318728,1.547579,1.290773,1.564553,1.265798,1.575542,1.237850,1.586521,1.208901,1.593509,
1.175959,1.598500,1.151460,1.599480,1.123047,1.598501,1.096090,1.594507,1.067144,1.587520,1.038182,1.577533,1.010230,1.564554,0.985272,1.549580,0.963316,1.533612,0.953343,1.524636,0.936348,1.508641,0.923383,1.494678,0.912394,1.480692,0.904416,1.469723,0.900427,1.463739,0.889435,1.445752,0.883451,1.433785,0.873465,1.412814,0.864480,1.387860,0.857491,1.358904,
0.852498,1.329948,0.851500,1.302981,0.851500,0.000019,-0.500304,0.000019,-0.498500,0.046019,-0.498488,0.046043,-0.498495,0.046068,-0.494495,0.075069,-0.494487,0.075081,-0.494491,0.075096,-0.484491,0.126096,-0.484474,0.126120,-0.484477,0.126149,-0.470478,0.171148,-0.470462,0.171166,-0.470463,0.171189,-0.452463,0.215189,-0.452443,0.215208,-0.452441,0.215235,-0.428441,0.260235,
-0.428421,0.260251,-0.428416,0.260277,-0.422416,0.269278,-0.422411,0.269281,-0.422410,0.269287,-0.401409,0.299287,-0.401392,0.299297,-0.401387,0.299316,-0.370387,0.337316,-0.370364,0.337327,-0.370354,0.337354,-0.340354,0.367353,-0.340335,0.367360,-0.340327,0.367378,-0.303327,0.399378,-0.303295,0.399388,-0.303277,0.399416,-0.258278,0.429416,-0.258252,0.429421,-0.258237,0.429440,
-0.206237,0.457440,-0.206202,0.457443,-0.206176,0.457468,-0.158176,0.475468,-0.158152,0.475467,-0.158135,0.475481,-0.101135,0.491481,-0.101100,0.491476,-0.101067,0.491496,-0.049067,0.498496,-0.049051,0.498491,-0.049038,0.498499,-0.010039,0.501499,-0.010014,0.501490,-0.009991,0.501500,0.047967,0.500500,0.088928,0.506494,0.122888,0.512487,0.178851,0.527477,0.214830,0.540470,
0.214833,0.540469,0.214837,0.540473,0.243812,0.550464,0.298766,0.576443,0.347733,0.605423,0.390705,0.635404,0.416680,0.654385,0.456647,0.690354,0.486635,0.722342,0.509622,0.747328,0.520597,0.761297,0.538597,0.786297,0.552581,0.805274,0.578565,0.848247,0.590552,0.870222,0.616541,0.925199,0.638522,0.984151,0.645516,1.012124,0.656508,1.055095,0.663505,1.105070,
0.663508,1.105076,0.663507,1.105084,0.669849,1.142506,0.672503,1.165058,0.674500,1.199014,0.674500,1.300000,0.674504,1.300010,0.674500,1.300022,0.676500,1.345022,0.676511,1.345047,0.676505,1.345074,0.683505,1.392073,0.683517,1.392094,0.683514,1.392119,0.694514,1.437119,0.694531,1.437142,0.694530,1.437171,0.710530,1.481171,0.710545,1.481187,0.710546,1.481210,
0.729546,1.522210,0.729566,1.522228,0.729570,1.522256,0.754570,1.564255,0.754592,1.564272,0.754600,1.564300,0.781600,1.600300,0.781618,1.600311,0.781626,1.600332,0.812626,1.635332,0.812651,1.635344,0.812663,1.635369,0.847663,1.667369,0.847687,1.667378,0.847703,1.667403,0.885704,1.695403,0.885728,1.695408,0.885743,1.695429,0.925743,1.719429,0.925768,1.719432,
0.925785,1.719451,0.967785,1.739452,0.967814,1.739453,0.967835,1.739472,1.010835,1.754472,1.010856,1.754470,1.010874,1.754484,1.056873,1.766484,1.056901,1.766480,1.056926,1.766495,1.103926,1.773494,1.103951,1.773487,1.103978,1.773500,1.148977,1.775499,1.148997,1.775491,1.149021,1.775500,1.149520,1.775478,1.149977,1.775499,1.149997,1.775491,1.150021,1.775500,
1.197022,1.773500,1.197022,1.773500,$1*%
%AMFreePoly1*
4,1,301,-1.103978,1.773500,-1.103952,1.773488,-1.103926,1.773495,-1.056927,1.766495,-1.056902,1.766480,-1.056874,1.766484,-1.010874,1.754484,-1.010856,1.754470,-1.010835,1.754472,-0.967835,1.739472,-0.967813,1.739452,-0.967785,1.739451,-0.925785,1.719451,-0.925768,1.719432,-0.925743,1.719429,-0.885742,1.695429,-0.885727,1.695408,-0.885703,1.695403,-0.847703,1.667402,-0.847688,1.667378,
-0.847663,1.667369,-0.812662,1.635369,-0.812650,1.635343,-0.812626,1.635332,-0.781625,1.600331,-0.781617,1.600310,-0.781600,1.600300,-0.754600,1.564300,-0.754593,1.564273,-0.754570,1.564256,-0.729571,1.522256,-0.729567,1.522229,-0.729546,1.522210,-0.710547,1.481211,-0.710546,1.481188,-0.710530,1.481171,-0.694530,1.437171,-0.694531,1.437142,-0.694514,1.437119,-0.683514,1.392119,
-0.683517,1.392095,-0.683505,1.392074,-0.676506,1.345074,-0.676512,1.345048,-0.676500,1.345022,-0.674501,1.300023,-0.674504,1.300012,-0.674500,1.300000,-0.674500,1.199014,-0.672503,1.165058,-0.669849,1.142506,-0.663507,1.105084,-0.663508,1.105075,-0.663505,1.105069,-0.656508,1.055095,-0.645515,1.012121,-0.638521,0.984146,-0.616541,0.925199,-0.590552,0.870222,-0.578572,0.848259,
-0.552585,0.805281,-0.538594,0.786292,-0.520597,0.761297,-0.509622,0.747328,-0.486635,0.722342,-0.456653,0.690361,-0.416686,0.654390,-0.390705,0.635404,-0.347729,0.605420,-0.298766,0.576443,-0.243812,0.550464,-0.214837,0.540473,-0.214833,0.540469,-0.214830,0.540470,-0.178851,0.527477,-0.122888,0.512487,-0.088928,0.506495,-0.047966,0.500500,0.009992,0.501500,0.010014,0.501491,
0.010038,0.501499,0.049038,0.498499,0.049051,0.498491,0.049067,0.498496,0.101067,0.491496,0.101100,0.491476,0.101135,0.491481,0.158135,0.475481,0.158152,0.475467,0.158176,0.475468,0.206176,0.457468,0.206202,0.457443,0.206237,0.457440,0.258237,0.429440,0.258252,0.429420,0.258277,0.429416,0.303277,0.399416,0.303295,0.399388,0.303327,0.399378,0.340327,0.367378,
0.340335,0.367361,0.340354,0.367354,0.370353,0.337354,0.370363,0.337328,0.370387,0.337316,0.401388,0.299316,0.401393,0.299297,0.401410,0.299287,0.422410,0.269286,0.422411,0.269280,0.422416,0.269277,0.428416,0.260277,0.428421,0.260251,0.428441,0.260235,0.452441,0.215235,0.452443,0.215208,0.452463,0.215189,0.470463,0.171190,0.470462,0.171165,0.470477,0.171149,
0.484477,0.126149,0.484474,0.126120,0.484491,0.126096,0.494491,0.075096,0.494487,0.075080,0.494495,0.075068,0.498495,0.046068,0.498488,0.046044,0.498500,0.046020,0.500500,-0.004980,0.500496,-0.004990,0.500500,-0.005000,0.500500,-0.469000,0.500474,-0.469062,0.500483,-0.469132,0.500403,-0.469234,0.500354,-0.469354,0.500289,-0.469380,0.500248,-0.469434,0.498739,-0.470295,
0.500000,-0.475000,0.479904,-0.550000,0.425000,-0.604904,0.350000,-0.625000,-1.476000,-0.625000,-1.551000,-0.604904,-1.605904,-0.550000,-1.625878,-0.475453,-1.625901,-0.475433,-1.625905,-0.475353,-1.626000,-0.474998,-1.625949,-0.450507,-1.626048,-0.450498,-1.626198,-0.450418,-1.626354,-0.450354,-1.626363,-0.450330,-1.626387,-0.450318,-1.626437,-0.450151,-1.626500,-0.450000,-1.626500,-0.002985,
-1.449500,-0.002985,-1.447502,-0.034944,-1.444509,-0.053900,-1.439513,-0.075881,-1.435519,-0.089859,-1.426535,-0.114812,-1.414559,-0.140761,-1.398585,-0.166719,-1.380612,-0.190682,-1.361645,-0.211647,-1.339682,-0.231612,-1.315721,-0.249584,-1.290766,-0.264556,-1.264809,-0.276537,-1.236853,-0.286521,-1.204905,-0.294508,-1.176959,-0.298500,-1.148529,-0.299481,-1.123044,-0.298500,-1.091100,-0.293509,
-1.064143,-0.286520,-1.039168,-0.277529,-1.029205,-0.273543,-1.009250,-0.263566,-0.990277,-0.252583,-0.980286,-0.245590,-0.978673,-0.244406,-0.975375,-0.240669,-0.975335,-0.240649,-0.975314,-0.240611,-0.949314,-0.219611,-0.949264,-0.219596,-0.949231,-0.219557,-0.945655,-0.217691,-0.943349,-0.215641,-0.936362,-0.208655,-0.918386,-0.188682,-0.901417,-0.165724,-0.886445,-0.140769,-0.873464,-0.112813,
-0.863478,-0.084853,-0.856492,-0.056908,-0.852499,-0.026957,-0.851500,0.000019,-0.851500,1.302981,-0.852498,1.329948,-0.857491,1.358904,-0.864479,1.387857,-0.873457,1.412797,-0.883451,1.433785,-0.889435,1.445752,-0.900427,1.463739,-0.904405,1.469706,-0.912394,1.480692,-0.923383,1.494678,-0.936348,1.508641,-0.953343,1.524636,-0.963317,1.533612,-0.985272,1.549580,-1.010233,1.564556,
-1.038190,1.577536,-1.067144,1.587520,-1.096090,1.594507,-1.123046,1.598501,-1.151460,1.599480,-1.175959,1.598500,-1.208901,1.593509,-1.237850,1.586521,-1.265799,1.575542,-1.290770,1.564554,-1.318720,1.547585,-1.340676,1.531617,-1.362637,1.510655,-1.384612,1.486682,-1.401582,1.462724,-1.415552,1.439773,-1.427540,1.411802,-1.438516,1.382865,-1.444509,1.353901,-1.448500,1.327956,
-1.449500,1.300981,-1.449500,-0.002985,-1.626500,-0.002985,-1.626500,1.301000,-1.626494,1.301014,-1.626499,1.301028,-1.625500,1.319019,-1.624500,1.346019,-1.624486,1.346048,-1.624494,1.346079,-1.620493,1.371080,-1.617495,1.393068,-1.617478,1.393096,-1.617483,1.393129,-1.605483,1.438129,-1.605470,1.438144,-1.605472,1.438165,-1.590472,1.481165,-1.590454,1.481185,-1.590453,1.481211,
-1.570453,1.524211,-1.570433,1.524229,-1.570429,1.524257,-1.546429,1.564258,-1.546406,1.564274,-1.546399,1.564302,-1.518399,1.601301,-1.518381,1.601311,-1.518374,1.601332,-1.487374,1.636332,-1.487345,1.636345,-1.487332,1.636374,-1.451332,1.668373,-1.451311,1.668380,-1.451300,1.668400,-1.415300,1.695400,-1.415273,1.695406,-1.415257,1.695429,-1.375257,1.719429,-1.375229,1.719433,
-1.375211,1.719453,-1.332211,1.739454,-1.332187,1.739454,-1.332171,1.739470,-1.288171,1.755470,-1.288142,1.755468,-1.288119,1.755486,-1.243119,1.766486,-1.243094,1.766482,-1.243075,1.766494,-1.197075,1.773494,-1.197048,1.773487,-1.197021,1.773500,-1.150021,1.775500,-1.149999,1.775492,-1.149978,1.775500,-1.149509,1.775479,-1.149021,1.775500,-1.148999,1.775492,-1.148978,1.775500,
-1.103978,1.773500,-1.103978,1.773500,$1*%
G04 Aperture macros list end*
%ADD10RoundRect,0.100000X-0.130000X-0.100000X0.130000X-0.100000X0.130000X0.100000X-0.130000X0.100000X0*%
%ADD11RoundRect,0.500000X0.500000X-1.500000X0.500000X1.500000X-0.500000X1.500000X-0.500000X-1.500000X0*%
%ADD12R,0.250000X0.800000*%
%ADD13R,0.250000X0.650000*%
%ADD14R,0.400000X0.850000*%
%ADD15R,0.300000X0.700000*%
%ADD16R,0.300000X1.000000*%
%ADD17RoundRect,0.150000X-0.275000X0.150000X-0.275000X-0.150000X0.275000X-0.150000X0.275000X0.150000X0*%
%ADD18RoundRect,0.175000X-0.225000X0.175000X-0.225000X-0.175000X0.225000X-0.175000X0.225000X0.175000X0*%
%ADD19R,0.800000X0.900000*%
%ADD20RoundRect,0.100000X-0.100000X0.130000X-0.100000X-0.130000X0.100000X-0.130000X0.100000X0.130000X0*%
%ADD21RoundRect,0.100000X0.100000X-0.130000X0.100000X0.130000X-0.100000X0.130000X-0.100000X-0.130000X0*%
%ADD22RoundRect,0.135000X-0.135000X-0.185000X0.135000X-0.185000X0.135000X0.185000X-0.135000X0.185000X0*%
%ADD23RoundRect,0.200000X0.275000X-0.200000X0.275000X0.200000X-0.275000X0.200000X-0.275000X-0.200000X0*%
%ADD24R,1.200000X0.600000*%
%ADD25C,1.000000*%
%ADD26R,1.200000X1.850000*%
%ADD27C,3.000000*%
%ADD28HorizOval,1.300000X0.443163X-0.078142X-0.443163X0.078142X0*%
%ADD29C,1.500000*%
%ADD30C,0.265000*%
%ADD31O,2.000000X1.000000*%
%ADD32R,0.850000X0.270000*%
%ADD33R,0.950000X0.270000*%
%ADD34O,1.900000X0.600000*%
%ADD35FreePoly0,90.000000*%
%ADD36C,0.600000*%
%ADD37FreePoly1,90.000000*%
G04 APERTURE END LIST*
D10*
%TO.C,C34*%
X196680000Y-124000000D03*
X197320000Y-124000000D03*
%TD*%
D11*
%TO.C,J1*%
X104550000Y-102250000D03*
X108550000Y-102250000D03*
%TD*%
D12*
%TO.C,J3*%
X145999999Y-85469999D03*
D13*
X146249999Y-87954999D03*
D12*
X146499999Y-85469999D03*
D13*
X146749999Y-87954999D03*
D12*
X146999999Y-85469999D03*
D13*
X147249999Y-87954999D03*
D12*
X147499999Y-85469999D03*
D13*
X147749999Y-87954999D03*
D12*
X147999999Y-85469999D03*
D13*
X148249999Y-87954999D03*
D12*
X148499999Y-85469999D03*
D13*
X148749999Y-87954999D03*
D12*
X148999999Y-85469999D03*
D13*
X149249999Y-87954999D03*
D12*
X149499999Y-85469999D03*
D13*
X149749999Y-87954999D03*
D12*
X149999999Y-85469999D03*
D13*
X150249999Y-87954999D03*
D12*
X150499999Y-85469999D03*
D13*
X150749999Y-87954999D03*
D12*
X150999999Y-85469999D03*
D13*
X151249999Y-87954999D03*
D12*
X151499999Y-85469999D03*
D13*
X151749999Y-87954999D03*
D12*
X151999999Y-85469999D03*
D13*
X152249999Y-87954999D03*
D12*
X152499999Y-85469999D03*
D13*
X152749999Y-87954999D03*
D12*
X152999999Y-85469999D03*
D13*
X153249999Y-87954999D03*
D12*
X153499999Y-85469999D03*
D13*
X153749999Y-87954999D03*
D12*
X153999999Y-85469999D03*
D14*
X154669999Y-85794999D03*
X145329999Y-85794999D03*
%TD*%
D15*
%TO.C,J4*%
X173749999Y-88749999D03*
X173249999Y-88749999D03*
X172749999Y-88749999D03*
X172249999Y-88749999D03*
D16*
X174539999Y-86099999D03*
X171459999Y-86099999D03*
%TD*%
D17*
%TO.C,J5*%
X183875000Y-102400000D03*
X183875000Y-103600000D03*
D18*
X180100000Y-101250000D03*
X180100000Y-104750000D03*
%TD*%
D19*
%TO.C,Q1*%
X183099999Y-83499999D03*
X184999999Y-83499999D03*
X184049999Y-81499999D03*
%TD*%
%TO.C,Q2*%
X187799999Y-83499999D03*
X189699999Y-83499999D03*
X188749999Y-81499999D03*
%TD*%
%TO.C,Q3*%
X192549999Y-83499999D03*
X194449999Y-83499999D03*
X193499999Y-81499999D03*
%TD*%
D20*
%TO.C,R1*%
X105250000Y-96110000D03*
X105250000Y-96750000D03*
%TD*%
D21*
%TO.C,R2*%
X107250000Y-96750000D03*
X107250000Y-96110000D03*
%TD*%
D20*
%TO.C,R3*%
X104250000Y-96103466D03*
X104250000Y-96743466D03*
%TD*%
D21*
%TO.C,R4*%
X106250000Y-96743652D03*
X106250000Y-96103652D03*
%TD*%
D20*
%TO.C,R21*%
X185500000Y-85085000D03*
X185500000Y-85725000D03*
%TD*%
D21*
%TO.C,R22*%
X182640603Y-85725000D03*
X182640603Y-85085000D03*
%TD*%
%TO.C,R23*%
X184046551Y-85725000D03*
X184046551Y-85085000D03*
%TD*%
D20*
%TO.C,R24*%
X187250000Y-85085000D03*
X187250000Y-85725000D03*
%TD*%
%TO.C,R25*%
X188782158Y-85085944D03*
X188782158Y-85725944D03*
%TD*%
%TO.C,R26*%
X190282633Y-85099548D03*
X190282633Y-85739548D03*
%TD*%
%TO.C,R27*%
X193542387Y-85103648D03*
X193542387Y-85743648D03*
%TD*%
%TO.C,R28*%
X192042387Y-85098843D03*
X192042387Y-85738843D03*
%TD*%
%TO.C,R29*%
X194985765Y-85103172D03*
X194985765Y-85743172D03*
%TD*%
D22*
%TO.C,R31*%
X190815000Y-104700000D03*
X191835000Y-104700000D03*
%TD*%
D20*
%TO.C,R32*%
X192950000Y-103655000D03*
X192950000Y-104295000D03*
%TD*%
%TO.C,R33*%
X192950000Y-104980000D03*
X192950000Y-105620000D03*
%TD*%
D23*
%TO.C,R34*%
X196500000Y-117250000D03*
X196500000Y-115600000D03*
%TD*%
D24*
%TO.C,B10*%
X199249999Y-125949999D03*
X199249999Y-123749999D03*
X199249999Y-124849999D03*
D25*
X201350000Y-127225000D03*
D26*
X201349999Y-127649999D03*
D25*
X201350000Y-122475000D03*
D26*
X201349999Y-122049999D03*
%TD*%
D27*
%TO.C,H51*%
X98500000Y-81000000D03*
%TD*%
%TO.C,H52*%
X99750000Y-100250000D03*
%TD*%
D28*
%TO.C,H53*%
X99774999Y-103899999D03*
%TD*%
D27*
%TO.C,H54*%
X121750000Y-83500000D03*
%TD*%
%TO.C,H55*%
X117750000Y-99250000D03*
%TD*%
D29*
%TO.C,H56*%
X200600000Y-116150000D03*
%TD*%
D27*
%TO.C,H60*%
X180900000Y-132000000D03*
%TD*%
%TO.C,H58*%
X178850000Y-97250000D03*
%TD*%
%TO.C,H59*%
X178850000Y-84250000D03*
%TD*%
%TO.C,H57*%
X197750000Y-81550000D03*
%TD*%
D30*
%TO.C,IC1*%
X104950000Y-98550000D03*
X104950000Y-98150000D03*
X104950000Y-97750000D03*
X105350000Y-98550000D03*
X105350000Y-98150000D03*
X105350000Y-97750000D03*
X105750000Y-98550000D03*
X105750000Y-98150000D03*
X105750000Y-97750000D03*
X106150000Y-98550000D03*
X106150000Y-98150000D03*
X106150000Y-97750000D03*
%TD*%
D27*
%TO.C,J6*%
X201250000Y-97600000D03*
D31*
X204249999Y-98399999D03*
X204249999Y-110099999D03*
D27*
X201250000Y-110900000D03*
D32*
X197374999Y-107124999D03*
X197374999Y-106624999D03*
X197374999Y-106124999D03*
X197374999Y-105624999D03*
X197374999Y-105124999D03*
X197374999Y-104624999D03*
X197374999Y-104124999D03*
X197374999Y-103624999D03*
X197374999Y-103124999D03*
X197374999Y-102624999D03*
X197374999Y-102124999D03*
X197374999Y-101624999D03*
D33*
X195724999Y-101374999D03*
X195724999Y-101874999D03*
X195724999Y-102374999D03*
X195724999Y-102874999D03*
X195724999Y-103374999D03*
X195724999Y-103874999D03*
X195724999Y-104374999D03*
X195724999Y-104874999D03*
X195724999Y-105374999D03*
X195724999Y-105874999D03*
X195724999Y-106374999D03*
X195724999Y-106874999D03*
D34*
X196499999Y-99324999D03*
D35*
X197150000Y-100475000D03*
D36*
X196050000Y-100575000D03*
X196050000Y-107925000D03*
D37*
X197150000Y-108025000D03*
D34*
X196499999Y-109174999D03*
%TD*%
M02*
